<?xml version="1.0" encoding="utf-8"?>
<!-- Generator: Adobe Illustrator 23.0.2, SVG Export Plug-In . SVG Version: 6.00 Build 0)  -->
<svg version="1.1" id="Layer_2" xmlns="http://www.w3.org/2000/svg" xmlns:xlink="http://www.w3.org/1999/xlink" x="0px" y="0px"
	 viewBox="0 0 612 792" style="enable-background:new 0 0 612 792;" xml:space="preserve">
<g>
	<g>
		<path d="M279.32,305.45c-5.53-10.56-20.08-11.93-27.55-2.76c-9.29,11.4-6.28,29.16,5.04,37.93c9.77,7.57,26.09,8.92,31.33-4.45
			c5.13-13.09-2.9-27.51-14.08-34.41c-1.65-1.02-3.16,1.58-1.51,2.59c8.77,5.41,15.3,15.54,13.93,26.13
			c-0.71,5.47-3.63,10.91-9.28,12.48c-5.63,1.56-12.21-0.45-16.94-3.56c-10.22-6.73-14.08-20.75-8.24-31.67
			c5.32-9.93,19.16-11.39,24.72-0.77C277.62,308.67,280.21,307.16,279.32,305.45L279.32,305.45z"/>
	</g>
</g>
<g>
	<g>
		<path d="M268.24,318.73c-1.32,2.93-1.67,5.86-1.01,9.01c0.11,0.51,0.57,0.91,1.05,1.05c1.36,0.39,2.72,0.78,4.07,1.17
			c0.76,0.22,1.65-0.27,1.85-1.05c0.63-2.58,1.21-5.62-0.61-7.87c-1.2-1.49-4.01-2.85-5.76-1.36c-1.59,1.35-1.03,4.16-0.06,5.67
			c1.25,1.95,3.28,2.8,5.52,2.46c0.47-0.07,0.96-0.59,1.05-1.05c0.47-2.35,0.04-4.67-1.37-6.63c-1.06-1.48-3.65-3.8-5.65-3.11
			c-1.94,0.67-2.86,3.32-2.5,5.17c0.43,2.18,2.48,3.74,4.69,3.74c4.3-0.01,5.44-5.4,3.02-8.28c-3.11-3.7-8.35-0.61-9.08,3.46
			c-1.03,5.75,5.73,8.28,10.17,6.4c0.5-0.21,0.7-0.81,0.74-1.3c0.25-2.97,0.4-6.34-1.54-8.82c-1.31-1.68-3.57-2.63-5.69-2.31
			c-5.53,0.84-4.24,7.92-1.08,10.67c1.64,1.43,4.32,2.59,6.53,1.98c2.04-0.56,2.64-3.38,2.28-5.23c-0.97-5.04-7.53-5.67-10.06-1.5
			c-1,1.65,1.59,3.16,2.59,1.51c1.34-2.2,5.35-1.33,4.54,1.53c-0.68,2.42-4.56-0.95-5.16-2.11c-0.49-0.95-0.94-2.65-0.03-3.5
			c0.77-0.71,2.03-0.44,2.86,0.05c2.46,1.48,1.95,5.31,1.74,7.72c0.25-0.43,0.5-0.86,0.74-1.3c-1.63,0.69-3.92,0.38-5.09-1.05
			c-1.28-1.57-0.44-4.59,1.75-4.85c1.47-0.17,2.43,1.58,1.98,2.91c-0.83,2.49-4.78-0.46-2.09-2.24c-0.39,0.05-0.77,0.1-1.16,0.15
			c2.69,0.7,4.49,3.35,3.94,6.13c0.35-0.35,0.7-0.7,1.05-1.05c-0.96,0.14-1.83-0.51-2.28-1.31c-0.23-0.38-0.35-0.8-0.37-1.25
			c-0.34-0.31-0.27-0.37,0.23-0.17c2.66,0,1.57,4.52,1.23,5.92c0.62-0.35,1.23-0.7,1.85-1.05c-1.36-0.39-2.72-0.78-4.07-1.17
			c0.35,0.35,0.7,0.7,1.05,1.05c-0.48-2.3-0.26-4.55,0.71-6.7C271.62,318.5,269.03,316.98,268.24,318.73L268.24,318.73z"/>
	</g>
</g>
<g>
	<g>
		<path d="M337.76,251.72c-27.25-7.2-27.52,54.64,3.6,54.52c13.77-0.05,23.44-12.87,22.4-26.01c-1.16-14.74-13.13-24.99-26.82-28.35
			c-1.87-0.46-2.67,2.43-0.8,2.89c10.67,2.61,20.48,9.52,23.69,20.47c3.4,11.58-2.35,24.86-14.77,27.57
			c-12.54,2.74-21.96-8.56-23.92-19.85c-1.72-9.96,0.35-32.44,15.81-28.36C338.83,255.1,339.62,252.21,337.76,251.72L337.76,251.72z
			"/>
	</g>
</g>
<g>
	<g>
		<path d="M336.34,279.31c-0.15,3.75,0.12,8.73,4.37,10.13c2.63,0.87,5.95-0.23,6.43-3.21c0.95-5.87-11.09-14.01-12.6-5.87
			c-1.24,6.66,7.91,14.55,12.92,7.86c1.94-2.58,1.98-6.44,0.51-9.25c-2.18-4.19-6.9-6.1-11.04-7.75c-0.44-0.17-1.17,0.01-1.46,0.39
			c-2.51,3.24-4.23,7.5-2.57,11.54c1.29,3.16,4.77,5.49,8.24,4.99c8.06-1.16,7.01-13.52-0.58-14.54
			c-7.63-1.03-11.15,10.41-3.5,13.08c7.65,2.68,12.42-7.47,6.33-12.31c-0.39-0.31-0.94-0.6-1.46-0.39
			c-6.19,2.49-3.84,11.03,2.78,9.91c0.9-0.15,1.44-1.47,0.9-2.2c-0.52-0.71,0.79-3.09,0.47-4.13c-0.23-0.73-0.66-1.29-1.41-1.58
			c-1.53-0.59-3.2,0.48-3.12,2.11c0.1,1.92,3.1,1.93,3,0c-0.04-0.75-2.17,2.27-2.22,2.9c-0.07,0.99,0.11,1.44,0.68,2.21
			c0.3-0.73,0.6-1.47,0.9-2.2c-3.12-0.29-3.51-1.67-1.18-4.13c-0.49-0.13-0.97-0.26-1.46-0.39c3.18,2.53,2.12,8.62-2.71,7.51
			c-5.66-1.3-1.64-9.62,3.03-6.91c4.07,2.36,2.05,9.63-2.92,7.78c-4.94-1.84-3.61-7.88-1.07-11.14c-0.49,0.13-0.97,0.26-1.46,0.39
			c3.48,1.38,7.99,3.1,9.44,6.89c1.49,3.88-1.9,9.2-5.93,5.41c-1-0.94-2.85-3.75-2.21-5.25c1.11-2.59,4.1,0.11,5.11,1.26
			c0.72,0.83,2.3,2.82,1.19,4.04c-0.77,0.85-2.53-0.07-3.09-0.63c-1.65-1.64-1.39-4.38-1.3-6.53
			C339.42,277.38,336.42,277.38,336.34,279.31L336.34,279.31z"/>
	</g>
</g>
<g>
	<g>
		<path d="M227.96,310.03c-2.76-20.21,13.42-37.29,33.61-36.25c1.93,0.1,1.92-2.9,0-3c-22.34-1.15-39.51,18.05-36.51,40.05
			C225.33,312.73,228.22,311.92,227.96,310.03L227.96,310.03z"/>
	</g>
</g>
<g>
	<g>
		<path d="M300.33,246.49c-1.13-9.06,12.82-16.52,20.08-17.96c9.81-1.95,19.72,1.76,26.54,8.86c1.34,1.4,3.46-0.73,2.12-2.12
			c-7.9-8.23-19.69-12.18-30.89-9.3c-8.1,2.08-22.09,10.56-20.85,20.53C297.57,248.39,300.57,248.41,300.33,246.49L300.33,246.49z"
			/>
	</g>
</g>
<g>
	<g>
		<path d="M317.36,379.85c18.49,7.07,39.21,4.11,55.34-7.32c14.32-10.16,23.41-27.49,18.13-45.04c-0.55-1.84-3.45-1.06-2.89,0.8
			c5.24,17.45-4.79,34.23-19.41,43.43c-15.23,9.58-33.54,11.69-50.37,5.25C316.36,376.26,315.58,379.16,317.36,379.85L317.36,379.85
			z"/>
	</g>
</g>
</svg>
