<?xml version="1.0" encoding="utf-8"?>
<!-- Generator: Adobe Illustrator 23.0.2, SVG Export Plug-In . SVG Version: 6.00 Build 0)  -->
<svg version="1.1" id="Layer_1" xmlns="http://www.w3.org/2000/svg" xmlns:xlink="http://www.w3.org/1999/xlink" x="0px" y="0px"
	 viewBox="0 0 565 565" style="enable-background:new 0 0 565 565;" xml:space="preserve">
<style type="text/css">
	.st0{fill:#A596B5;}
</style>
<path class="st0" d="M112.32,517.53l101.83,1.23l1.23-159.49c0,0,0-19.63,22.08-22.08c22.08-2.45,71.16,0,71.16,0
	s25.76,0,25.76,19.63s-2.45,161.95-2.45,161.95l98.15,2.45c0,0,19.63-1.23,22.08-24.54c2.45-23.31,2.45-190.16,2.45-190.16
	l45.39-1.23c0,0,36.81-19.63,15.95-44.17s-58.89-57.66-58.89-57.66l-1.23-119.01c0,0,2.45-20.86-23.31-20.86s-45.39,0-45.39,0
	s-15.95,6.13-15.95,19.63s1.23,33.13,1.23,33.13l-78.51-77.3c0,0-15.95-18.4-35.58,2.45S35.03,259.88,35.03,259.88
	s-9.81,40.49,18.4,46.62c19.39,4.22,45.4,6.04,45.39,6.13c0,0.02-1.37,0.01-2.45,0c-0.41,57.25-0.82,114.51-1.23,171.76
	C95.15,484.4,87.78,513.85,112.32,517.53z"/>
</svg>
