<?xml version="1.0" encoding="utf-8"?>
<!-- Generator: Adobe Illustrator 23.0.3, SVG Export Plug-In . SVG Version: 6.00 Build 0)  -->
<svg version="1.1" id="Layer_1" xmlns="http://www.w3.org/2000/svg" xmlns:xlink="http://www.w3.org/1999/xlink" x="0px" y="0px"
	 viewBox="0 0 565 565" style="enable-background:new 0 0 565 565;" xml:space="preserve">
<style type="text/css">
	.st0{fill:#FAEBD7;}
</style>
<path class="st0" d="M112.3,517.5l101.8,1.2l1.2-159.5c0,0,0-19.6,22.1-22.1s71.2,0,71.2,0s25.8,0,25.8,19.6s-2.5,161.9-2.5,161.9
	l98.1,2.5c0,0,19.6-1.2,22.1-24.5s2.5-190.2,2.5-190.2l45.4-1.2c0,0,36.8-19.6,16-44.2s-58.9-57.7-58.9-57.7l-1.2-119
	c0,0,2.5-20.9-23.3-20.9s-45.4,0-45.4,0s-16,6.1-16,19.6s1.2,33.1,1.2,33.1L293.9,39c0,0-16-18.4-35.6,2.5S35,259.9,35,259.9
	s-9.8,40.5,18.4,46.6c19.4,4.2,45.4,6,45.4,6.1c0,0-1.4,0-2.4,0c-0.4,57.2-0.8,114.5-1.2,171.8C95.2,484.4,87.8,513.8,112.3,517.5z"
	/>
</svg>
