<?xml version="1.0" encoding="utf-8"?>
<!-- Generator: Adobe Illustrator 23.0.3, SVG Export Plug-In . SVG Version: 6.00 Build 0)  -->
<svg version="1.1" id="Layer_1" xmlns="http://www.w3.org/2000/svg" xmlns:xlink="http://www.w3.org/1999/xlink" x="0px" y="0px"
	 viewBox="0 0 565 565" style="enable-background:new 0 0 565 565;" xml:space="preserve">
<style type="text/css">
	.st0{fill:#FAEBD7;}
</style>
<path class="st0" d="M8.3,244.9c0,0-4.4,18.5,12,20.7l256.3-140.7l265,140.7c0,0,17.5-5.5,8.7-20.7l-265-146.2c0,0-8.7-5.4-14.2-1.1
	L8.3,244.9z"/>
<path class="st0" d="M370.6,247.1c0,0-6.5-2.2-29.5,14.2s-36,27.3-68.7,25.1s-49.1-13.1-49.1-17.5s-13.1-6.5-6.5,5.5
	c6.5,12,38.2,29.5,40.4,49.1c2.2,19.6,7.6,19.6-7.6,79.6s6.5,41.5,6.5,41.5s7.6-58.9,14.2-62.2s10.9-12,15.3,5.5s7.6,57.8,15.3,57.8
	c7.6,0,13.1,3.3,8.7-16.4c-4.4-19.6-10.9-62.2-10.9-62.2s-4.4-48,8.7-54.5C320.5,306,375,252.5,370.6,247.1z"/>
<path class="st0" d="M70.5,246c0,0,6.5-2.2,29.4,14.2s36,27.3,68.7,25.1s49.1-13.1,49.1-17.5s13.1-6.5,6.5,5.5
	c-6.5,12-38.2,29.5-40.4,49.1s-7.6,19.6,7.6,79.6s-6.5,41.5-6.5,41.5s-7.6-58.9-14.2-62.2s-10.9-12-15.3,5.5s-7.6,57.8-15.3,57.8
	s-13.1,3.3-8.7-16.4c4.4-19.6,10.9-62.2,10.9-62.2s4.4-48-8.7-54.5C120.6,304.9,66.1,251.4,70.5,246z"/>
<path class="st0" d="M489.9,246.1c0,0-6.5-2.2-29.5,14.2s-36,27.3-68.7,25.1s-49.1-13.1-49.1-17.5s-13.1-6.5-6.5,5.5
	c6.5,12,38.2,29.5,40.4,49.1c2.2,19.6,7.6,19.6-7.6,79.6c-15.3,60,6.5,41.5,6.5,41.5s7.6-58.9,14.2-62.2c6.5-3.3,10.9-12,15.3,5.5
	s7.6,57.8,15.3,57.8c7.6,0,13.1,3.3,8.7-16.4c-4.4-19.6-10.9-62.2-10.9-62.2s-4.4-48,8.7-54.5C439.8,305,494.3,251.5,489.9,246.1z"
	/>
<circle class="st0" cx="163.2" cy="250.3" r="25.1"/>
<circle class="st0" cx="275.9" cy="244.9" r="25.1"/>
<circle class="st0" cx="403.5" cy="246" r="25.1"/>
</svg>
