<?xml version="1.0" encoding="utf-8"?>
<!-- Generator: Adobe Illustrator 23.0.2, SVG Export Plug-In . SVG Version: 6.00 Build 0)  -->
<svg version="1.1" id="Layer_1" xmlns="http://www.w3.org/2000/svg" xmlns:xlink="http://www.w3.org/1999/xlink" x="0px" y="0px"
	 viewBox="0 0 565 565" style="enable-background:new 0 0 565 565;" xml:space="preserve">
<style type="text/css">
	.st0{fill:#A596B5;}
</style>
<path class="st0" d="M8.3,244.87c0,0-4.36,18.54,12,20.72l256.32-140.7l265.05,140.7c0,0,17.45-5.45,8.73-20.72L285.34,98.71
	c0,0-8.73-5.45-14.18-1.09L8.3,244.87z"/>
<path class="st0" d="M370.62,247.07c0,0-6.54-2.18-29.45,14.18s-35.99,27.27-68.72,25.09s-49.08-13.09-49.08-17.45
	c0-4.36-13.09-6.54-6.54,5.45c6.54,12,38.18,29.45,40.36,49.08c2.18,19.63,7.64,19.63-7.64,79.62s6.54,41.45,6.54,41.45
	s7.64-58.9,14.18-62.17s10.91-12,15.27,5.45s7.64,57.81,15.27,57.81c7.64,0,13.09,3.27,8.73-16.36
	c-4.36-19.63-10.91-62.17-10.91-62.17s-4.36-47.99,8.73-54.54C320.45,305.97,374.99,252.52,370.62,247.07z"/>
<path class="st0" d="M70.47,245.96c0,0,6.54-2.18,29.45,14.18s35.99,27.27,68.72,25.09s49.08-13.09,49.08-17.45
	s13.09-6.54,6.54,5.45c-6.54,12-38.18,29.45-40.36,49.08s-7.64,19.63,7.64,79.62S185,443.39,185,443.39s-7.64-58.9-14.18-62.17
	s-10.91-12-15.27,5.45s-7.64,57.81-15.27,57.81s-13.09,3.27-8.73-16.36c4.36-19.63,10.91-62.17,10.91-62.17s4.36-47.99-8.73-54.54
	C120.64,304.86,66.11,251.42,70.47,245.96z"/>
<path class="st0" d="M489.93,246.08c0,0-6.54-2.18-29.45,14.18s-35.99,27.27-68.72,25.09s-49.08-13.09-49.08-17.45
	s-13.09-6.54-6.54,5.45c6.54,12,38.18,29.45,40.36,49.08c2.18,19.63,7.64,19.63-7.64,79.62c-15.27,59.99,6.54,41.45,6.54,41.45
	s7.64-58.9,14.18-62.17c6.54-3.27,10.91-12,15.27,5.45s7.64,57.81,15.27,57.81c7.64,0,13.09,3.27,8.73-16.36
	c-4.36-19.63-10.91-62.17-10.91-62.17s-4.36-47.99,8.73-54.54C439.76,304.98,494.3,251.54,489.93,246.08z"/>
<circle class="st0" cx="163.18" cy="250.33" r="25.09"/>
<circle class="st0" cx="275.86" cy="244.87" r="25.09"/>
<circle class="st0" cx="403.48" cy="245.96" r="25.09"/>
</svg>
