<?xml version="1.0" encoding="utf-8"?>
<!-- Generator: Adobe Illustrator 23.0.3, SVG Export Plug-In . SVG Version: 6.00 Build 0)  -->
<svg version="1.1" id="Layer_1" xmlns="http://www.w3.org/2000/svg" xmlns:xlink="http://www.w3.org/1999/xlink" x="0px" y="0px"
	 viewBox="0 0 565 565" style="enable-background:new 0 0 565 565;" xml:space="preserve">
<style type="text/css">
	.st0{fill:#FAEBD7;}
	.st1{fill:#4E4656;}
</style>
<g>
	
		<ellipse transform="matrix(0.7071 -0.7071 0.7071 0.7071 -121.9645 283.2486)" class="st0" cx="280.9" cy="288.8" rx="248.5" ry="248.5"/>
	<path class="st1" d="M55.2,238.1c0,0-3.7,23.5,10.2,26.3L282.8,85.8l224.8,178.6c0,0,14.8-7,7.4-26.3L290.1,52.5
		c0,0-7.4-6.9-12-1.4L55.2,238.1z"/>
	<path class="st1" d="M362.5,240.9c0,0-5.5-2.8-25,18s-30.5,34.6-58.3,31.9c-27.7-2.8-41.6-16.6-41.6-22.2c0-5.6-11.1-8.2-5.5,7
		c5.5,15.2,32.4,37.4,34.3,62.3s6.4,24.9-6.4,101s5.5,52.7,5.5,52.7s6.4-74.8,12-78.9s9.2-15.2,13,7c3.7,22.2,6.4,73.4,13,73.4
		c6.4,0,11.1,4.2,7.4-20.8c-3.7-24.9-9.2-78.9-9.2-78.9s-3.7-60.9,7.4-69.2C320,315.6,366.2,247.7,362.5,240.9z"/>
	<path class="st1" d="M108,239.5c0,0,5.5-2.8,24.9,18c19.4,20.8,30.5,34.6,58.3,31.9c27.7-2.8,41.6-16.6,41.6-22.2s11.1-8.2,5.5,7
		c-5.5,15.2-32.4,37.4-34.3,62.3c-1.9,24.9-6.4,24.9,6.4,101c12.9,76.2-5.5,52.7-5.5,52.7s-6.4-74.8-12-78.9c-5.6-4.2-9.2-15.2-13,7
		c-3.7,22.2-6.4,73.4-13,73.4c-6.5,0-11.1,4.2-7.4-20.8c3.7-24.9,9.2-78.9,9.2-78.9s3.7-60.9-7.4-69.2
		C150.5,314.2,104.2,246.3,108,239.5z"/>
	<path class="st1" d="M463.7,239.6c0,0-5.5-2.8-25,18s-30.5,34.6-58.3,31.9c-27.7-2.8-41.6-16.6-41.6-22.2s-11.1-8.2-5.5,7
		c5.5,15.2,32.4,37.4,34.3,62.3c1.9,24.9,6.4,24.9-6.4,101c-13,76.2,5.5,52.7,5.5,52.7s6.4-74.8,12-78.9c5.5-4.2,9.2-15.2,13,7
		c3.7,22.2,6.4,73.4,13,73.4c6.4,0,11.1,4.2,7.4-20.8c-3.7-24.9-9.2-78.9-9.2-78.9s-3.7-60.9,7.4-69.2
		C421.2,314.3,467.4,246.4,463.7,239.6z"/>
	<ellipse class="st1" cx="186.6" cy="244.9" rx="21.3" ry="31.9"/>
	<path class="st1" d="M282.2,206.2c11.8,0,21.3,14.3,21.3,31.9s-9.5,31.9-21.3,31.9c-11.8,0-21.3-14.3-21.3-31.9
		S270.4,206.2,282.2,206.2z"/>
	<path class="st1" d="M390.4,207.6c11.8,0,21.3,14.3,21.3,31.9s-9.5,31.9-21.3,31.9c-11.8,0-21.3-14.3-21.3-31.9
		S378.6,207.6,390.4,207.6z"/>
</g>
</svg>
