<?xml version="1.0" encoding="utf-8"?>
<!-- Generator: Adobe Illustrator 23.0.2, SVG Export Plug-In . SVG Version: 6.00 Build 0)  -->
<svg version="1.1" xmlns="http://www.w3.org/2000/svg" xmlns:xlink="http://www.w3.org/1999/xlink" x="0px" y="0px"
	 viewBox="0 0 612 792" style="enable-background:new 0 0 612 792;" xml:space="preserve">
<style type="text/css">
	.st0{fill:url(#SVGID_1_);}
	.st1{fill:url(#SVGID_2_);}
	.st2{fill:url(#SVGID_3_);}
	.st3{fill:url(#SVGID_4_);}
	.st4{fill:url(#SVGID_5_);}
	.st5{fill:url(#SVGID_6_);}
	.st6{fill:url(#SVGID_7_);}
	.st7{fill:url(#SVGID_8_);}
	.st8{fill:url(#SVGID_9_);}
	.st9{fill:url(#SVGID_10_);}
	.st10{fill:url(#SVGID_11_);}
	.st11{fill:url(#SVGID_12_);}
	.st12{fill:url(#SVGID_13_);}
	.st13{fill:url(#SVGID_14_);}
	.st14{fill:url(#SVGID_15_);}
	.st15{fill:url(#SVGID_16_);}
	.st16{fill:url(#SVGID_17_);}
	.st17{fill:url(#SVGID_18_);}
	.st18{fill:url(#SVGID_19_);}
	.st19{fill:url(#SVGID_20_);}
	.st20{fill:url(#SVGID_21_);}
	.st21{fill:url(#SVGID_22_);}
	.st22{fill:url(#SVGID_23_);}
	.st23{fill:url(#SVGID_24_);}
</style>
<g id="Colors">
	<g>
		<g>
			<linearGradient id="SVGID_1_" gradientUnits="userSpaceOnUse" x1="197.8789" y1="321.3011" x2="465.491" y2="321.3011">
				<stop  offset="0" style="stop-color:#F7931E"/>
				<stop  offset="1" style="stop-color:#C1272D"/>
			</linearGradient>
			<path class="st0" d="M321.55,245.39c21.03,35.27,43.08,69.93,66.12,103.92c4.83,7.13,14.74,10.97,22.58,5.92
				c7.19-4.64,10.98-14.86,5.92-22.58c-25.87-39.44-51.74-78.89-77.61-118.33c-4.73-7.21-14.82-10.92-22.58-5.92
				c-7.63,4.92-10.43,14.51-5.92,22.58c25.51,45.59,51.02,91.18,76.53,136.77c9.5-5.55,19-11.1,28.49-16.66
				c-24.55-42.14-54.77-81.06-89.45-115.35c-5.01-4.96-13.86-6.53-20-2.58c-5.85,3.77-10.08,11.6-7.58,18.63
				c15.59,43.93,39.92,83.59,64.57,122.89c9.5-5.55,19-11.1,28.49-16.66c-29.09-39.97-58.42-80.26-94.61-114.2
				c-13.79-12.93-34.67,3.32-25.91,20c20.36,38.76,45.26,74.95,73.73,108.2c5.34,6.24,15.62,5.96,21.66,1.29
				c6.16-4.76,8.82-14.39,4.25-21.29c-26.47-39.87-56.56-77.36-89.84-111.76c-13.14-13.58-35.13,3.77-25.91,20
				c20.1,35.39,42.13,69.64,65.97,102.62c8.64-6.67,17.28-13.33,25.91-20c-23.52-29.75-48.07-58.66-73.61-86.7
				c-12.55-13.78-36.04,4.17-25.91,20c15.16,23.69,30.74,47.11,46.73,70.24c8.64-6.67,17.28-13.33,25.91-20
				c-20.94-24.37-42.65-48.05-65.11-71.03c-5.76-5.89-15.29-6.22-21.66-1.29c-6.04,4.66-9,14.53-4.25,21.29
				c14.76,21,29.52,42.01,44.29,63.01c8.64-6.67,17.28-13.33,25.91-20c-1.69-2.17-4.28-5.55-6.64-8.69
				c-2.28-3.03-4.53-6.07-6.76-9.13c-4.84-6.62-9.57-13.32-14.21-20.09c-9.26-13.52-18.1-27.33-26.54-41.37
				c-4.25-7.07-13.05-9.94-20.6-6.75c-7.16,3.02-12.21,11.63-9.55,19.47c2.21,6.52,5.01,12.83,8.72,18.64
				c4.63,7.27,14.89,10.88,22.58,5.92c7.46-4.81,10.65-14.64,5.92-22.58c-4.38-7.35-8.76-14.7-13.14-22.05
				c-4.22-7.08-13.07-9.93-20.6-6.75c-6.78,2.86-12.74,11.87-9.55,19.47c1.05,2.51,2.01,5.09,2.44,7.79c0.44,2.79,0.01-1.8,0,1.02
				c0,1.53-0.04,3-0.15,4.53c10.8-1.46,21.61-2.92,32.41-4.39c-1.4-6.04-2.8-12.07-4.2-18.11c-4.24-18.27-32.47-14.08-32.41,4.39
				c0.02,5.4,0.03,10.81,0.05,16.21c0.02,8.23,6.26,15.12,14.31,16.21c7.38,0.99,16.78-3.71,18.1-11.82
				c2.07-12.71,0.43-25.67-7.37-36.3c-4.03-5.49-9.34-8.83-16.44-7.88c-6.47,0.87-11.88,5.47-13.72,11.82
				c-2.95,10.21-2.98,20.58-0.55,30.88c1.89,8,10.31,12.87,18.1,11.82c8.2-1.1,14.06-7.92,14.31-16.21
				c0.24-7.97-0.94-16.1-3.6-23.62c-2.76-7.81-9.62-12.96-18.1-11.82c-8.21,1.1-14.05,7.92-14.31,16.21
				c-0.45,14.68-0.9,29.36-1.35,44.03c-0.26,8.64,7.78,16.89,16.5,16.5c9.82-0.44,15.4-7.28,16.5-16.5
				c1.21-10.07,1.47-20.16,0.79-30.28c-0.58-8.59-7.17-16.92-16.5-16.5c-9.87,0.44-15.33,7.29-16.5,16.5
				c-1.29,10.23-0.55,20.2,1.28,30.33c1.46,8.06,10.65,12.82,18.1,11.82c8.09-1.09,14.22-7.93,14.31-16.21
				c0.12-11.7-1.15-23.37-3.44-34.84c-1.61-8.04-10.53-12.84-18.1-11.82c-8.01,1.08-14.33,7.94-14.31,16.21
				c0.02,6.93,0.05,13.86,0.07,20.78c0.03,8.63,7.57,16.9,16.5,16.5c8.98-0.4,16.45-7.25,16.5-16.5c0.02-4.48,0.05-8.95,0.07-13.43
				c0.09-18.35-27.99-22.74-32.41-4.39c-2.81,11.66-2.68,23.81,1.05,35.26c2.56,7.86,9.78,12.94,18.1,11.82
				c7.98-1.07,14.37-7.94,14.31-16.21c-0.05-7.59-1.98-14.69-5.78-21.26c-3.31-5.74-9.99-8.74-16.44-7.88
				c-5.98,0.8-12.56,5.46-13.72,11.82c-2.11,11.57-2.08,22.54,0.42,34.06c2.58,11.91,19.46,16.23,27.58,7.28
				c8.54-9.41,10.16-21.59,4.26-32.88c-3.24-6.19-11.97-9.74-18.63-7.58c-7.16,2.32-11.77,8.38-12.11,15.91
				c-0.43,9.47,1.06,19.21,4.54,28.04c2.18,5.52,5.52,9.87,11.52,11.52c5.25,1.45,12.42,0.17,16.05-4.24
				c0.07-0.09,0.15-0.18,0.22-0.27c4.54-5.51,6.79-13.47,2.58-20c-4.04-6.26-11.29-9.43-18.63-7.58
				c-10.03,2.52-14.94,12.91-12.38,22.5c1.61,6.03,3.83,11.96,5.73,17.9c2.63,8.21,11.57,14.35,20.3,11.52
				c8.27-2.68,14.28-11.47,11.52-20.3c-0.76-2.42-1.51-4.85-2.27-7.27c-10.05,4.24-20.11,8.48-30.16,12.71
				c7.93,13.1,15.86,26.21,23.78,39.31c9.5-5.55,19-11.1,28.49-16.66c-1.78-2.57-3.44-5.2-4.9-7.97c-0.66-1.25-1.3-2.52-1.87-3.81
				c1.07,2.41-0.75-2.17-0.83-2.37c-2.75-7.81-9.63-12.96-18.1-11.82c-7.3,0.98-15.31,8.05-14.31,16.21c0.8,6.44,2.13,12.48,6,17.85
				c8.64-6.67,17.28-13.33,25.91-20c-2.15-2.73-4.31-5.47-6.46-8.2c-5.07-6.43-15.82-5.8-21.66-1.29
				c-6.73,5.2-7.98,13.83-4.25,21.29c1.8,3.59,3.6,7.18,5.39,10.78c3.67,7.34,13.51,9.75,20.6,6.75
				c7.51-3.17,11.71-11.45,9.55-19.47c-2.32-8.62-6.6-15.9-12.39-22.61c-5.36-6.22-15.6-5.97-21.66-1.29
				c-6.5,5.02-8.33,14.05-4.25,21.29c11.43,20.27,25.46,39.1,41.43,56.02c7.78-7.78,15.56-15.56,23.33-23.33
				c-2.37-1.89-4.6-3.91-6.55-6.24c-1.75-2.09,1.63,2.87-0.84-1.27c-0.84-1.41-1.65-2.82-2.4-4.28c-9.5,5.55-19,11.1-28.49,16.66
				c0.25,0.45,0.51,0.89,0.76,1.34c-0.75-2.78-1.5-5.55-2.25-8.33c-0.02,0.46-0.04,0.92-0.06,1.38c2.72-4.75,5.45-9.5,8.17-14.25
				c-0.19,0.12-0.38,0.24-0.57,0.35c4.24-0.55,8.48-1.11,12.71-1.66c-0.23-0.04-0.47-0.08-0.7-0.11c2.43,1.41,4.85,2.83,7.28,4.24
				c-0.16-0.14-0.32-0.27-0.47-0.41c1.41,5.35,2.83,10.7,4.24,16.05c0.04-0.17,0.08-0.35,0.12-0.52
				c-6.77,3.84-13.53,7.68-20.3,11.52c13.92,3.53,28.71-7.35,28.34-22.18c-0.41-16.39-18.12-25.97-32.21-17.85
				c-5.4,3.11-9.25,8.28-11.01,14.2c-2.69,9.04,1.75,17.33,8.93,22.5c9.55,6.87,19.34,13.43,29,20.13
				c4.24-10.05,8.48-20.11,12.71-30.16c-1.58-0.43-3.15-0.88-4.68-1.48c2.11,0.83-0.46-0.31-1.24-0.74
				c-1.2-0.65-2.34-1.37-3.48-2.11c-2.73-1.78,0.9,0.9-1.73-1.47c-7.78,7.78-15.56,15.56-23.33,23.33
				c5.73,4.58,11.47,9.16,17.2,13.74c6.67-8.64,13.33-17.28,20-25.91c-5.83-2.86-11.34-6.17-16.6-9.98
				c-6.65-4.82-16.69-1.7-21.29,4.25c-4.72,6.11-4.92,16.23,1.29,21.66c4.09,3.58,8.19,7.16,12.28,10.74
				c12.29,10.75,31.54,0.51,27.58-16.05c-0.93-3.91-1.87-7.82-2.8-11.73c-10.61,2.92-21.21,5.85-31.82,8.77
				c4.25,15.4,16.56,27.75,32.07,31.78c6.82,1.77,15.21-1.11,18.63-7.58c3.28-6.2,3.04-15.06-2.58-20
				c-6.06-5.31-12.24-8.89-19.8-11.64c-2.92,10.61-5.85,21.21-8.77,31.82c6.14,2.23,12.28,4.45,18.42,6.68
				c2.92-10.61,5.85-21.21,8.77-31.82c-5.49-1.16-10.98-2.32-16.47-3.47c-8.11-1.71-16.16,1.72-19.47,9.55
				c-3.39,8.03,0,15.71,6.75,20.6c46.93,33.98,103.76,52.95,161.58,55.15c16.35,0.62,22.47-22.95,8.33-30.75
				c-28.28-15.58-55.69-32.72-81.97-51.47c-27.57-19.68-53.54-41-79.22-65.21c-14.96-14.1-29.33-28.8-43.13-44.03
				c-11.06-12.2-32.39,0.56-27.58,16.05c9.26,29.79,30.95,53.13,52.49,74.81c22.61,22.74,47,43.53,72.65,62.76
				c6.56,4.92,16.75,1.62,21.29-4.25c5.21-6.75,4.19-15.4-1.29-21.66c-14.73-16.84-29.46-33.69-44.19-50.53
				c-7.78,7.78-15.56,15.56-23.33,23.33c27.23,25.36,55.78,50.13,86.9,70.65c8.66,5.71,17.77,11.3,27.65,14.66
				c8.03,2.73,17.28,3.22,25.71,3.36c9.11,0.16,19.23-0.23,27.24-5.07c5.01-3.03,8.62-8.05,10.15-13.68
				c1.76-6.48,0.16-12.65-1.42-18.94c-0.32-1.27-2.01-6.55-0.61-2.07c-0.6-1.94-0.4-4.49-0.42-6.52c-0.03-2.28,0.11-4.54,0.29-6.81
				c0.25-3.08-0.81,3.99,0.18-1.54c0.33-1.86,0.71-3.7,1.12-5.54c-10.61-2.92-21.21-5.85-31.82-8.77
				c-1.99,12.02,0.57,21.37,8.09,30.96c4.28,5.47,14.41,6.18,20,2.58c6.06-3.9,9.76-11.44,7.58-18.63
				c-1.23-4.07-2.47-8.15-3.7-12.22c-5.32-17.58-32.45-14.6-32.41,4.39c0.03,12.21,2.19,24.47,6.82,35.77
				c2.7,6.58,8.1,12.46,15.91,12.11c6.77-0.3,14.65-4.84,15.91-12.11c4.63-26.76,4.64-54.97-3.23-81.16
				c-6.38-21.25-16.55-41.67-28.15-60.55c-11.8-19.2-25.6-37.35-40.7-54.06c-10.08-11.16-20.9-21.67-32.46-31.3
				c-13.05-10.87-27.04-21.71-42.19-29.53c-18.4-9.49-39.45-12.11-58.91-4.19c-19.02,7.74-34.34,21.67-47.88,36.79
				c-4.85,5.42-6.51,13.51-2.58,20c13.6,22.43,39.64,36.44,65.95,34.64c14.24-0.97,21.79-17.34,11.67-28.17
				c-12.06-12.9-25.98-24.09-41.03-33.33c-12.61-7.74-27.6,5.02-24.24,18.63c5.14,20.8,36.11,29.45,50.14,12.1
				c4.61-5.71,6.65-13.27,2.58-20c-1.12-1.85-2.24-3.71-3.36-5.56c-8.64,6.67-17.28,13.33-25.91,20
				c12.98,11.41,31.9,11.67,44.63-0.39c10.74-10.18,2.16-27.71-11.67-28.17c-14.55-0.48-29.07,0.22-43.51,2.09
				c-8.25,1.07-15.02,5.46-16.21,14.31c-1.12,8.37,3.95,15.44,11.82,18.1c17.13,5.81,34.62,10.37,52.4,13.68
				c14.17,2.64,25.62-10.92,18.63-24.24c-5.2-9.9-12.33-18.94-20.79-26.26c-6.67,8.64-13.33,17.28-20,25.91
				c12.48,6.29,24.95,12.57,37.43,18.86c6.04,3.05,12.83,2.95,18.33-1.29c4.94-3.82,8.06-11.12,5.91-17.34
				c-2.79-8.1-6.77-14.9-12.55-21.24c-12.48-13.68-36.42,4.31-25.91,20c10.34,15.44,22.3,29.76,35.91,42.42
				c13.85,12.88,34.61-3.28,25.91-20c-9.2-17.68-19.36-34.82-30.45-51.38c-8.64,6.67-17.28,13.33-25.91,20
				c40.12,49.78,78.2,103.99,112.23,159.66c4.5,7.36,14.98,10.81,22.58,5.92c7.65-4.93,10.4-14.49,5.92-22.58
				c-22.57-40.75-47.26-80.29-73.96-118.47c-8.64,6.67-17.28,13.33-25.91,20c11.3,9.97,22.24,20.37,32.39,31.52
				c10.5,11.55,17.41,20.32,25.64,33.73c15.56,25.36,24.26,52.03,22.67,81.33c8.28-4.75,16.55-9.5,24.83-14.25
				c-28.94-15.26-56.6-32.79-82.75-52.45c-5.55,9.5-11.1,19-16.66,28.49c24.32,18.15,48.63,36.3,72.95,54.45
				c6.57,4.91,16.75,1.63,21.29-4.25c4.91-6.35,4.66-15.92-1.29-21.66c-17.53-16.93-35.96-32.88-55.24-47.79
				c-5.67-4.39-13.33-6.87-20-2.58c-6.13,3.95-9.65,11.39-7.58,18.63c4.64,16.26,14.18,32.84,29.99,40.44
				c16.53,7.95,36.74,6.67,50.26-6.51c8.07-7.86,5.22-20.04-3.34-25.91c-11.6-7.96-23.74-15.03-36.39-21.19
				c-7.47-3.64-16.03-2.56-21.29,4.25c-5.14,6.65-4.31,15.53,1.29,21.66c14.91,16.33,29.83,32.66,44.74,48.99
				c2.43-9.19,4.85-18.39,7.28-27.58c-16.46,3.53-20.71,24.43-10.01,35.93c8.27,8.88,24.85,4.67,27.58-7.28
				c1.47-6.42,2.93-12.83,4.4-19.25c1.92-8.4-2.57-18.26-11.52-20.3c-8.4-1.91-18.24,2.53-20.3,11.52
				c-1.47,6.42-2.93,12.83-4.4,19.25c9.19-2.43,18.39-4.85,27.58-7.28c5.12,5.49,3.74,17.45-4.55,19.23
				c12.75-2.73,15.16-18.95,7.28-27.58c-14.91-16.33-29.83-32.66-44.74-48.99c-6.67,8.64-13.33,17.28-20,25.91
				c12.65,6.16,24.79,13.23,36.39,21.19c-1.11-8.64-2.23-17.28-3.34-25.91c-2.78,2.71,1.55-0.48-0.33,0.43
				c-1.49,0.72-2.39,1.23-0.27,0.46c-1.3,0.47-2.63,0.69-3.93,1.12c1.31-0.43,2.22-0.11,0.27-0.09c-1.42,0.01-2.78-0.04-4.19-0.1
				c1.51,0.06,1.96,0.4,0.22-0.08c-1.37-0.38-2.7-0.73-4.03-1.23c2.17,0.81,0.85,0.31-0.46-0.45c-0.49-0.29-3.21-2.19-1.04-0.49
				c-1.01-0.79-1.93-1.7-2.83-2.61c-0.9-0.91-1.77-1.86-2.57-2.86c1.44,1.81-0.01-0.19-0.56-1.05c-0.69-1.09-1.34-2.21-1.95-3.35
				c-0.17-0.32-1.94-3.97-1.17-2.25c0.77,1.71-0.75-2.02-0.87-2.38c-0.51-1.46-0.95-2.95-1.37-4.44
				c-9.19,5.35-18.39,10.7-27.58,16.05c19.28,14.91,37.71,30.86,55.24,47.79c6.67-8.64,13.33-17.28,20-25.91
				c-24.32-18.15-48.63-36.3-72.95-54.45c-6.94-5.18-18.73-1.36-22.58,5.92c-4.58,8.67-1.47,17.01,5.92,22.58
				c26.15,19.67,53.81,37.19,82.75,52.45c11.41,6.01,24.14-1.54,24.83-14.25c3.75-68.89-41.46-126.76-90.35-169.92
				c-6.21-5.48-14.92-6.5-21.66-1.29c-6.05,4.67-8.98,14.52-4.25,21.29c26.7,38.17,51.39,77.71,73.96,118.47
				c9.5-5.55,19-11.1,28.49-16.66c-35.44-57.97-74.76-113.44-117.39-166.34c-5.14-6.38-15.77-5.85-21.66-1.29
				c-6.14,4.75-8.85,14.42-4.25,21.29c11.09,16.56,21.25,33.7,30.45,51.38c8.64-6.67,17.28-13.33,25.91-20
				c-12.4-11.53-22.03-22.72-30.75-35.74c-8.64,6.67-17.28,13.33-25.91,20c1.26,1.49,1.45,1.64,0.57,0.45
				c0.64,0.89,1.24,1.8,1.8,2.74c0.56,0.94,1.07,1.9,1.54,2.88c-0.58-1.44-0.53-1.24,0.14,0.61c8.08-6.21,16.16-12.42,24.24-18.63
				c-12.48-6.29-24.95-12.57-37.43-18.86c-7.41-3.73-16.08-2.49-21.29,4.25c-4.7,6.09-4.95,16.27,1.29,21.66
				c7.87,6.81,11.03,10.81,15.63,19.58c6.21-8.08,12.42-16.16,18.63-24.24c-17.78-3.31-35.27-7.87-52.4-13.68
				c-1.46,10.8-2.92,21.61-4.39,32.41c14.44-1.88,28.95-2.57,43.51-2.09c-3.89-9.39-7.78-18.78-11.67-28.17
				c-2.85,2.7,1.55-1.72,1.86-0.8c0.22,0.66-5.89,0.66-0.76,0.33c-3.51,0.22,2.86-0.61-0.79-0.14c0.51,0.23,1.03,0.45,1.54,0.68
				c-1.56-0.96-1.5-0.86,0.19,0.32c-6.22-5.47-14.91-6.51-21.66-1.29c-6.36,4.91-8.54,14.19-4.25,21.29
				c1.12,1.85,2.24,3.71,3.36,5.56c0.86-6.67,1.72-13.33,2.58-20c-0.58,0.71-2.62,1.94-0.56,0.87c0.39-0.2,3.64-1.77,2.43-1.33
				c-2.4,0.87-0.79,0.14,0.78,0.01c-2.97,0.23,2.58,0.73,0.68,0.24c-1.95-0.5-0.72-0.61-0.56,0.03c1.3,0.6,1.31,0.58,0.06-0.06
				c-0.29-0.19-0.59-0.37-0.88-0.56c0.1-0.1,2.92,2.35,1.05,0.53c0.9,0.73,1.52,1.63,1.85,2.71c0.51,1.37,0.57,1.38,0.18,0.01
				c-8.08,6.21-16.16,12.42-24.24,18.63c13.37,8.21,23.09,16.12,34.35,28.17c3.89-9.39,7.78-18.78,11.67-28.17
				c-2.25,0.15-4.49,0.22-6.75,0.11c-1.25-0.06-2.5-0.14-3.73-0.3c1.66,0.22,1.45,0.23-0.05-0.12c-2.44-0.57-4.85-1.14-7.22-1.96
				c-0.94-0.32-1.88-0.67-2.81-1.04c2.19,0.9,0.26,0.04-0.82-0.51c-1.99-1.02-3.93-2.15-5.79-3.4c-0.82-0.55-1.64-1.12-2.43-1.72
				c1.85,1.43,0.2,0.05-0.66-0.73c-1.65-1.5-3.16-3.1-4.64-4.77c-0.92-1.03-1.03-1.5-0.15-0.15c-0.81-1.24-1.64-2.44-2.41-3.71
				c-0.86,6.67-1.72,13.33-2.58,20c5.16-5.77,10.52-11.37,16.32-16.5c1.41-1.25,2.85-2.46,4.31-3.65c2.25-1.83-0.62,0.34,1.75-1.3
				c3.45-2.39,6.95-4.66,10.7-6.56c0.79-0.4,4.16-1.85,1.66-0.87c1.65-0.65,3.33-1.23,5.03-1.72c1.7-0.5,3.42-0.87,5.15-1.23
				c0.81-0.17,2.99-0.06,0.12-0.02c1.02-0.01,2.03-0.14,3.05-0.16c1.81-0.04,3.63,0.04,5.43,0.22c1.85,0.19,0.1,0.04-0.22-0.02
				c1.08,0.2,2.15,0.41,3.21,0.66c1.78,0.42,3.54,0.93,5.27,1.52c0.72,0.25,1.44,0.51,2.15,0.78c-2.2-0.8-0.23-0.1,0.87,0.42
				c6.65,3.19,12.89,7.3,18.98,11.44c3.16,2.14,6.27,4.35,9.33,6.63c0.55,0.41,4.36,3.33,2.42,1.81c1.67,1.31,3.32,2.63,4.96,3.98
				c10.99,9.01,21.32,18.82,31,29.23c4.41,4.74,8.69,9.62,12.83,14.6c1.85,2.23,3.68,4.48,5.47,6.76c0.37,0.47,0.73,0.95,1.11,1.41
				c1.45,1.79-1.78-2.36-0.42-0.55c0.91,1.21,1.84,2.41,2.74,3.63c5.3,7.11,10.35,14.4,15.09,21.9c2.94,4.66,5.75,9.4,8.41,14.23
				c3.95,7.15,7.66,14.42,11.02,21.87c0.3,0.67,2.17,4.93,1.4,3.14c-0.72-1.67,0.82,2.02,1.12,2.78c1.02,2.58,2,5.19,2.91,7.81
				c1.37,3.96,2.61,7.98,3.61,12.05c0.3,1.21,0.57,2.43,0.83,3.66c0.26,1.24,0.49,2.48,0.72,3.72c0.17,0.95,0.33,1.91,0.5,2.87
				c0.1,0.63,0.2,1.26,0.3,1.89c-0.1-0.96-0.09-0.87,0.04,0.26c1.16,8.93,1.44,18,1.07,26.99c-0.16,3.79-0.44,7.58-0.85,11.35
				c-0.07,0.65-0.15,1.3-0.22,1.95c-0.46,4.13,0.45-2.34,0.02-0.09c-0.32,1.66-0.52,3.35-0.81,5.01c10.61,0,21.21,0,31.82,0
				c-1.93-4.71-3.49-9.53-4.54-14.51c-0.25-1.17-0.47-2.34-0.66-3.52c-0.46-2.9,0.15,1.99-0.1-0.93c-0.23-2.68-0.34-5.35-0.35-8.04
				c-10.8,1.46-21.61,2.92-32.41,4.39c1.23,4.07,2.47,8.15,3.7,12.22c9.19-5.35,18.39-10.7,27.58-16.05
				c0.73,0.93,1.43,3.15,0.59,0.25c0.82,2.81,0.32-2.18-0.19,0.89c1.4-8.48-2.21-18.18-11.52-20.3c-8.36-1.91-18.28,2.52-20.3,11.52
				c-2.03,9.09-3.41,18.64-2.48,27.96c0.39,3.87,0.89,7.78,1.8,11.57c0.34,1.4,0.73,2.78,1.12,4.17c1,3.5-0.09,0.41,0.1-0.03
				c1.08-2.48,1.61-5.23,3.01-6.6c-1.24,1.2,3.66-2.48,2.06-1.54c-0.61,0.36-2.06,1.02,0.41-0.05c2.92-1.28-0.8,0.02-1.6,0.21
				c-2.74,0.65-0.04-0.02,0.51-0.05c-1.08,0.06-2.16,0.17-3.24,0.22c-2.73,0.13-5.47,0.12-8.2,0.03c-2.03-0.07-4.06-0.18-6.09-0.36
				c-1.08-0.09-2.15-0.22-3.22-0.33c3.11,0.31,0.72,0.11,0.06-0.03c-2.18-0.45-4.26-0.97-6.38-1.6c-0.35-0.1-0.68-0.28-1.03-0.39
				c-2.01-0.62,2.34,1.02,2.29,0.98c-0.53-0.49-1.72-0.78-2.39-1.1c-1.83-0.88-3.63-1.84-5.41-2.83c-4.35-2.42-8.58-5.07-12.73-7.82
				c-5.42-3.57-10.72-7.32-15.95-11.16c-2.8-2.06-5.58-4.16-8.35-6.27c2.64,2.02-1.96-1.53-2.51-1.96
				c-1.62-1.27-3.23-2.55-4.83-3.84c-16.75-13.43-32.88-27.62-48.59-42.25c-6.32-5.88-17.16-6.73-23.33,0
				c-6.38,6.95-6.08,16.38,0,23.33c14.73,16.84,29.46,33.69,44.19,50.53c6.67-8.64,13.33-17.28,20-25.91
				c-10.51-7.87-21.53-16.78-32.45-26.26c-11.09-9.63-21.84-19.65-32.22-30.04c-9.91-9.92-19.66-20.07-28.45-31.01
				c-1.99-2.47,0.46,0.77-1.54-2.03c-0.98-1.37-1.98-2.73-2.93-4.12c-1.74-2.54-3.39-5.13-4.94-7.79c-1.68-2.88-3.22-5.84-4.64-8.86
				c-0.47-1.05-0.47-1.01,0,0.13c-0.32-0.77-0.62-1.54-0.91-2.33c-0.69-1.82-1.3-3.67-1.88-5.53c-9.19,5.35-18.39,10.7-27.58,16.05
				c48.18,53.15,103.7,99.55,164.17,138.12c15.3,9.76,30.94,19,46.83,27.76c2.78-10.25,5.55-20.5,8.33-30.75
				c-5.71-0.22-11.41-0.59-17.1-1.14c-1.69-0.17-3.39-0.35-5.08-0.55c-0.68-0.08-5.94-0.79-2.41-0.29
				c-3.18-0.46-6.35-0.96-9.51-1.51c-15.49-2.74-30.75-6.8-45.54-12.13c-8.06-2.91-11.56-4.33-18.64-7.61
				c-6.19-2.87-12.27-5.96-18.23-9.27c-9.83-5.47-19.31-11.54-28.42-18.14c-4.24,10.05-8.48,20.11-12.71,30.16
				c5.49,1.16,10.98,2.32,16.47,3.47c8.42,1.78,18.24-2.47,20.3-11.52c2.12-9.3-2.82-17.14-11.52-20.3
				c-6.14-2.23-12.28-4.45-18.42-6.68c-8.13-2.95-18.43,3.31-20.3,11.52c-2.12,9.3,2.82,17.14,11.52,20.3
				c1.86,0.67,2.05,0.74,0.58,0.22c0.73,0.36,1.45,0.75,2.14,1.18c0.71,0.4,1.39,0.84,2.06,1.3c-1.17-0.97-1.01-0.82,0.46,0.45
				c5.35-9.19,10.7-18.39,16.05-27.58c-0.61-0.16-1.24-0.3-1.82-0.52c-2.18-0.81-0.76-0.39,0.45,0.29
				c-0.98-0.55-1.97-1.05-2.94-1.61c-1.97-1.15,2.33,2.53-0.99-0.74c-0.81-0.8-1.66-1.6-2.36-2.5c1.56,2.03-0.19-0.65-0.43-1.09
				c-1.06-1.94-0.76-2.1-0.13,0c-0.25-0.86-0.56-1.69-0.8-2.56c-2.29-8.32-11.81-14.27-20.3-11.52c-8.75,2.83-13.68,11.3-11.52,20.3
				c0.93,3.91,1.87,7.82,2.8,11.73c9.19-5.35,18.39-10.7,27.58-16.05c-4.09-3.58-8.19-7.16-12.28-10.74
				c-6.67,8.64-13.33,17.28-20,25.91c5.26,3.81,10.77,7.12,16.6,9.98c7.46,3.65,16.03,2.55,21.29-4.25
				c4.56-5.9,5.14-16.53-1.29-21.66c-5.73-4.58-11.47-9.16-17.2-13.74c-6.73-5.38-16.85-7.07-23.33,0c-5.79,6.31-6.85,17.16,0,23.33
				c7.5,6.76,15.92,11.61,25.69,14.29c7.96,2.18,16.31-2.07,19.47-9.55c3.34-7.92,0.09-15.86-6.75-20.6
				c-9.93-6.89-19.86-13.79-29.78-20.68c1.97,1.97,3.95,3.95,5.92,5.92c-0.02,3.98-0.04,7.96-0.06,11.93
				c-0.45,0.56-0.89,1.12-1.34,1.68c-0.55,0.43-1.11,0.87-1.66,1.3c-5.04,2.98-8.85,1.44-11.43-4.62c-5.44-1.94-7.19-4.85-5.27-8.72
				c-0.01-1.43,0.47-2.59,1.44-3.5c2.53-3.13,7.26-4.45,11.23-3.45c-8.37-2.12-18.25,2.68-20.3,11.52
				c-0.04,0.17-0.08,0.35-0.12,0.52c-1.26,5.45-0.26,12.19,4.24,16.05c6.24,5.36,14.27,7.31,21.73,2.75
				c9.04-5.53,10.11-16.68,5.22-25.29c-4.27-7.51-15.15-10.71-22.58-5.92c-7.87,5.07-10.12,14.33-5.92,22.58
				c3.6,7.07,8.75,13.52,14.95,18.47c6.73,5.37,16.85,7.07,23.33,0c6.19-6.74,6.34-16.62,0-23.33
				c-14.62-15.48-25.48-30.21-36.27-49.34c-8.64,6.67-17.28,13.33-25.91,20c0.64,0.75,1.35,1.85,0.39,0.43
				c0.75,1.1,1.38,2.27,2.06,3.42c1.32,2.23-0.63-2,0.29,0.41c0.47,1.24,0.83,2.51,1.17,3.79c10.05-4.24,20.11-8.48,30.16-12.71
				c-1.8-3.59-3.6-7.18-5.39-10.78c-8.64,6.67-17.28,13.33-25.91,20c2.15,2.73,4.31,5.47,6.46,8.2c5.07,6.43,15.82,5.8,21.66,1.29
				c5.98-4.62,9.08-14.59,4.25-21.29c-0.24-0.33-2.3-3.68-1.4-1.87c0.92,1.84-0.6-3.45-0.09,0.67c-10.8,1.46-21.61,2.92-32.41,4.39
				c2.75,7.8,6.21,15.24,10.92,22.04c4.91,7.08,14.69,11.01,22.58,5.92c7.42-4.78,10.7-14.67,5.92-22.58
				c-7.93-13.1-15.86-26.21-23.78-39.31c-4.27-7.06-13.03-9.95-20.6-6.75c-7.29,3.08-12.02,11.56-9.55,19.47
				c0.76,2.42,1.51,4.85,2.27,7.27c10.61-2.92,21.21-5.85,31.82-8.77c-2.01-6.28-4.02-12.56-6.04-18.85c0,2.92,0,5.85,0,8.77
				c0.05-0.24,0.09-0.47,0.14-0.71c-2.53,3.29-5.06,6.57-7.58,9.86c-0.97,0.37-1.95,0.74-2.92,1.11
				c-5.35-9.19-10.7-18.39-16.05-27.58c-0.07,0.09-0.15,0.18-0.22,0.27c9.19,2.43,18.39,4.85,27.58,7.28
				c-1.38-3.5-2.48-7.05-3.16-10.76c-0.2-1.17-0.21-1.13-0.02,0.11c-0.09-0.86-0.16-1.72-0.19-2.58c-0.11-2.02-0.07-4.02,0.02-6.04
				c-10.25,2.78-20.5,5.55-30.75,8.33c-1.24-2.37-0.89-5.14,0.9-7.11c9.19,2.43,18.39,4.85,27.58,7.28
				c0.02,0.08-0.93-5.15-0.63-2.79c-0.23-1.79-0.31-3.64-0.34-5.45c-0.03-1.82,0.07-3.64,0.16-5.46c0.14-3.13-0.22,0.51,0.39-2.83
				c-10.05,1.31-20.11,2.63-30.16,3.94c2.18,3.78-0.15-1.91,1.06,2.28c0.91,3.16,0.19-1.22,0.21,2.33
				c10.8-1.46,21.61-2.92,32.41-4.39c-0.56-1.72-1-3.44-1.46-5.18c-0.36-2.04-0.44-2.35-0.25-0.92c-0.09-0.89-0.15-1.79-0.18-2.68
				c-0.07-1.79-0.05-3.58,0.1-5.37c0.1-1.17,0.09-1.19-0.03-0.06c0.21-1.18,0.47-2.35,0.77-3.5c-10.8-1.46-21.61-2.92-32.41-4.39
				c-0.02,4.48-0.05,8.95-0.07,13.43c11,0,22,0,33,0c-0.02-6.93-0.05-13.86-0.07-20.78c-10.8,1.46-21.61,2.92-32.41,4.39
				c1.68,8.39,2.37,16.29,2.26,26.07c10.8-1.46,21.61-2.92,32.41-4.39c-0.59-3.23-0.19,0.04-0.48-2.98c-0.2-2.16-0.33-4.33-0.36-6.5
				c-0.06-4.05,0.23-8.05,0.73-12.07c-11,0-22,0-33,0c0.68,10.12,0.42,20.2-0.79,30.28c11,0,22,0,33,0
				c0.45-14.68,0.9-29.36,1.35-44.03c-10.8,1.46-21.61,2.92-32.41,4.39c0.99,2.8,1.86,5.65,2.34,8.59
				c-0.29-1.77,0.01,0.25,0.04,0.92c0.08,1.79,0.09,3.55,0.04,5.34c10.8-1.46,21.61-2.92,32.41-4.39c-0.04-0.15-0.8-5.15-0.56-2.4
				c-0.13-1.43-0.15-2.87-0.11-4.3c0.01-0.48,0.38-4.12,0-1.61c0.26-1.7,0.74-3.37,1.22-5.02c-10.05,1.31-20.11,2.63-30.16,3.94
				c0.94,1.28,1.73,2.6,2.57,3.94c0.86,1.75,0.94,1.86,0.25,0.34c0.27,0.73,0.5,1.48,0.69,2.24c0.22,0.75,0.39,1.51,0.53,2.28
				c-0.17-1.56-0.22-1.73-0.13-0.52c-0.05,0.71-0.42,6,0.14,2.59c10.8,1.46,21.61,2.92,32.41,4.39c-0.02-5.4-0.03-10.81-0.05-16.21
				c-10.8,1.46-21.61,2.92-32.41,4.39c1.4,6.04,2.8,12.07,4.2,18.11c1.86,8,10.34,12.86,18.1,11.82
				c8.48-1.14,13.67-7.91,14.31-16.21c0.57-7.45-0.57-15.22-3.47-22.11c-10.05,4.24-20.11,8.48-30.16,12.71
				c4.38,7.35,8.76,14.7,13.14,22.05c9.5-5.55,19-11.1,28.49-16.66c-2.77-4.34-4.14-7.06-5.39-10.75
				c-10.05,4.24-20.11,8.48-30.16,12.71c17.97,29.89,37.88,58.46,59.31,85.96c5.03,6.46,15.85,5.78,21.66,1.29
				c6.04-4.66,9-14.53,4.25-21.29c-14.76-21-29.52-42.01-44.29-63.01c-8.64,6.67-17.28,13.33-25.91,20
				c22.46,22.97,44.18,46.66,65.11,71.03c5.35,6.23,15.61,5.97,21.66,1.29c6.07-4.69,8.95-14.49,4.25-21.29
				c-15.99-23.13-31.57-46.55-46.73-70.24c-8.64,6.67-17.28,13.33-25.91,20c25.54,28.04,50.09,56.95,73.61,86.7
				c5.08,6.43,15.81,5.81,21.66,1.29c5.98-4.62,9.09-14.6,4.25-21.29c-23.85-32.98-45.87-67.23-65.97-102.62
				c-8.64,6.67-17.28,13.33-25.91,20c32.18,33.26,59.41,67.01,84.68,105.08c8.64-6.67,17.28-13.33,25.91-20
				c-13.71-16.02-24.56-30.17-36.53-47.88c-11.67-17.26-22.34-35.18-32.03-53.63c-8.64,6.67-17.28,13.33-25.91,20
				c35.03,32.87,61.65,69.32,89.45,107.52c5.06,6.96,14.57,11.08,22.58,5.92c7.32-4.72,10.83-14.75,5.92-22.58
				c-11.81-18.83-23.63-37.67-34.41-57.12c-5.3-9.55-10.34-19.24-14.99-29.12c-1.16-2.46-2.3-4.94-3.41-7.43
				c-0.49-1.11-0.98-2.21-1.46-3.32c-2.35-5.39,0.47,1.2-0.81-1.91c-2.2-5.31-4.24-10.69-6.16-16.11
				c-9.19,5.35-18.39,10.7-27.58,16.05c33.7,33.34,60.47,67.79,84.29,108.67c4.35,7.46,15.09,10.74,22.58,5.92
				c7.63-4.92,10.43-14.51,5.92-22.58c-25.51-45.59-51.02-91.18-76.53-136.77c-9.5,5.55-19,11.1-28.49,16.66
				c25.87,39.44,51.74,78.89,77.61,118.33c9.5-5.55,19-11.1,28.49-16.66c-23.04-34-45.09-68.65-66.12-103.92
				c-4.42-7.41-15.04-10.78-22.58-5.92C320.01,227.62,316.82,237.46,321.55,245.39L321.55,245.39z"/>
		</g>
	</g>
	<g>
		<g>
			<linearGradient id="SVGID_2_" gradientUnits="userSpaceOnUse" x1="226.3275" y1="292.4971" x2="231.5389" y2="292.4971">
				<stop  offset="0" style="stop-color:#FCEE21"/>
				<stop  offset="1" style="stop-color:#FBB03B"/>
			</linearGradient>
			<path class="st1" d="M222.52,290.08c0.42,2.68,0.84,5.35,1.26,8.03c0.49,3.11,4.54,5.11,7.38,4.19c3.38-1.09,4.71-4.05,4.19-7.38
				c-0.42-2.68-0.84-5.35-1.26-8.03c-0.49-3.11-4.54-5.11-7.38-4.19C223.33,283.79,221.99,286.74,222.52,290.08L222.52,290.08z"/>
		</g>
	</g>
	<g>
		<g>
			<linearGradient id="SVGID_3_" gradientUnits="userSpaceOnUse" x1="248.163" y1="349.5426" x2="256.2072" y2="349.5426">
				<stop  offset="0" style="stop-color:#FCEE21"/>
				<stop  offset="1" style="stop-color:#FBB03B"/>
			</linearGradient>
			<path class="st2" d="M244.62,349.19c1.59,2.26,3.18,4.51,4.78,6.77c1.8,2.56,5.33,4.01,8.21,2.15c2.54-1.64,4.09-5.47,2.15-8.21
				c-1.59-2.26-3.18-4.51-4.78-6.77c-1.8-2.56-5.33-4.01-8.21-2.15C244.23,342.61,242.68,346.44,244.62,349.19L244.62,349.19z"/>
		</g>
	</g>
	<g>
		<g>
			<linearGradient id="SVGID_4_" gradientUnits="userSpaceOnUse" x1="278.313" y1="390.8066" x2="288.0873" y2="390.8066">
				<stop  offset="0" style="stop-color:#FCEE21"/>
				<stop  offset="1" style="stop-color:#FBB03B"/>
			</linearGradient>
			<path class="st3" d="M274.94,391.44c2.44,4.81,7.72,7.81,13.06,7.75c3.14-0.03,6.15-2.73,6-6c-0.14-3.22-2.64-6.04-6-6
				c-0.07,0-0.93,0.01-0.93-0.02c0-0.08,1.23,0.31,0.23-0.01c-0.29-0.1-0.59-0.18-0.88-0.28c0.74,0.25,0.57,0.25-0.03-0.11
				c-0.17-0.1-0.85-0.71-0.34-0.2c0.55,0.53-0.13-0.22-0.25-0.31c-0.56-0.42,0.4,0.75,0.07,0.13c-0.18-0.34-0.4-0.66-0.57-1.01
				c-1.42-2.8-5.6-3.84-8.21-2.15C274.23,385.08,273.42,388.44,274.94,391.44L274.94,391.44z"/>
		</g>
	</g>
	<g>
		<g>
			<linearGradient id="SVGID_5_" gradientUnits="userSpaceOnUse" x1="327.2269" y1="422.883" x2="334.0597" y2="422.883">
				<stop  offset="0" style="stop-color:#FCEE21"/>
				<stop  offset="1" style="stop-color:#FBB03B"/>
			</linearGradient>
			<path class="st4" d="M323.42,422.29c0.34,2.1,1.66,4.36,3.27,5.75c2.14,1.86,4.46,2.82,7.29,3.01c3.14,0.21,6.14-2.91,6-6
				c-0.15-3.43-2.64-5.77-6-6c-0.18-0.01-0.36-0.02-0.54-0.05c0.53,0.07,1.06,0.14,1.6,0.21c-0.36-0.07-0.69-0.16-1.03-0.29
				c0.48,0.2,0.96,0.4,1.43,0.6c-0.42-0.18-0.8-0.4-1.17-0.66c0.4,0.31,0.81,0.63,1.21,0.94c-0.36-0.28-0.67-0.58-0.97-0.93
				c0.31,0.4,0.63,0.81,0.94,1.21c-0.28-0.36-0.51-0.73-0.7-1.14c0.2,0.48,0.4,0.96,0.6,1.43c-0.17-0.42-0.29-0.84-0.36-1.29
				c-0.22-1.39-1.59-2.91-2.76-3.59c-1.29-0.75-3.18-1.07-4.62-0.6c-1.45,0.47-2.85,1.37-3.59,2.76
				C323.23,419.19,323.16,420.61,323.42,422.29L323.42,422.29z"/>
		</g>
	</g>
	<g>
		<g>
			<linearGradient id="SVGID_6_" gradientUnits="userSpaceOnUse" x1="399.4943" y1="451.7126" x2="406.3908" y2="451.7126">
				<stop  offset="0" style="stop-color:#FCEE21"/>
				<stop  offset="1" style="stop-color:#FBB03B"/>
			</linearGradient>
			<path class="st5" d="M399.49,457.71c2.3,0,4.6,0,6.9,0c3.14,0,6.15-2.76,6-6c-0.15-3.25-2.64-6-6-6c-2.3,0-4.6,0-6.9,0
				c-3.14,0-6.15,2.76-6,6C393.64,454.96,396.13,457.71,399.49,457.71L399.49,457.71z"/>
		</g>
	</g>
	<g>
		<g>
			<linearGradient id="SVGID_7_" gradientUnits="userSpaceOnUse" x1="427.0805" y1="422.977" x2="429.3793" y2="422.977">
				<stop  offset="0" style="stop-color:#FCEE21"/>
				<stop  offset="1" style="stop-color:#FBB03B"/>
			</linearGradient>
			<path class="st6" d="M427.08,428.98c0.77,0,1.53,0,2.3,0c1.54,0,3.15-0.67,4.24-1.76c1.04-1.04,1.82-2.75,1.76-4.24
				c-0.07-1.55-0.58-3.16-1.76-4.24c-1.17-1.08-2.62-1.76-4.24-1.76c-0.77,0-1.53,0-2.3,0c-1.54,0-3.15,0.67-4.24,1.76
				c-1.04,1.04-1.82,2.75-1.76,4.24c0.07,1.55,0.58,3.16,1.76,4.24C424.01,428.3,425.45,428.98,427.08,428.98L427.08,428.98z"/>
		</g>
	</g>
	<g>
		<g>
			<linearGradient id="SVGID_8_" gradientUnits="userSpaceOnUse" x1="366.8668" y1="379.7092" x2="378.2692" y2="379.7092">
				<stop  offset="0" style="stop-color:#FCEE21"/>
				<stop  offset="1" style="stop-color:#FBB03B"/>
			</linearGradient>
			<path class="st7" d="M364.76,382.41c3.19,1.65,6.37,3.31,9.56,4.96c2.78,1.44,6.64,0.81,8.21-2.15c1.46-2.76,0.82-6.67-2.15-8.21
				c-3.19-1.65-6.37-3.31-9.56-4.96c-2.78-1.44-6.64-0.81-8.21,2.15C361.15,376.96,361.79,380.87,364.76,382.41L364.76,382.41z"/>
		</g>
	</g>
	<g>
		<g>
			<linearGradient id="SVGID_9_" gradientUnits="userSpaceOnUse" x1="331.2372" y1="339.6052" x2="338.5598" y2="339.6052">
				<stop  offset="0" style="stop-color:#FCEE21"/>
				<stop  offset="1" style="stop-color:#FBB03B"/>
			</linearGradient>
			<path class="st8" d="M333.29,344.93c1.21-0.25-1.25-0.07-0.11,0.03c0.25,0,0.5,0,0.75,0.02c-0.91-0.14-1.13-0.17-0.67-0.08
				c0.18,0.04,0.37,0.08,0.55,0.13c0.48,0.17,0.48,0.15-0.01-0.05c-0.48-0.22-0.49-0.22-0.03,0.01c0.22,0.12,0.44,0.25,0.64,0.39
				c2.65,1.69,6.74,0.63,8.21-2.15c1.57-2.97,0.67-6.4-2.15-8.21c-3.12-1.99-6.8-2.4-10.36-1.67c-3.08,0.64-5.14,4.44-4.19,7.38
				C326.96,343.99,329.99,345.61,333.29,344.93L333.29,344.93z"/>
		</g>
	</g>
	<g>
		<g>
			<linearGradient id="SVGID_10_" gradientUnits="userSpaceOnUse" x1="277.1056" y1="274.7196" x2="283.6278" y2="274.7196">
				<stop  offset="0" style="stop-color:#FCEE21"/>
				<stop  offset="1" style="stop-color:#FBB03B"/>
			</linearGradient>
			<path class="st9" d="M273.68,276.55c1.93,3.32,5.82,5.66,9.72,5.35c1.61-0.13,3.07-0.58,4.24-1.76c1.04-1.04,1.82-2.75,1.76-4.24
				c-0.14-3.04-2.65-6.27-6-6c-0.35,0.03-0.68,0.02-1.03-0.01c0.53,0.07,1.06,0.14,1.6,0.21c-0.43-0.07-0.84-0.18-1.24-0.34
				c0.48,0.2,0.96,0.4,1.43,0.6c-0.4-0.18-0.76-0.4-1.11-0.66c0.4,0.31,0.81,0.63,1.21,0.94c-0.27-0.22-0.51-0.46-0.73-0.73
				c0.31,0.4,0.63,0.81,0.94,1.21c-0.16-0.21-0.3-0.42-0.43-0.64c-1.58-2.71-5.49-3.91-8.21-2.15
				C273.1,270.1,272,273.64,273.68,276.55L273.68,276.55z"/>
		</g>
	</g>
	<g>
		<g>
			<linearGradient id="SVGID_11_" gradientUnits="userSpaceOnUse" x1="297.4203" y1="214.5098" x2="303.4269" y2="214.5098">
				<stop  offset="0" style="stop-color:#FCEE21"/>
				<stop  offset="1" style="stop-color:#FBB03B"/>
			</linearGradient>
			<path class="st10" d="M306.1,211.79c-0.8-1.01-1.6-2.03-2.39-3.04c-0.75-0.74-1.63-1.26-2.65-1.54c-1.06-0.29-2.13-0.29-3.19,0
				c-1.9,0.52-3.8,2.18-4.19,4.19c-0.28,1.41-0.37,2.66,0.07,4.06c0.4,1.28,1.1,2.44,2.08,3.36c0.97,0.91,2.15,1.6,3.45,1.93
				c1.23,0.31,2.86,0.39,4.05-0.1c0.78-0.19,1.46-0.54,2.04-1.07c0.65-0.42,1.17-0.98,1.55-1.68c0.75-1.29,1.07-3.18,0.6-4.62
				c-0.47-1.45-1.37-2.85-2.76-3.59c-1.33-0.7-3.17-1.21-4.62-0.6c-0.15,0.06-0.27,0.1-0.43,0.12c0.53-0.07,1.06-0.14,1.6-0.21
				c-0.1,0.01-0.19,0.01-0.29,0c0.53,0.07,1.06,0.14,1.6,0.21c-0.15-0.02-0.28-0.05-0.43-0.1c0.48,0.2,0.96,0.4,1.43,0.6
				c-0.19-0.08-0.35-0.18-0.52-0.3c0.4,0.31,0.81,0.63,1.21,0.94c-0.12-0.1-0.21-0.2-0.31-0.32c0.31,0.4,0.63,0.81,0.94,1.21
				c-0.09-0.13-0.16-0.24-0.22-0.38c0.2,0.48,0.4,0.96,0.6,1.43c-0.05-0.14-0.08-0.27-0.11-0.42c0.07,0.53,0.14,1.06,0.21,1.6
				c-0.01-0.1-0.01-0.2,0.01-0.29c-0.07,0.53-0.14,1.06-0.21,1.6c0.01-0.05,0.02-0.1,0.03-0.15c-3.34,0.88-6.69,1.77-10.03,2.65
				c0.8,1.01,1.6,2.03,2.39,3.04c0.88,1.12,2.89,1.76,4.24,1.76c1.47,0,3.23-0.65,4.24-1.76c1.05-1.14,1.83-2.64,1.76-4.24
				c-0.07-0.53-0.14-1.06-0.21-1.6C307.36,213.42,306.84,212.54,306.1,211.79L306.1,211.79z"/>
		</g>
	</g>
	<g>
		<g>
			<linearGradient id="SVGID_12_" gradientUnits="userSpaceOnUse" x1="348.6749" y1="263.0546" x2="355.3191" y2="263.0546">
				<stop  offset="0" style="stop-color:#FCEE21"/>
				<stop  offset="1" style="stop-color:#FBB03B"/>
			</linearGradient>
			<path class="st11" d="M345.1,263.78c1.15,1.53,2.29,3.07,3.44,4.6c0.97,1.3,1.96,2.31,3.59,2.76c1.44,0.4,3.35,0.22,4.62-0.6
				c1.28-0.83,2.41-2.06,2.76-3.59c0.34-1.47,0.34-3.36-0.6-4.62c-1.15-1.53-2.29-3.07-3.44-4.6c-0.97-1.3-1.96-2.31-3.59-2.76
				c-1.44-0.4-3.35-0.22-4.62,0.6c-1.28,0.83-2.41,2.06-2.76,3.59C344.16,260.63,344.15,262.52,345.1,263.78L345.1,263.78z"/>
		</g>
	</g>
	<g>
		<g>
			<linearGradient id="SVGID_13_" gradientUnits="userSpaceOnUse" x1="384.9043" y1="290.2411" x2="389.9755" y2="290.2411">
				<stop  offset="0" style="stop-color:#FCEE21"/>
				<stop  offset="1" style="stop-color:#FBB03B"/>
			</linearGradient>
			<path class="st12" d="M381.06,291.24c0.58,1.94,1.87,3.72,3.71,4.64c1.19,0.6,2.28,0.95,3.62,0.96c1.55,0.01,2.36-0.37,3.74-0.96
				c0.7-0.38,1.26-0.89,1.68-1.55c0.53-0.58,0.89-1.26,1.07-2.04c0.4-1.44,0.22-3.35-0.6-4.62c-0.83-1.28-2.06-2.41-3.59-2.76
				c-0.53-0.07-1.06-0.14-1.6-0.21c-1.08,0-2.09,0.28-3.03,0.82c-0.04,0.02-0.08,0.03-0.11,0.05c0.48-0.2,0.96-0.4,1.43-0.6
				c-0.12,0.04-0.23,0.06-0.36,0.08c0.53-0.07,1.06-0.14,1.6-0.21c-0.13,0.01-0.24,0.01-0.37,0c0.53,0.07,1.06,0.14,1.6,0.21
				c-0.17-0.03-0.32-0.07-0.47-0.13c0.48,0.2,0.96,0.4,1.43,0.6c-0.15-0.07-0.29-0.15-0.42-0.25c0.4,0.31,0.81,0.63,1.21,0.94
				c-0.1-0.08-0.18-0.16-0.26-0.26c0.31,0.4,0.63,0.81,0.94,1.21c-0.07-0.1-0.13-0.2-0.19-0.31c0.2,0.48,0.4,0.96,0.6,1.43
				c-0.03-0.07-0.06-0.15-0.08-0.23c-0.44-1.47-1.42-2.81-2.76-3.59c-1.29-0.75-3.18-1.07-4.62-0.6c-1.45,0.47-2.85,1.37-3.59,2.76
				C380.92,288.03,380.59,289.67,381.06,291.24L381.06,291.24z"/>
		</g>
	</g>
	<g>
		<g>
			<linearGradient id="SVGID_14_" gradientUnits="userSpaceOnUse" x1="414.4049" y1="333.4265" x2="423.5259" y2="333.4265">
				<stop  offset="0" style="stop-color:#FCEE21"/>
				<stop  offset="1" style="stop-color:#FBB03B"/>
			</linearGradient>
			<path class="st13" d="M412.48,336.32c2.31,1.52,4.61,3.04,6.92,4.57c2.63,1.73,6.75,0.61,8.21-2.15
				c1.59-3.01,0.65-6.36-2.15-8.21c-2.31-1.52-4.61-3.04-6.92-4.57c-2.63-1.73-6.75-0.61-8.21,2.15
				C408.74,331.12,409.68,334.47,412.48,336.32L412.48,336.32z"/>
		</g>
	</g>
	<g>
		<g>
			<linearGradient id="SVGID_15_" gradientUnits="userSpaceOnUse" x1="446.6922" y1="380.0772" x2="456.7866" y2="380.0772">
				<stop  offset="0" style="stop-color:#FCEE21"/>
				<stop  offset="1" style="stop-color:#FBB03B"/>
			</linearGradient>
			<path class="st14" d="M442.69,378.16c0.34,3.65,2.14,6.95,5.54,8.61c3.18,1.55,7.33,1.86,10.33-0.34
				c2.53-1.85,4.03-5.29,2.15-8.21c-1.61-2.5-5.5-4.13-8.21-2.15c-0.54,0.4-1.02,0.38,0.35-0.02c-0.81,0.23,0.57-0.09,0.7-0.04
				c-0.15,0.01-0.31,0.02-0.46,0.01c-0.48-0.02-0.21,0.02,0.82,0.12c-0.16-0.1-1.2-0.44-0.18,0.02c1.17,0.52-0.12-0.13-0.12-0.13
				c0.28-0.01,1.1,1.04,0.38,0.24c-0.47-0.52,0.77,1.21,0.31,0.35c0.12,0.29,0.24,0.58,0.36,0.87c-0.16-0.61-0.14-0.39,0.04,0.68
				c-0.29-3.12-2.55-6.15-6-6C445.69,372.29,442.38,374.81,442.69,378.16L442.69,378.16z"/>
		</g>
	</g>
	<g>
		<g>
			<linearGradient id="SVGID_16_" gradientUnits="userSpaceOnUse" x1="172.8588" y1="230.5414" x2="199.1993" y2="230.5414">
				<stop  offset="0" style="stop-color:#006837"/>
				<stop  offset="1" style="stop-color:#009245"/>
			</linearGradient>
			<path class="st15" d="M200,213.83c-6.39-1.61-10.94,2.07-15,6.61c-4.99,5.57-9.93,11.19-14.89,16.79
				c-5.11,5.76,3.35,14.28,8.49,8.49c3.31-3.73,6.62-7.46,9.93-11.19c0.94-1.06,7.09-9.42,8.29-9.12
				C204.3,227.28,207.5,215.71,200,213.83L200,213.83z"/>
		</g>
	</g>
	<g>
		<g>
			<linearGradient id="SVGID_17_" gradientUnits="userSpaceOnUse" x1="166.4856" y1="230.2598" x2="203.5077" y2="230.2598">
				<stop  offset="0" style="stop-color:#006837"/>
				<stop  offset="1" style="stop-color:#009245"/>
			</linearGradient>
			<path class="st16" d="M199.46,211.3c-12.55,7.53-23.67,17.12-32.82,28.56c-2.89,3.61-1.49,10.71,4.24,10.24
				c0.73-0.06,1.46-0.12,2.18-0.18c7.64-0.62,7.71-12.62,0-12c-0.73,0.06-1.46,0.12-2.18,0.18c1.41,3.41,2.83,6.83,4.24,10.24
				c8.54-10.68,18.66-19.65,30.39-26.68C212.14,217.69,206.11,207.31,199.46,211.3L199.46,211.3z"/>
		</g>
	</g>
	<g>
		<g>
			<linearGradient id="SVGID_18_" gradientUnits="userSpaceOnUse" x1="107.909" y1="249.3363" x2="213.8937" y2="249.3363">
				<stop  offset="0" style="stop-color:#006837"/>
				<stop  offset="1" style="stop-color:#39B54A"/>
			</linearGradient>
			<path class="st17" d="M207.73,214.45c-4.19-4.45-10.47-5.65-16.26-3.98c-5.64,1.62-9.73,5.94-14.2,9.45
				c-1.43,1.13,0.87-0.59-0.38,0.28c-0.32,0.22-0.63,0.46-0.96,0.67c-0.58,0.36-1.17,0.71-1.75,1.07c-1.42,0.89-2.75,1.81-4.05,2.89
				c-6.91,5.73-12.77,13-18.73,19.67c-9.5,10.62-18.52,21.64-27.21,32.92c3.45,2.02,6.91,4.04,10.36,6.06
				c12.84-25.51,33.15-45.98,58.49-59.11c-2.02-3.45-4.04-6.91-6.06-10.36c-21.4,15.12-40.68,32.9-57.27,53.19
				c-2.52,3.08-2.27,9.24,2.65,10.03c-2.36-2.33-3.06-4.59-2.12-6.78c0.16-0.34-0.03-0.18-0.56,0.5c-0.68,0.43-1.26,1.12-1.89,1.63
				c-2.27,1.82-4.77,3.4-7.2,5c-5.37,3.53-2.1,13.42,4.62,10.97c9.33-3.4,18.57-7.05,27.72-10.91c8.47-3.58,17.32-6.89,25.09-11.88
				c8.66-5.56,17.3-11.62,23.52-19.96c2.96-3.97,4.92-8.33,6.51-13c1-2.94,1.97-8.68,5.32-9.92c-2.53-1.93-5.06-3.86-7.6-5.79
				c1.69,27.56-37,35.14-54.09,48c-5,3.76-2.41,13.24,4.62,10.97c18.84-6.08,42.74-15.94,49.72-36.49
				c1.66-4.88,0.91-10.55-4.01-13.18c-5.81-3.1-11.16,1.01-15.55,4.58c-10.63,8.63-20.6,18.03-29.94,28.06
				c-5.25,5.64,3.11,14.07,8.49,8.49c10-10.4,20-20.79,29.99-31.19c4.8-4.99-1.25-12.57-7.27-9.42
				c-12.28,6.41-23.52,14.56-33.51,24.16c-5.09,4.89,1.36,12.4,7.27,9.42c11.6-5.85,21.77-14.01,30.72-23.38
				c4.63-4.84-1.3-13.01-7.27-9.42c-13.98,8.4-26.63,18.78-37.52,30.93c-4.38,4.89,1.22,13.16,7.27,9.42
				c2.91-1.79,5.81-3.59,8.72-5.38c6.56-4.05,0.54-14.43-6.06-10.36c-2.91,1.79-5.81,3.59-8.72,5.38c2.42,3.14,4.85,6.28,7.27,9.42
				c10.24-11.43,21.94-21.15,35.09-29.05c-2.42-3.14-4.85-6.28-7.27-9.42c-8.3,8.7-17.53,16.08-28.29,21.51
				c2.42,3.14,4.85,6.28,7.27,9.42c9.29-8.93,19.66-16.32,31.08-22.28c-2.42-3.14-4.85-6.28-7.27-9.42
				c-10,10.4-20,20.79-29.99,31.19c2.83,2.83,5.66,5.66,8.49,8.49c6.64-7.13,13.58-13.95,20.89-20.39c1.82-1.61,3.67-3.2,5.53-4.76
				c0.83-0.69,5.6-3.7,5.71-4.6c-1.34-3.29-2.16-3.94-2.46-1.96c-0.32,0.78-0.69,1.54-1.1,2.27c-0.76,1.43-1.63,2.82-2.59,4.13
				c-8.79,12.08-24.2,17.87-37.88,22.29c1.54,3.66,3.08,7.31,4.62,10.97c12.68-9.54,28.35-13.9,40.99-23.45
				c10.99-8.31,19.92-20.55,19.04-34.91c-0.22-3.56-3.71-7.23-7.6-5.79c-9.21,3.41-11.2,11.75-14.32,20.12
				c-3.72,10-12.71,16.57-21.29,22.26c-15.82,10.48-34.82,16.82-52.55,23.29c1.54,3.66,3.08,7.31,4.62,10.97
				c4.56-3,10.7-6.33,13.72-11.09c2.94-4.62,0.83-10.28-4.82-11.19c0.88,3.34,1.77,6.69,2.65,10.03
				c15.92-19.47,34.29-36.79,54.84-51.31c6.25-4.42,0.89-13.96-6.06-10.36c-27,13.99-49.12,36.23-62.8,63.42
				c-3.56,7.08,5.74,12.05,10.36,6.06c12.94-16.78,26.69-34.05,42.24-48.53c0.65-0.6,1.3-1.19,1.98-1.75
				c-1.13,0.92-0.1,0.05,0.46-0.28c0.87-0.52,1.76-1.03,2.61-1.58c4.12-2.69,12.82-13.25,17.4-8.39
				C204.56,228.57,213.03,220.07,207.73,214.45L207.73,214.45z"/>
		</g>
	</g>
	<g>
		<g>
			<linearGradient id="SVGID_19_" gradientUnits="userSpaceOnUse" x1="213.521" y1="244.5898" x2="284.3116" y2="244.5898">
				<stop  offset="0" style="stop-color:#006837"/>
				<stop  offset="1" style="stop-color:#009245"/>
			</linearGradient>
			<path class="st18" d="M232.07,219.29c-1.78-4.72-5.01-8.21-10.14-9.15c-3.3-0.61-6.31,0.88-7.38,4.19
				c-6.34,19.58,8.35,35.5,21.92,47.34c2.42-3.14,4.85-6.28,7.27-9.42c-5.31-3.62-10.14-7.81-14.46-12.57
				c-4.22-4.64-8.39-9.79-7.53-16.4c-2,2-4,4-6,6c6.84-0.64,13.32,1.01,18.58,5.57c5.78,5.01,14.2-3.19,8.49-8.49
				c-5.43-5.03-11.49-8.65-18.44-11.16c0,3.86,0,7.71,0,11.57c6.2-1.52,12.29,2.98,17.33,6.05c5.36,3.26,10.7,6.64,15.55,10.62
				c9.15,7.5,17.34,17.57,18.76,29.7c2.53-1.93,5.06-3.86,7.6-5.79c-11.17-3.81-22.4-7.48-33.52-11.43
				c-9.67-3.44-18.35-9.15-19.43-20.26c-3.01,1.73-6.02,3.45-9.03,5.18c12.51,8.9,23.96,19.11,34.37,30.39
				c2.83-2.83,5.66-5.66,8.49-8.49c-7.25-7.02-14.5-14.05-21.76-21.07c-2.42,3.14-4.85,6.28-7.27,9.42
				c7.38,3.51,14.9,6.7,22.55,9.56c5.85,2.19,9.78-6.01,5.84-10.03c-5.56-5.66-11.52-10.77-17.84-15.55
				c-5.41-4.09-12.37,4.95-7.27,9.42c7.12,6.24,14.25,12.49,21.37,18.73c4.68,4.1,11.06,0.08,10.03-5.84
				c-0.25-1.44-0.5-2.88-0.75-4.32c-3.34,1.95-6.69,3.89-10.03,5.84c1.28,1.29,2.56,2.58,3.83,3.87c2.83-2.83,5.66-5.66,8.49-8.49
				c-4.58-3.55-9.15-7.1-13.73-10.65c-6.03-4.68-14.58,3.75-8.49,8.49c4.58,3.55,9.15,7.1,13.73,10.65
				c5.92,4.59,14.09-2.83,8.49-8.49c-1.28-1.29-2.56-2.58-3.83-3.87c-4.51-4.56-11,0.24-10.03,5.84c0.25,1.44,0.5,2.88,0.75,4.32
				c3.34-1.95,6.69-3.89,10.03-5.84c-7.12-6.24-14.25-12.49-21.37-18.73c-2.42,3.14-4.85,6.28-7.27,9.42
				c5.49,4.15,10.59,8.77,15.42,13.68c1.95-3.34,3.89-6.69,5.84-10.03c-6.69-2.5-13.23-5.28-19.68-8.35
				c-5.86-2.79-12.45,4.41-7.27,9.42c7.25,7.02,14.5,14.05,21.76,21.07c5.57,5.4,13.72-2.82,8.49-8.49
				c-11.12-12.04-23.45-22.77-36.8-32.27c-3.55-2.53-9.45,0.81-9.03,5.18c1.27,13.12,8.79,23.42,20.8,28.88
				c13.08,5.94,27.38,9.76,40.96,14.38c3.39,1.16,8.04-2,7.6-5.79c-1.89-16.12-11.11-29.27-23.59-39.25
				c-6.15-4.92-12.79-9.2-19.58-13.18c-7.37-4.33-15.01-7.63-23.67-5.51c-6.13,1.51-5.25,9.68,0,11.57
				c4.94,1.78,9.3,4.51,13.15,8.07c2.83-2.83,5.66-5.66,8.49-8.49c-7.56-6.55-17.02-10.02-27.07-9.08c-3.57,0.33-5.54,2.51-6,6
				c-2.17,16.49,15.91,31.13,27.93,39.33c5.59,3.81,12.41-4.94,7.27-9.42c-10.12-8.83-23.71-20.62-18.84-35.67
				c-2.46,1.4-4.92,2.79-7.38,4.19c0.84-0.16,1.42,0.1,1.76,0.77C223.21,229.63,234.81,226.53,232.07,219.29L232.07,219.29z"/>
		</g>
	</g>
	<g>
		<g>
			<linearGradient id="SVGID_20_" gradientUnits="userSpaceOnUse" x1="215.5701" y1="177.8518" x2="327.9946" y2="177.8518">
				<stop  offset="0" style="stop-color:#006837"/>
				<stop  offset="1" style="stop-color:#009245"/>
			</linearGradient>
			<path class="st19" d="M229.53,209.61c1.01-7.4,2.76-14.85,5.85-21.67c4.58-10.09,11.68-17.27,21.05-23.02
				c17.96-11,39.48-16.12,59.63-21.57c-1.54-3.66-3.08-7.31-4.62-10.97c-17.78,11-23.77,31.2-34.03,48.19
				c-5.68,9.4-13.14,16.46-22.99,21.4c-10.3,5.18-21.75,7.82-32.91,10.46c1.95,3.34,3.89,6.69,5.84,10.03
				c24.25-20.82,47.85-42.38,70.79-64.64c-2.83-2.83-5.66-5.66-8.49-8.49c-17.88,19.25-36,38.27-54.38,57.06
				c-4.77,4.88,1.29,12.79,7.27,9.42c12.66-7.13,24.13-16.42,33.52-27.52c4.61-5.44,9.28-11.37,12.54-17.74
				c3.25-6.34,1.52-14.53-6.57-15.38c-5.95-0.63-12.46,3.43-17.42,6.27c-6.11,3.5-11.84,7.78-17.01,12.56
				c-10.1,9.34-17.69,20.76-22.98,33.41c-2.12,5.08,4.68,9.15,8.81,6.78c5.44-3.12,7.2-8.37,9.75-13.72
				c2.8-5.86,6.52-11.16,10.93-15.92c9-9.73,19.93-17.28,30.84-24.68c5.26-3.57,2.15-13.48-4.62-10.97
				c-12.21,4.53-23.37,11.08-33.06,19.81c-8.7,7.83-20.49,19.65-19.26,32.36c0.32,3.33,2.49,5.86,6,6c1.11,0.04,2.22,0.09,3.33,0.13
				c3.62,0.14,7.17-4,5.79-7.6c-1.49-3.86,9.88-3.56,12.55-4.37c4.31-1.32,8.28-3.8,11.94-6.37c16.38-11.52,30.45-26.5,44.14-40.97
				c-3.14-2.42-6.28-4.85-9.42-7.27c-12.5,19.69-25,39.38-37.51,59.07c-4.15,6.54,6.23,12.57,10.36,6.06
				c12.5-19.69,25-39.38,37.51-59.07c3.65-5.74-4.74-12.22-9.42-7.27c-13.73,14.51-28.04,30.79-45.21,41.41
				c-1,0.62-2.02,1.18-3.04,1.74c-0.44,0.24-0.9,0.46-1.36,0.67c-0.27,0.13,0.87-0.27-0.42,0.17c-0.71,0.24-1.42,0.43-2.15,0.63
				c-0.25,0.07,1.12,0.01-0.48-0.01c-9.71-0.14-23.63,6.93-19.06,18.77c1.93-2.53,3.86-5.06,5.79-7.6
				c-1.11-0.04-2.22-0.09-3.33-0.13c2,2,4,4,6,6c-0.93-9.57,10.36-19.22,16.93-24.93c7.79-6.78,16.9-12.09,26.58-15.67
				c-1.54-3.66-3.08-7.31-4.62-10.97c-10.86,7.38-21.86,14.92-31.11,24.3c-4.33,4.4-8.32,9.24-11.6,14.48
				c-1.65,2.65-3.07,5.4-4.33,8.26c-1.1,2.49-1.98,5.85-4.47,7.28c2.94,2.26,5.88,4.52,8.81,6.78
				c7.75-18.54,22.88-34.01,41.19-42.26c0.56-0.25,2.14-0.6,2.53-1.04c1.46-0.14,1.27-0.53-0.56-1.17c-1.15-1.4-1.93-1.25-2.32,0.46
				c-1.78,1.72-3,4.71-4.45,6.75c-2.99,4.2-6.32,8.14-9.88,11.86c-7.72,8.05-16.51,14.76-26.22,20.24c2.42,3.14,4.85,6.28,7.27,9.42
				c18.37-18.78,36.5-37.8,54.38-57.06c5.25-5.65-2.92-13.89-8.49-8.49c-22.94,22.26-46.54,43.81-70.79,64.64
				c-4.79,4.11,0.39,11.32,5.84,10.03c22.54-5.34,45.1-12.1,59.32-31.69c11.5-15.84,15.98-38.76,33.47-49.57
				c5.72-3.54,2.06-12.77-4.62-10.97c-22.12,5.98-45.61,11.75-65.03,24.38c-17.66,11.48-27.09,29.71-29.89,50.27
				c-0.44,3.24,0.78,6.4,4.19,7.38C224.94,214.6,229.09,212.82,229.53,209.61L229.53,209.61z"/>
		</g>
	</g>
	<g>
		<g>
			<linearGradient id="SVGID_21_" gradientUnits="userSpaceOnUse" x1="195.1777" y1="160.441" x2="225.7595" y2="160.441">
				<stop  offset="0" style="stop-color:#006837"/>
				<stop  offset="1" style="stop-color:#39B54A"/>
			</linearGradient>
			<path class="st20" d="M206.76,198.48c0.1-0.01,0.2-0.01,0.3-0.02c-1.93-1.47-3.86-2.94-5.79-4.4c0.05,0.13,0.11,0.25,0.16,0.38
				c0.2-1.54,0.4-3.08,0.6-4.62c-0.06,0.11-0.13,0.22-0.19,0.34c1.73-0.99,3.45-1.98,5.18-2.97c-0.21-0.03-0.43-0.05-0.64-0.08
				c1.41,0.59,2.83,1.17,4.24,1.76c-3.69-3.17-7.53-8.22-7.43-13.27c0.11-5.46,3.54-10.7,6.06-15.36
				c5.56-10.23,11.75-20.08,18.4-29.62c-3.66-1.54-7.31-3.08-10.97-4.62c-1.46,9.59-2.67,19.21-4.02,28.82
				c-0.74,5.29-1.46,10.59-2.22,15.87c-0.35,2.42-0.98,11.83-3.14,12.76c1.54-0.2,3.08-0.4,4.62-0.6c1.4,1.84,1.91,1.82,1.52-0.08
				c-0.05-1.22-0.07-2.43-0.07-3.65c0-2.43,0.09-4.87,0.28-7.29c0.29-3.84,0.35-9.75,1.84-13.18c-3.66-0.48-7.31-0.96-10.97-1.43
				c-1.22-5.6-0.01-1.38-0.23-1.24c0.17-0.11-0.86,2.43,0.06-0.41c-0.33,1.03-0.38,2.28-0.57,3.34c-0.96,5.15-2.16,10.25-3.38,15.34
				c-1.79,7.51,9.78,10.71,11.57,3.19c1.33-5.57,2.67-11.16,3.64-16.81c0.37-2.17,0.95-4.4,0.47-6.6c-1.03-4.73-8.89-6.2-10.97-1.43
				c-3.8,8.73-4.15,20.8-3.69,30.18c0.2,4.07,0.91,8.71,4.87,10.9c4.12,2.27,8.8,0.15,11.08-3.61c5.19-8.6,5.21-20.47,6.57-30.15
				c1.44-10.24,2.73-20.5,4.29-30.72c1.02-6.66-6.91-10.44-10.97-4.62c-8.68,12.45-17.56,25.71-23.44,39.77
				c-2.88,6.88-3.71,14.14-0.54,21.1c2.49,5.47,7.38,12.94,13.71,13.76c2,0.26,4.25-1.32,5.18-2.97c0.89-1.59,1.37-3.59,0.64-5.34
				c-0.98-2.34-2.94-4.59-5.79-4.4c-0.1,0.01-0.2,0.01-0.3,0.02C199.09,186.97,199.03,198.97,206.76,198.48L206.76,198.48z"/>
		</g>
	</g>
	<g>
		<g>
			<linearGradient id="SVGID_22_" gradientUnits="userSpaceOnUse" x1="118.4996" y1="216.1125" x2="218.3073" y2="216.1125">
				<stop  offset="0" style="stop-color:#006837"/>
				<stop  offset="1" style="stop-color:#39B54A"/>
			</linearGradient>
			<path class="st21" d="M213.25,202.39c-7.76-6.77-18.88-14.86-29.85-14.15c-8.95,0.58-18.43,6.31-25.2,11.87
				c-3.61,2.96-7.24,7.05-7.39,11.98c-0.08,2.66,0.82,5,2.44,7.05c0.83,1.05,3.04,3.75,4.39,3.86c2.17-4.39,2.31-6.3,0.4-5.73
				c-0.35,0.1-0.7,0.21-1.05,0.32c-1.08,0.1-2.49,0.66-3.53,0.93c-3.1,0.81-6.17,1.68-9.17,2.84c-6.29,2.45-11.87,5.94-17,10.3
				c3.14,2.42,6.28,4.85,9.42,7.27c8.13-14.46,18.91-30.59,33.91-38.74c12.45-6.76,32.68-9.17,39.46,6.72
				c1.73-3.01,3.45-6.02,5.18-9.03c-37.77-4.04-75.14,11.71-99.47,40.67c-4.94,5.88,3.51,14.41,8.49,8.49
				c22.52-26.81,55.98-40.9,90.99-37.16c5.07,0.54,6.74-5.37,5.18-9.03c-8.24-19.3-32.31-20.83-49.32-14.04
				c-20.22,8.07-34.47,27.73-44.77,46.06c-3.47,6.17,4.34,11.58,9.42,7.27c4.41-3.75,9.51-6.59,15-8.4
				c4.24-1.39,9.06-1.86,13.03-3.97c3.42-1.82,5.71-5.43,4.66-9.4c-0.55-2.08-2-3.59-3.6-4.89c-0.51-0.42-1.14-1.08-1.76-1.32
				c-2.02-0.79,0.08,0.03-0.28,0.43c2.56-2.89,5.13-5.06,8.49-7.08c1.44-0.87,2.9-1.69,4.39-2.47c2.1-1.1,1.72-0.94,2.85-1.34
				c4.32-1.53,6.98-1.82,11.23-0.26c5.55,2.03,10.56,5.56,14.98,9.41C210.56,215.93,219.08,207.48,213.25,202.39L213.25,202.39z"/>
		</g>
	</g>
	<g>
		<g>
			<linearGradient id="SVGID_23_" gradientUnits="userSpaceOnUse" x1="209.1522" y1="242.9612" x2="290.2986" y2="242.9612">
				<stop  offset="0" style="stop-color:#006837"/>
				<stop  offset="1" style="stop-color:#39B54A"/>
			</linearGradient>
			<path class="st22" d="M221.35,215.17c-5.41,4.78-8.19,12.1-7.56,19.29c0.75,8.46,5.68,14.69,12.91,18.85
				c17.81,10.25,37.38,18.21,56.3,26.15c4.75,1.99,9.67-4.75,6.78-8.81c-4.93-6.9-9.85-13.81-14.78-20.71
				c-4.06-5.69-7.9-11.87-12.9-16.82c-9.84-9.76-24.08-11.33-37.31-10.4c-5.86,0.41-11.89,2.51-13.02,9.06
				c-1.22,7.09,4.49,12.58,9.33,16.79c10.7,9.3,22.96,16.26,36.32,20.96c4.93,1.73,9.5-4.54,6.78-8.81
				c-8.83-13.84-21.44-23.99-36.7-29.95c-4.76-1.86-9.71,4.69-6.78,8.81c10.74,15.12,27.41,24.35,45.99,25.13
				c5.55,0.23,7.45-6.55,4.24-10.24c-9.82-11.32-22.24-19.61-36.26-24.8c-6.11-2.26-9.36,5.92-5.84,10.03
				c8.72,10.18,20.26,17.36,33.17,20.9c2.07,0.57,4.32-0.03,5.84-1.54c11.23-11.15-12.75-25.74-20.87-29.56
				c-6.27-2.95-11.66,4.08-7.27,9.42c5.76,7.01,13.2,11.91,21.72,14.95c5.27,1.87,8.98-4.51,6.78-8.81
				c-8.59-16.75-26.39-28.61-45.36-29.15c-9.6-0.28-17.53,5.48-17.69,15.55c-0.17,10.57,8.41,17.23,16.51,22.35
				c3.12,1.97,8.04,0.15,8.81-3.59c0.95-4.6,0.09-8.58-2.1-12.71c-2.19-4.13-5.7-8.03-6.18-12.87c-0.49-4.94,2.55-7.68,7.1-5.27
				c4.03,2.13,7.81,5.14,11.34,8.01c14.15,11.51,25.47,25.88,33.58,42.2c2.26-2.94,4.52-5.88,6.78-8.81
				c-20.21-4.09-43.8-8.88-54.64-28.53c-3.77-6.82-13.73-0.82-10.36,6.06c7.24,14.77,19.98,26.23,35.14,32.47
				c7.08,2.92,15.5,5.24,23.24,4.85c3.75-0.19,7.46-1.71,9.24-5.24c2.19-4.35,0.53-8.92-1.3-13.04
				c-6.9-15.51-18.55-28.83-32.72-38.13c-7.46-4.9-16.32-8.96-24.77-3.84c-6.55,3.97-12.9,12.7-12.72,20.61
				c0.24,10.4,9.66,18.12,17.42,23.67c8.41,6.01,18.19,10.09,28.28,12.19c7.54,1.57,10.76-10,3.19-11.57
				c-8.13-1.69-15.72-4.64-22.71-9.14c-5.09-3.28-16.58-10.73-13.5-17.96c1.2-2.8,3.87-6.62,6.71-7.81
				c3.72-1.57,7.67,1.47,10.74,3.39c6.55,4.11,12.38,9.27,17.44,15.11c2.36,2.73,4.5,5.63,6.44,8.68c1.11,1.74,2.15,3.51,3.12,5.33
				c0.81,1.52,1.54,4.35,2.71,5.54c0.17,0.45,0.34,0.91,0.52,1.36c2.36-0.97,2.58-1.35,0.67-1.15c-1.49-0.59-3.99-0.28-5.62-0.54
				c-3.33-0.54-6.63-1.43-9.82-2.55c-13.77-4.86-24.96-15.24-31.35-28.27c-3.45,2.02-6.91,4.04-10.36,6.06
				c12.48,22.61,38.33,29.3,61.82,34.05c5.26,1.06,9.16-4.01,6.78-8.81c-10.2-20.54-25.51-38.21-44.32-51.33
				c-4.8-3.35-10.05-6.63-16.15-5.96c-5.03,0.55-9.34,3.94-11.71,8.33c-2.76,5.12-2.74,11.14-0.92,16.57
				c0.88,2.63,2.16,5.17,3.57,7.55c1.32,2.23,4.43,5.57,3.85,8.35c2.94-1.2,5.88-2.39,8.81-3.59c-4.05-2.56-11.61-6.7-10.56-12.61
				c0.95-5.35,10.75-2.5,14.16-1.56c11.6,3.19,21.06,11.2,26.52,21.85c2.26-2.94,4.52-5.88,6.78-8.81
				c-6.62-2.36-11.99-6.46-16.42-11.86c-2.42,3.14-4.85,6.28-7.27,9.42c3.6,1.69,7.06,3.63,10.22,6.05c1.47,1.13,2.87,2.36,4.2,3.65
				c0.76,0.74,1.49,1.49,2.21,2.27c0.92,1.61,1.53,1.19,1.81-1.26c1.95-0.51,3.89-1.03,5.84-1.54
				c-11.05-3.03-20.43-9.12-27.87-17.82c-1.95,3.34-3.89,6.69-5.84,10.03c12.1,4.47,22.54,11.99,30.97,21.71
				c1.41-3.41,2.83-6.83,4.24-10.24c-14.07-0.58-27.45-7.66-35.63-19.18c-2.26,2.94-4.52,5.88-6.78,8.81
				c12.2,4.76,22.5,13.42,29.52,24.43c2.26-2.94,4.52-5.88,6.78-8.81c-9.41-3.31-18.3-8.02-26.28-14.02
				c-2.08-1.57-4.08-3.24-6.02-4.98c-1.21-1.09-3.98-2.95-4.38-4.63c0.13,0.54-0.53,0.53,0.85,0.39c1.32-0.13,2.69-0.11,4.01-0.14
				c2.42-0.05,4.85-0.05,7.28,0.11c10.39,0.68,17.01,5.29,23.03,13.56c6.86,9.42,13.54,18.97,20.31,28.46
				c2.26-2.94,4.52-5.88,6.78-8.81c-14.78-6.2-29.35-12.87-43.71-19.97c-5.2-2.57-13.28-5.12-15.86-10.81
				c-2.16-4.75-0.55-10.11,3.22-13.44C235.63,218.53,227.12,210.07,221.35,215.17L221.35,215.17z"/>
		</g>
	</g>
	<g>
		<g>
			<linearGradient id="SVGID_24_" gradientUnits="userSpaceOnUse" x1="287.0487" y1="286.3152" x2="295.7422" y2="286.3152">
				<stop  offset="0" style="stop-color:#FCEE21"/>
				<stop  offset="1" style="stop-color:#FBB03B"/>
			</linearGradient>
			<path class="st23" d="M291.74,280.76c1.64-0.83,0.85-0.31,0.21-0.22c0.53-0.07,1.06-0.14,1.6-0.21
				c-0.35,0.03-0.68,0.02-1.03-0.03c0.53,0.07,1.06,0.14,1.6,0.21c-0.03-0.01-0.77-0.16-0.76-0.2c0.02-0.08,1.56,0.8,0.62,0.19
				c-0.47-0.3,1.15,1.09,0.52,0.36c0.21,0.27,0.41,0.54,0.62,0.81c-0.3-0.52-0.22-0.27,0.25,0.74c-0.4-0.97-0.79-1.89-1.54-2.65
				c-0.94-0.94-2.15-1.48-3.45-1.65c-2.51-0.34-4.55,0.85-5.98,2.86c-3.33,4.7-0.19,12.34,5.44,13.42c1.6,0.31,3.17,0.24,4.62-0.6
				c1.24-0.73,2.43-2.16,2.76-3.59c0.67-2.96-0.89-6.75-4.19-7.38c-0.67-0.13-0.71-0.45,0.55,0.3c0.85,0.71,1.1,0.91,0.75,0.59
				c-0.09-0.08-0.17-0.16-0.24-0.25c0.22,0.28,0.44,0.56,0.66,0.83c-0.29-0.52-0.19-0.26,0.29,0.79c-0.03-0.23-0.13-0.46-0.17-0.69
				c0.07,0.53,0.14,1.06,0.21,1.6c-0.02-0.24-0.03-0.46-0.01-0.7c-0.07,0.53-0.14,1.06-0.21,1.6c0.04-0.3,0.3-0.94-0.13,0.04
				c-0.44,1.01-0.13,0.33,0.03,0.1c-3.66-0.48-7.31-0.96-10.97-1.43c0.64,1.55,1.18,2.72,2.4,3.93c1.09,1.08,2.41,1.81,3.85,2.31
				c2.62,0.91,5.33,0.51,7.76-0.71c2.81-1.42,3.83-5.6,2.15-8.21C298.1,280.04,294.74,279.24,291.74,280.76L291.74,280.76z"/>
		</g>
	</g>
</g>
<g id="Layer_4">
	<g>
		<g>
			<path d="M193.22,181.25c3.61-24.22,20.24-42.98,36.16-60.44c-1.67-0.97-3.34-1.95-5.01-2.92c-2.56,12.36-4.08,24.91-4.41,37.53
				c-0.25,9.87,0.37,21.51-7.57,28.73c-2.86,2.6,1.39,6.84,4.24,4.24c7.63-6.94,8.87-17.28,9.19-27.05
				c0.46-14.14,1.46-27.96,4.33-41.86c0.57-2.75-2.86-5.28-5.01-2.92c-16.56,18.16-33.95,37.9-37.71,63.09
				C186.87,183.44,192.65,185.07,193.22,181.25L193.22,181.25z"/>
		</g>
	</g>
	<g>
		<g>
			<path d="M223.66,201.25c4.22-17.65,15.35-33.23,30.94-42.63c9.28-5.6,19.89-8.33,30.16-11.5c11.46-3.54,22.92-7.07,34.38-10.61
				c-1.13-1.47-2.26-2.94-3.39-4.41c-7.39,15.5-14.12,31.61-22.72,46.48c-7.98,13.8-20.3,26.93-37.36,27.12
				c-3.86,0.04-3.87,6.04,0,6c16.58-0.19,29.91-10.97,38.85-24.16c10.87-16.04,18.1-34.97,26.41-52.41
				c1.06-2.22-0.71-5.23-3.39-4.41c-12.73,3.93-25.46,7.86-38.19,11.79c-10.49,3.24-21.02,6.37-30.25,12.49
				c-15.61,10.35-26.87,26.44-31.22,44.65C216.97,203.4,222.76,205.01,223.66,201.25L223.66,201.25z"/>
		</g>
	</g>
	<g>
		<g>
			<path d="M218.73,195.69c-14.95-15.49-38.85-13.59-56.11-3.27c-21.44,12.82-34.24,35.22-52.39,51.73
				c-1.89,1.72-0.44,5.24,2.12,5.12c23.81-1.1,46.34-11.53,62.44-29.12c2.6-2.84-1.63-7.1-4.24-4.24
				c-15.03,16.43-35.93,26.34-58.2,27.37c0.71,1.71,1.41,3.41,2.12,5.12c16.23-14.78,27.93-34.3,45.84-47.27
				c15.65-11.33,39.18-16.73,54.17-1.2C217.17,202.72,221.41,198.47,218.73,195.69L218.73,195.69z"/>
		</g>
	</g>
	<g>
		<g>
			<path d="M212.6,210.7c-22.94-7.49-46.29,4-62.14,20.42c-8.3,8.6-15.06,18.49-21.63,28.43c-6.92,10.47-14.1,21.04-25.13,27.54
				c-3.05,1.8-0.94,6.1,2.31,5.48c20.44-3.9,40.46-9.77,59.72-17.67c9.17-3.76,18.16-7.92,26.93-12.52
				c5.59-2.93,15.46-7.48,12.51-15.49c-1.32-3.59-7.12-2.04-5.79,1.6c1.92,5.22-16.77,12.31-20.27,13.98
				c-8.2,3.91-16.58,7.44-25.1,10.59c-16.13,5.96-32.73,10.5-49.61,13.73c0.77,1.83,1.54,3.66,2.31,5.48
				c19.46-11.46,28.39-33.95,42.41-50.69c14.96-17.86,37.75-32.97,61.88-25.1C214.69,217.68,216.27,211.89,212.6,210.7L212.6,210.7z
				"/>
		</g>
	</g>
	<g>
		<g>
			<path d="M250.38,211.23c-11.56-5.94-26.15-5.56-36.7,2.46c-10.99,8.36-13.6,22.05-4.74,32.93c9.64,11.83,22.26,21.84,36.38,27.66
				c14.71,6.05,30.56,8.32,46.22,10.47c2.25,0.31,4.25-1.26,3.69-3.69c-5.88-25.54-21.03-47.98-42.31-63.23
				c-3.14-2.25-6.14,2.95-3.03,5.18c20.01,14.34,34.03,35.69,39.55,59.65c1.23-1.23,2.46-2.46,3.69-3.69
				c-25.15-3.46-50.05-7.76-69.3-25.66c-4.33-4.02-9.37-8.35-12.41-13.48c-3.52-5.94-2.23-12.56,2.07-17.75
				c8.13-9.79,22.96-11.26,33.87-5.66C250.78,218.17,253.82,213,250.38,211.23L250.38,211.23z"/>
		</g>
	</g>
	<g>
		<g>
			<path d="M189.89,261.26c-0.01,45.88,17.92,90.94,48.72,124.86c16.62,18.3,36.65,31.75,58.43,43.17
				c24.49,12.85,49.46,25.73,76.06,33.64c28.54,8.48,59.64,10.72,88.01,0.37c3.6-1.31,2.04-7.11-1.6-5.79
				c-51.75,18.9-104.71-5.28-150.46-28.75c-21.67-11.12-42.46-22.96-59.86-40.25c-15.76-15.66-28.5-34.28-37.62-54.53
				c-10.28-22.83-15.69-47.69-15.68-72.72C195.89,257.4,189.89,257.39,189.89,261.26L189.89,261.26z"/>
		</g>
	</g>
	<g>
		<g>
			<path d="M460.79,462.62c24.93-39.78,13.28-90.19-2.38-131.12c-8.75-22.86-19.94-44.43-35.29-63.58
				c-15.59-19.44-34.13-36.35-52.4-53.21c-19.38-17.89-39.92-35.15-65.14-44.02c-3.65-1.28-5.22,4.51-1.6,5.79
				c22,7.74,40.38,22.41,57.48,37.89c17.01,15.41,34.11,31.06,49.35,48.25c16.4,18.51,29.06,39.33,38.51,62.17
				c8.36,20.19,15.3,41.35,18.37,63.04c3.49,24.63,1.37,50.3-12.09,71.77C453.56,462.87,458.75,465.89,460.79,462.62L460.79,462.62z
				"/>
		</g>
	</g>
	<g>
		<g>
			<path d="M222.57,214.09c3.98,16.78,14.22,31.24,28.68,40.63c1.62,1.05,3.13-1.54,1.51-2.59c-13.83-8.98-23.51-22.8-27.3-38.83
				C225.02,211.42,222.13,212.21,222.57,214.09L222.57,214.09z"/>
		</g>
	</g>
	<g>
		<g>
			<path d="M167.31,247.1c9.12-11.5,21.74-19.19,36.15-22c1.89-0.37,1.09-3.26-0.8-2.89c-14.86,2.89-28.06,10.9-37.48,22.77
				C164,246.47,166.11,248.61,167.31,247.1L167.31,247.1z"/>
		</g>
	</g>
	<g>
		<g>
			<path d="M236.65,210.76c6.22-14.96,15.9-28.01,28.29-38.43c1.48-1.24-0.65-3.36-2.12-2.12c-12.82,10.77-22.64,24.3-29.06,39.75
				C233.02,211.75,235.92,212.52,236.65,210.76L236.65,210.76z"/>
		</g>
	</g>
	<g>
		<g>
			<path d="M216.46,198.89c-1.14-13.83-0.94-27.65,0.59-41.44c0.21-1.92-2.79-1.9-3,0c-1.54,13.79-1.73,27.61-0.59,41.44
				C213.61,200.8,216.61,200.82,216.46,198.89L216.46,198.89z"/>
		</g>
	</g>
	<g>
		<g>
			<path d="M207.59,201.95c0,0.27-6.97-3.14-7.74-3.49c-1.76-0.81-3.59-1.51-5.44-2.09c-4.32-1.37-8.87-2.11-13.4-2.24
				c-9.16-0.25-18.12,2.12-26.01,6.75c-1.66,0.98-0.16,3.57,1.51,2.59c10.73-6.3,23.6-8.02,35.61-4.66c2.87,0.8,5.66,1.88,8.3,3.26
				c1.86,0.97,3.66,2.5,5.79,2.81c2.32,0.34,4.34-0.42,4.37-2.94C210.62,200.02,207.62,200.01,207.59,201.95L207.59,201.95z"/>
		</g>
	</g>
	<g>
		<g>
			<path d="M220.65,281.46c0.3,7.57-5.01,21.31,6.05,24.07c1.87,0.47,2.67-2.43,0.8-2.89c-8.78-2.19-3.61-15.15-3.84-21.18
				C223.57,279.54,220.57,279.53,220.65,281.46L220.65,281.46z"/>
		</g>
	</g>
	<g>
		<g>
			<path d="M241.76,339.4c-5.14,11.86,2.26,24.46,15.2,25.49c1.92,0.15,1.91-2.85,0-3c-10.49-0.83-16.82-11.25-12.61-20.97
				C245.11,339.16,242.52,337.63,241.76,339.4L241.76,339.4z"/>
		</g>
	</g>
	<g>
		<g>
			<path d="M273.92,378.72c-7.85,4.98-3.62,14.38,0.87,20.11c3.71,4.74,12.81,9.79,16.32,1.79c0.77-1.75-1.82-3.28-2.59-1.51
				c-2.99,6.81-10.12-0.28-12.46-3.59c-2.84-4.02-6.11-10.74-0.63-14.21C277.06,380.28,275.56,377.69,273.92,378.72L273.92,378.72z"
				/>
		</g>
	</g>
	<g>
		<g>
			<path d="M333.23,417.17c-0.41-3.71-5.01-4.99-7.57-2.27c-4.04,4.28-0.77,15.18,2.03,19.36c2.71,4.04,8.42,7.14,13.16,4.63
				c4.23-2.23,5.4-7.76,2.45-11.4c-1.22-1.5-3.33,0.63-2.12,2.12c2.35,2.89-0.39,6.48-3.35,7.02c-3.2,0.59-6.39-1.96-7.92-4.53
				c-1.33-2.25-1.96-4.81-2.38-7.36c-0.2-1.2-0.57-2.7-0.46-3.93c-0.28-1.15,0.06-2.11,1.02-2.88c0.43-1.71,1.15-1.96,2.15-0.77
				C330.43,419.07,333.44,419.09,333.23,417.17L333.23,417.17z"/>
		</g>
	</g>
	<g>
		<g>
			<path d="M404.32,445.04c-2.6-5.12-10.46-2.45-10.87,2.78c-0.68,8.8,9.87,10.08,16.18,9.79c1.92-0.09,1.93-3.09,0-3
				c-4.08,0.19-9.16,0.54-11.96-3.05c-1.21-1.55-2-4.09-0.16-5.52c1.32-1.02,3.39-1.11,4.22,0.52
				C402.6,448.27,405.19,446.76,404.32,445.04L404.32,445.04z"/>
		</g>
	</g>
	<g>
		<g>
			<path d="M326.19,335.06c-1.8,8.54,8.83,14.24,14.6,7.37c1.23-1.47-0.88-3.6-2.12-2.12c-3.67,4.38-10.82,1.41-9.58-4.45
				C329.48,333.98,326.59,333.17,326.19,335.06L326.19,335.06z"/>
		</g>
	</g>
	<g>
		<g>
			<path d="M361.54,371.21c-0.19,10.84,9.88,20.08,20.7,18.69c1.89-0.24,1.91-3.25,0-3c-9.22,1.19-17.87-6.32-17.7-15.69
				C364.57,369.28,361.57,369.28,361.54,371.21L361.54,371.21z"/>
		</g>
	</g>
	<g>
		<g>
			<path d="M423.14,417.01c-0.04,5.05,0.15,11.66,4.97,14.67c3.53,2.2,8.85,1.98,10.91-2.06c0.87-1.72-1.72-3.24-2.59-1.51
				c-1.59,3.13-6.07,2.2-7.99-0.1c-2.47-2.97-2.33-7.36-2.3-10.99C426.15,415.08,423.15,415.08,423.14,417.01L423.14,417.01z"/>
		</g>
	</g>
	<g>
		<g>
			<path d="M443.07,369.58c-0.75,5.08-0.9,11.17,2.97,15.14c3.07,3.16,8.09,4.33,11.84,1.73c1.58-1.09,0.08-3.69-1.51-2.59
				c-3,2.07-7.02,0.7-8.97-2.22c-2.18-3.26-1.98-7.57-1.43-11.27C446.25,368.49,443.35,367.67,443.07,369.58L443.07,369.58z"/>
		</g>
	</g>
	<g>
		<g>
			<path d="M414.2,325.52c-1.57-1.33-3.28-1.58-5.11-0.54c-0.45,0.25-0.76,0.78-0.74,1.3c0.13,4.37,0.33,9.14,3.09,12.76
				c2.25,2.95,5.51,4.43,9.18,3.89c1.9-0.28,1.09-3.17-0.8-2.89c-7.44,1.09-8.33-8.78-8.48-13.76c-0.25,0.43-0.5,0.86-0.74,1.3
				c0.49,0.02,0.98,0.05,1.48,0.07C413.54,328.88,415.68,326.77,414.2,325.52L414.2,325.52z"/>
		</g>
	</g>
	<g>
		<g>
			<path d="M380.16,282.75c0.1,6.48,3.51,12.32,9.14,15.54c1.68,0.96,3.19-1.63,1.51-2.59c-4.71-2.7-7.57-7.52-7.65-12.95
				C383.13,280.83,380.13,280.82,380.16,282.75L380.16,282.75z"/>
		</g>
	</g>
	<g>
		<g>
			<path d="M345.94,253.75c-3.34,4.57-3.24,11.19,0.67,15.42c3.73,4.05,9.83,4.7,14.61,2.31c1.73-0.87,0.21-3.45-1.51-2.59
				c-8.78,4.4-16.82-5.89-11.17-13.62C349.67,253.7,347.07,252.2,345.94,253.75L345.94,253.75z"/>
		</g>
	</g>
	<g>
		<g>
			<path d="M292.47,204.4c-7.02,6.16-2.26,17.59,7.06,16.93c1.91-0.14,1.93-3.14,0-3c-6.73,0.48-10.02-7.35-4.94-11.81
				C296.04,205.24,293.92,203.13,292.47,204.4L292.47,204.4z"/>
		</g>
	</g>
	<g>
		<g>
			<path d="M278.5,283.9c-0.37,7.18,6.4,12.88,13.36,11.83c1.9-0.29,1.09-3.18-0.8-2.89c-5.14,0.78-9.82-3.89-9.56-8.94
				C281.6,281.97,278.59,281.98,278.5,283.9L278.5,283.9z"/>
		</g>
	</g>
</g>
</svg>
