<?xml version="1.0" encoding="utf-8"?>
<!-- Generator: Adobe Illustrator 23.0.2, SVG Export Plug-In . SVG Version: 6.00 Build 0)  -->
<svg version="1.1" id="Layer_1" xmlns="http://www.w3.org/2000/svg" xmlns:xlink="http://www.w3.org/1999/xlink" x="0px" y="0px"
	 viewBox="0 0 565 565" style="enable-background:new 0 0 565 565;" xml:space="preserve">
<style type="text/css">
	.st0{fill:#A596B5;}
</style>
<path class="st0" d="M94.57,450.49c-0.25-6.61-0.51-13.22-0.76-19.83c-8.18-15.46-11.1-28.65-12.2-38.13
	c-2.28-19.57,0.76-44.23,0.76-44.23s-11.44-48.04-10.68-53.38c0.24-1.67-0.8-5.72,1.42-9.23c0.42-0.67,1.92-3.04,4.68-3.73
	c2.9-0.73,5.5,0.84,6.43,1.39c5.81,3.5,5.76,13.65,8.83,28.35c7.63,36.6,8.39,28.22,8.39,28.22l3.05-1.53l-3.05-71.68
	c0,0,0.76-11.44,9.15-9.91s11.44,6.1,9.91,22.12c-1.53,16.01,3.05,43.47,3.05,48.04c0,4.58,4.58,4.58,4.58,4.58l3.81-80.07
	c0,0,6.86-15.25,14.49,0s3.81,78.55,3.81,78.55l13.73-59.48c0,0,9.91-12.2,15.25-0.76s-5.34,97.61-5.34,97.61l1.53,4.58l15.25-12.96
	c0,0,5.34-24.4,21.35-22.12s4.58,15.25,4.58,15.25l-11.44,28.22c0,0-8.39,28.22-16.01,35.84c-7.63,7.63-21.35,28.98-21.35,28.98
	l0.76,63.3c0,0,64.06,27.45,72.45,22.12l0.76-161.67c0,0-41.94-65.58-44.23-86.17c0,0-19.07-53.38-23.64-54.14
	c0,0,9.91-19.83,29.74,2.29c11.14,27.98,19.02,41.46,23.64,40.42c7.84-1.76,6.31-45.23-4.58-130.41c0,0,3.05-13.73,19.07-2.29
	c2.4,26.27,8.26,54.73,19.83,83.89c1.23,3.11,2.51,6.16,3.81,9.15c2.03-37.11,4.07-74.23,6.1-111.34c0,0,3.05-15.25,16.78-2.29
	l3.81,104.48l14.49-86.17c0,0,9.15-13.73,18.3-0.76l0.76,94.56l19.83-59.48c0,0,12.2-14.49,16.78,1.53
	c-4.63,56.15-10.16,97.69-14.49,125.83c-2.69,17.46-9.33,60.08-13.25,59.75c-0.21-0.02-0.37-0.15-0.47-0.27l0.76,169.3
	c0,0,45.76-7.63,50.33-14.49c4.58-6.86,0-86.94,0-86.94c-1.36-4.15-2.64-8.48-3.81-12.96c-6.28-24.1-7.67-46.47-6.86-65.58
	c-5.87-22.9-9.95-39.98-11.44-46.52c-0.23-1.03-0.89-4.05,0-7.63c0.25-1.01,1.8-7.25,6.1-8.39c4.47-1.18,9.29,3.83,11.44,7.63
	c1.89,3.34,1.72,5.76,2.29,10.68c0.95,8.2,2.9,14.04,6.1,23.64c1.23,3.69,3.17,8.99,6.1,15.25c0,0,3.05-29.74,0-37.37
	s-1.53-34.32-1.53-34.32s4.58-15.25,16.78-3.81c0,0,1.53,31.27,2.29,35.84c0.76,4.58,3.05,36.6,3.05,32.79s3.81-3.05,3.81-3.05
	s0.76-43.47,2.29-47.28s0.76-27.45,0.76-27.45s2.29-12.96,6.1-12.2c3.81,0.76,11.44,0.76,10.68,12.96s3.05,76.26,3.05,76.26
	l12.2-57.96c0,0,5.34-12.2,11.44-9.91s8.39,9.15,6.1,19.07c-2.29,9.91-6.86,86.17-6.86,86.17s12.96-9.91,17.54-10.68
	c1.35-0.23,1.74-0.59,2.53-1.11c4.92-3.19,3.41-9.56,8.14-18.72c2.12-4.1,3.53-4.97,4.58-5.34c3.37-1.2,7.41,1.15,8.33,1.88
	c0.91,0.72,1.59,1.38,2.35,2.7c3.05,5.34,3.81,4.58,0.76,11.44c-3.05,6.86-2.29,6.1-5.34,15.25s-12.96,28.98-16.01,37.37
	c-3.05,8.39-20.59,38.89-26.69,40.42l-2.29,17.54c0,0,99.9-124.3,62.53-240.22S395.03,30.3,279.88,38.69S55.67,108.85,31.27,278.15
	C31.27,278.15,28.22,388.72,94.57,450.49z"/>
</svg>
