<?xml version="1.0" encoding="utf-8"?>
<!-- Generator: Adobe Illustrator 23.0.3, SVG Export Plug-In . SVG Version: 6.00 Build 0)  -->
<svg version="1.1" id="Layer_1" xmlns="http://www.w3.org/2000/svg" xmlns:xlink="http://www.w3.org/1999/xlink" x="0px" y="0px"
	 viewBox="0 0 565 565" style="enable-background:new 0 0 565 565;" xml:space="preserve">
<style type="text/css">
	.st0{fill:#FAEBD7;}
</style>
<path class="st0" d="M94.6,450.5c-0.2-6.6-0.5-13.2-0.8-19.8c-8.2-15.5-11.1-28.6-12.2-38.1c-2.3-19.6,0.8-44.2,0.8-44.2
	S71,300.4,71.7,295c0.2-1.7-0.8-5.7,1.4-9.2c0.4-0.7,1.9-3,4.7-3.7c2.9-0.7,5.5,0.8,6.4,1.4C90,287,90,297.1,93,311.9
	c7.6,36.6,8.4,28.2,8.4,28.2l3.1-1.5l-3.1-71.7c0,0,0.8-11.4,9.2-9.9s11.4,6.1,9.9,22.1s3.1,43.5,3.1,48c0,4.6,4.6,4.6,4.6,4.6
	l3.8-80.1c0,0,6.9-15.2,14.5,0c7.6,15.2,3.8,78.5,3.8,78.5l13.7-59.5c0,0,9.9-12.2,15.2-0.8s-5.3,97.6-5.3,97.6l1.5,4.6l15.2-13
	c0,0,5.3-24.4,21.4-22.1s4.6,15.2,4.6,15.2l-11.4,28.2c0,0-8.4,28.2-16,35.8c-7.6,7.6-21.4,29-21.4,29l0.8,63.3
	c0,0,64.1,27.4,72.4,22.1l0.8-161.7c0,0-41.9-65.6-44.2-86.2c0,0-19.1-53.4-23.6-54.1c0,0,9.9-19.8,29.7,2.3
	c11.1,28,19,41.5,23.6,40.4c7.8-1.8,6.3-45.2-4.6-130.4c0,0,3.1-13.7,19.1-2.3c2.4,26.3,8.3,54.7,19.8,83.9c1.2,3.1,2.5,6.2,3.8,9.1
	c2-37.1,4.1-74.2,6.1-111.3c0,0,3-15.2,16.8-2.3l3.8,104.5l14.5-86.2c0,0,9.1-13.7,18.3-0.8l0.8,94.6l19.8-59.5
	c0,0,12.2-14.5,16.8,1.5c-4.6,56.2-10.2,97.7-14.5,125.8c-2.7,17.5-9.3,60.1-13.2,59.8c-0.2,0-0.4-0.1-0.5-0.3l0.8,169.3
	c0,0,45.8-7.6,50.3-14.5c4.6-6.9,0-86.9,0-86.9c-1.4-4.1-2.6-8.5-3.8-13c-6.3-24.1-7.7-46.5-6.9-65.6c-5.9-22.9-10-40-11.4-46.5
	c-0.2-1-0.9-4,0-7.6c0.2-1,1.8-7.2,6.1-8.4c4.5-1.2,9.3,3.8,11.4,7.6c1.9,3.3,1.7,5.8,2.3,10.7c1,8.2,2.9,14,6.1,23.6
	c1.2,3.7,3.2,9,6.1,15.2c0,0,3-29.7,0-37.4s-1.5-34.3-1.5-34.3s4.6-15.2,16.8-3.8c0,0,1.5,31.3,2.3,35.8c0.8,4.6,3,36.6,3,32.8
	s3.8-3,3.8-3s0.8-43.5,2.3-47.3s0.8-27.5,0.8-27.5s2.3-13,6.1-12.2c3.8,0.8,11.4,0.8,10.7,13s3,76.3,3,76.3l12.2-58
	c0,0,5.3-12.2,11.4-9.9s8.4,9.1,6.1,19.1c-2.3,9.9-6.9,86.2-6.9,86.2s13-9.9,17.5-10.7c1.4-0.2,1.7-0.6,2.5-1.1
	c4.9-3.2,3.4-9.6,8.1-18.7c2.1-4.1,3.5-5,4.6-5.3c3.4-1.2,7.4,1.1,8.3,1.9c0.9,0.7,1.6,1.4,2.4,2.7c3,5.3,3.8,4.6,0.8,11.4
	c-3,6.9-2.3,6.1-5.3,15.2s-13,29-16,37.4s-20.6,38.9-26.7,40.4l-2.3,17.5c0,0,99.9-124.3,62.5-240.2S395,30.3,279.9,38.7
	S55.7,108.8,31.3,278.1C31.3,278.1,28.2,388.7,94.6,450.5z"/>
</svg>
