<?xml version="1.0" encoding="utf-8"?>
<!-- Generator: Adobe Illustrator 23.0.3, SVG Export Plug-In . SVG Version: 6.00 Build 0)  -->
<svg version="1.1" id="Layer_1" xmlns="http://www.w3.org/2000/svg" xmlns:xlink="http://www.w3.org/1999/xlink" x="0px" y="0px"
	 viewBox="0 0 565 565" style="enable-background:new 0 0 565 565;" xml:space="preserve">
<style type="text/css">
	.st0{fill:#FAEBD7;}
	.st1{fill:#4E4656;}
</style>
<circle class="st0" cx="282.5" cy="281.5" r="248.5"/>
<path class="st1" d="M95.6,448.5l-0.8-19.8c0,0-14.6-21.5-12.2-38.1s0.8-44.2,0.8-44.2L72.7,293c0,0-3.1-14.8,6.1-12.9
	S89,289,89,289l5,20.9c0,0,5,23.3,11.5,26.7l-3.1-71.7c0,0,1.6-12.9,12.6-8.9s8,63,8,63l6.2,10.7l3.8-80.1c0,0,6-17.4,14.5,0
	s3.8,78.5,3.8,78.5l13.7-59.5c0,0,8.4-14,15.2-0.8S173,369,173,369l18.6-12c0,0,5.4-25.2,21.4-22.1s4.6,15.2,4.6,15.2l-11.4,28.2
	c0,0-3.8,28.9-16,35.8s-21.4,29-21.4,29l0.8,63.3c-13.3-7.6-28.4-17.4-43.9-30C114,466.9,104.1,457.4,95.6,448.5z"/>
<path class="st1" d="M240,530.5l0.8-161.7c0,0-44.6-68.6-44.2-86.2S173,228.5,173,228.5s14-19.5,33,4.5c0,0,9.6,36.4,20.3,38.2
	s-4.6-130.4-4.6-130.4S231,122,239,144l25.4,87.5L270,117c0,0,8.6-17.2,17.3,0.9l3.8,104.5l4.9,0.6l9.6-86.8c0,0,8.2-15.4,18.3-0.8
	l0.8,94.6l19.8-59.5c0,0,10.1-15.5,16.8,1.5s-27.7,185.6-27.7,185.6l0.3,169c-5.6,2.5-13.7,5.5-23.9,7.3c-5,0.9-12.3,1.8-27.3,1.3
	C272,534.8,257.4,533.7,240,530.5z"/>
<path class="st1" d="M384.2,511.1v-86.9c0,0-16.2-47-10.7-78.6l-11.4-46.5c0,0,0.1-33.7,17.5-8.4l14.5,49.5l-1.5-71.7
	c0,0,1.2-17.1,16.8-3.8l5.3,68.6l3.3,0.7l2.8-51c0,0-4.4-39.4,6.9-39.7C439,243,438,253,438,253l3.4,79.6l12.2-58
	c0,0,4.4-10.2,11.4-9.9s11,16.3,5,32.3s-5.8,73-5.8,73s10.2-12.6,20-11.8l8.1-18.7c0,0,7.9-11.9,15.3-0.7c0,0,4.6,12-4.5,26.6
	c0,0-26.3,69-42.7,77.8l-2.3,17.5c-7,7.1-15.4,14.6-25.2,22.1C415.3,496,398.4,505,384.2,511.1z"/>
</svg>
