<?xml version="1.0" encoding="utf-8"?>
<!-- Generator: Adobe Illustrator 23.0.2, SVG Export Plug-In . SVG Version: 6.00 Build 0)  -->
<svg version="1.1" xmlns="http://www.w3.org/2000/svg" xmlns:xlink="http://www.w3.org/1999/xlink" x="0px" y="0px"
	 viewBox="0 0 612 792" style="enable-background:new 0 0 612 792;" xml:space="preserve">
<style type="text/css">
	.st0{fill:#182677;}
	.st1{fill:#0B174C;}
</style>
<g id="Layer_2">
	<g>
		<g>
			<path class="st0" d="M324.26,345.85c-1.88-11.44-11.45-19.35-21.8-22.96c-12.61-4.4-30.28,7.56-28.48,21.7
				c4.14,32.47,8.28,64.94,12.42,97.41c0.79,6.2,1.99,11.31,6.59,15.91c3.9,3.9,10.31,6.84,15.91,6.59
				c11.74-0.53,23.06-9.91,22.5-22.5c-2.01-45.19-10.47-90.14-17.03-134.84c-13.71,5.78-27.42,11.56-41.12,17.34
				c2.43,4.02,4.67,8.13,6.73,12.35c0.97,1.98,1.9,3.99,2.79,6c0.24,0.54,1.7,4,0.51,1.12c-1.19-2.88,0.24,0.6,0.46,1.15
				c3.54,8.75,6.66,17.67,9.88,26.54c6.75,18.59,13.93,37.43,25.32,53.74c4.64,6.66,11,11.14,19.43,11.14
				c7.94,0,15.42-4.3,19.43-11.14c6.31-10.76,5.73-23.05,5.37-35.05c-0.29-9.6-0.9-19.19-1.82-28.76
				c-2.04-21.12-5.37-42.14-10.15-62.81c-14.46,3.99-28.93,7.98-43.39,11.96c9.82,29.36,17.55,59.36,23.14,89.81
				c2.02,10.98,14.5,17.49,24.69,16.12c10.67-1.43,19.89-10.85,19.51-22.1c-0.97-29-4.29-57.92-9.62-86.44
				c-2.17-11.59-16.79-19.24-27.68-15.71c-12.4,4.01-18.04,15.25-15.71,27.68c1.18,6.32,2.27,12.66,3.23,19.02
				c0.28,1.88,0.68,3.83,0.83,5.73c-0.16-2.04-0.34-2.66-0.04-0.25c0.44,3.51,0.86,7.02,1.24,10.54
				c1.41,13.11,2.31,26.27,2.75,39.44c14.73-1.99,29.46-3.99,44.2-5.98c-5.59-30.45-13.32-60.45-23.14-89.81
				c-3.73-11.14-15.68-19.6-27.68-15.71c-12,3.88-18.56,15.38-15.71,27.68c2.02,8.74,3.81,17.52,5.3,26.37
				c0.75,4.42,1.46,8.85,2.03,13.29c-0.7-5.5,0.16,1.5,0.28,2.6c0.26,2.23,0.5,4.45,0.73,6.68c0.9,8.92,1.53,17.87,1.88,26.83
				c0.17,4.48,0.28,8.96,0.31,13.44c0.01,1.7-0.06,3.41-0.04,5.11c-0.19,2.55-0.13,2.13,0.2-1.27c1.51-2.89,1.65-3.26,0.43-1.11
				c12.95,0,25.9,0,38.86,0c-5.2-7.45-9.54-15.41-13.28-23.69c-0.45-1-0.88-2.02-1.34-3.02c-1.15-2.56,1.61,4.02,0.03,0.03
				c-0.82-2.06-1.64-4.11-2.43-6.17c-1.69-4.4-3.3-8.84-4.9-13.27c-6.74-18.69-13.46-37.69-23.77-54.76
				c-5.81-9.63-17.78-13.56-28.1-9.21c-11.12,4.69-14.69,15.24-13.03,26.54c3.1,21.14,6.24,42.28,9.3,63.43
				c0.38,2.59,0.75,5.19,1.11,7.78c0.18,1.3,0.36,2.6,0.54,3.89c0.5,3.5-0.47-3.64-0.02-0.14c0.67,5.2,1.33,10.4,1.91,15.61
				c1.2,10.74,2.1,21.51,2.57,32.3c15,0,30,0,45,0c-4.14-32.47-8.28-64.94-12.42-97.41c-9.49,7.23-18.99,14.46-28.48,21.7
				c-3.63-1.02-6.48-3.23-8.54-6.64c-1.2-3.53-1.56-4.14-1.09-1.83c1.91,11.65,16.97,19.18,27.68,15.71
				C321.16,369.45,326.31,358.33,324.26,345.85L324.26,345.85z"/>
		</g>
	</g>
	<g>
		<g>
			<path class="st0" d="M323.67,274.7c-13.28,18.36-7.66,42.81-2.88,63.01c2.29,9.68,4.8,19.3,6.78,29.05
				c0.49,2.42,0.95,4.85,1.36,7.29c0.21,1.22,0.38,2.44,0.58,3.66c0.56,3.35-0.36-3.86-0.08-0.48c0.43,5.25,0.86,10.42,0.83,15.69
				c14.73-1.99,29.46-3.99,44.2-5.98c-1.83-13.49-3.65-26.98-5.48-40.46c-0.89-6.58-1.78-13.16-2.67-19.74
				c-0.45-3.29-0.89-6.58-1.34-9.87c-0.22-1.64-0.46-3.29-0.67-4.93c-0.09-0.66-0.18-1.32-0.27-1.97c0.95,3.61,0.37,7.14-1.73,10.59
				c-2.69,2.69-5.38,5.38-8.07,8.07c0.32-0.21,0.64-0.41,0.96-0.62c-11.02-4.48-22.03-8.96-33.05-13.45
				c5.72,23.94,10.29,48.13,13.7,72.51c0.69,4.96,6.07,11.19,10.34,13.45c4.54,2.4,9.23,3.36,14.35,2.67
				c11.51-1.55,18.71-10.79,19.51-22.1c2.68-38.14,1.87-76.42-2.42-114.42c-14.73,1.99-29.46,3.99-44.2,5.98
				c0.24,1.61,0.49,3.23,0.72,4.84c0.31,2.12,0.64,4.06,0.13,0.81c0.5,3.22,0.82,6.48,1.18,9.72c0.77,6.81,1.4,13.64,1.9,20.47
				c0.98,13.35,1.44,26.73,1.44,40.11c15,0,30,0,45,0c-0.77-17.22-1.54-34.43-2.31-51.65c-0.53-11.74-9.97-23.06-22.5-22.5
				c-11.74,0.53-23.06,9.91-22.5,22.5c0.77,17.22,1.54,34.43,2.31,51.65c0.53,11.74,9.97,23.06,22.5,22.5
				c12.19-0.55,22.5-9.89,22.5-22.5c0-29.49-2.56-58.78-6.99-87.92c-0.76-4.98-6.02-11.16-10.34-13.45
				c-4.54-2.4-9.23-3.36-14.35-2.67c-10.04,1.35-20.77,10.96-19.51,22.1c4.29,37.99,5.1,76.28,2.42,114.42
				c14.73-1.99,29.46-3.99,44.2-5.98c-3.41-24.38-7.98-48.56-13.7-72.51c-3.28-13.72-21.08-21.18-33.05-13.45
				c-7.15,4.62-11.43,10.78-12.57,19.24c-0.75,5.59,0.38,10.94,1.13,16.5c1.11,8.22,2.23,16.45,3.34,24.67
				c2.23,16.45,4.46,32.9,6.68,49.35c0.67,4.95,6.09,11.2,10.34,13.45c4.54,2.4,9.23,3.36,14.35,2.67
				c10.99-1.48,19.44-10.81,19.51-22.1c0.13-20.32-4.56-40.29-9.33-59.91c-1.1-4.53-2.2-9.07-3.21-13.62
				c-0.54-2.42-1.06-4.85-1.53-7.28c-0.13-0.7-1.02-6.98-0.6-3.07c0.42,3.94-0.15-2.49-0.17-3.17c-0.02-0.47,0.01-6.11,0.14-6.1
				c-0.53,3.49-0.56,4.02-0.09,1.57c0.22-0.96,0.5-1.9,0.82-2.82c-1.4,3.09-1.55,3.55-0.43,1.38c0.5-0.86,1.06-1.69,1.67-2.47
				c6.92-9.57,1.96-25.49-8.07-30.78C342.79,260.46,331.06,264.48,323.67,274.7L323.67,274.7z"/>
		</g>
	</g>
	<g>
		<g>
			<path class="st0" d="M376.56,254.02c-6.42-9.32-12.96-17.92-22.3-24.47c-10.01-7.02-23.23-9.63-35.15-6.91
				c-22.29,5.1-32.62,28.77-31.27,49.82c1.39,21.68,11.59,45.14,35.35,49.46c14.95,2.72,28.81-2.44,37.57-15.08
				c7.01-10.13,6.95-22.93,5.11-34.57c-3.4-21.5-21.27-46.51-45.39-44.96c-28.81,1.84-36.73,32.35-34.5,56.36
				c0.99,10.74,1.77,23.13,7.99,32.36c8.91,13.24,27.53,20.09,41.78,10.57c21.65-14.46,20.25-46.58,8.41-66.88
				c-7.11-12.18-18.99-21.38-33.44-22.03c-14.69-0.66-28.58,9.12-34.97,21.95c-11.41,22.92-7.14,51.99,4.9,73.72
				c5.71,10.3,20.73,14.55,30.78,8.07c10.43-6.73,14.18-19.76,8.07-30.78c-0.69-1.24-1.27-2.57-1.99-3.79
				c-1.71-2.88,1.6,5.04-0.09-0.13c-0.71-2.17-1.47-4.31-2.04-6.53c-0.29-1.15-1.36-3.86-1.07-5.02c-0.09,0.37,0.44,5.39,0.14,0.89
				c-0.19-2.85-0.32-5.69-0.19-8.55c0.01-0.28,0.37-5.92,0.06-2.12c-0.3,3.7,0.36-1.65,0.44-2.03c0.25-1.1,0.58-2.17,0.89-3.26
				c1.1-3.88-0.03,0.03-0.32,0.74c1.9-4.6-2.14,1.9-0.21,0.02c2.2-2.13-4.68,2.52-0.31,0.33c-1.81,0.91-3.57,1.54-5.62,1.46
				c-3.52-0.73-4.11-0.81-1.74-0.24c-0.95-0.39-1.89-0.78-2.84-1.18c3.99,1.96-2.33-2.73-0.62-0.55c2.79,3.58,0.21-0.98-0.25-0.7
				c-0.04,0.02,3.16,4.62,3.07,5.31c-0.32-0.79-0.65-1.58-0.97-2.37c0.3,0.76,0.57,1.53,0.81,2.32c0.42,1.3,0.68,2.63,1.06,3.95
				c0.97,3.42,0.12-0.98-0.11-1.15c0.11,0.09,0.41,4.64,0.03,4.85c0.86-0.49,1.02-4.73-0.08-0.41c-0.48,1.9-2.18,4.72,0.57-0.64
				c-0.83,1.62-2.07,2.09,1.29-1.4c3.68-3.83,9.77-4.87,14.81-3.97c2.15,1.26,4.29,2.52,6.44,3.79c1.81,2.76,2.26,3.38,1.34,1.86
				c-1.35-2.5,0.85,5.13,0.33,0.41c-0.11-0.99-0.44-2.06-0.61-3.03c-0.15-0.88-1.08-6.52-0.24-1.14
				c-0.88-5.64-0.73-11.21-0.84-16.88c-0.11-5.77-0.81,2.88-0.06-0.52c0.26-1.17,0.58-2.38,0.79-3.55c0.37-2.04,1.79-1.76-0.85,1.54
				c0.28-0.61,0.6-1.21,0.96-1.77c0.9-1.45,0.38-0.81-1.56,1.92c-0.87,0.62-1.73,1.23-2.6,1.85c2.23-1.19,1.39-1.09-2.51,0.31
				c-1.21,0.32-2.42,0.65-3.62,0.97c-3.55-0.76-4.11-0.83-1.66-0.23c-0.8-0.3-4.3-2.45-1.27-0.28c-4.11-2.94-1.72-1.47-0.87-0.53
				c3.48,3.88-1.71-3.18,0-0.29c0.69,1.16,1.48,2.26,2.14,3.44c0.23,0.41,1.33,2.86,1.48,2.89c-1.07-2.65-1.31-3.19-0.73-1.62
				c0.28,0.76,0.54,1.53,0.77,2.31c0.31,1.03,0.49,2.12,0.82,3.14c1.6,5.02,0.08-4.83,0.14,0.44c0.01,0.93,0.04,1.9,0.08,2.82
				c0.2,4-0.12-1.45,0.41-1.75c-0.29,0.16-1.16,5.39-0.09,1.28c0.2-0.47,0.4-0.95,0.59-1.42c-1.25,2.01-0.91,1.58,1.04-1.29
				c1.48-1.56,3.51-2.58,5.54-3.18c-4.15,1.23,5.3,0.1,0.89-0.12c5.52,0.27,3.75,0.65,2.06,0.18c-4.43-1.21,3.64,1.99,1.05,0.45
				c-2.6-1.54,4.09,3.9,0.85,0.68c-3.1-3.08,0.97,1.01,0.75,1.1c-0.26-0.42-0.51-0.84-0.77-1.25c-0.87-1.74-0.93-1.73-0.16,0.04
				c0.18,0.44,0.36,0.89,0.54,1.33c-0.36-0.93-0.67-1.87-0.95-2.83c-0.28-0.96-0.52-1.94-0.73-2.92c-0.16-0.74-0.3-1.48-0.41-2.23
				c-0.28-1.74-0.18-0.99,0.31,2.25c0.23-2.24-0.34-4.72-0.27-7c0.02-0.74,0.71-5.12-0.05-1.19c-0.81,4.14,0.55-1.69,0.69-2.42
				c0.52-2.7,1.41,0.18-0.86,1.61c0.27-0.6,0.58-1.18,0.92-1.74c0.89-1.46,0.33-0.83-1.68,1.9c-0.16,0.05,1.77-1.7,1.79-1.85
				c-2.9,2.1-3.34,2.53-1.31,1.29c-0.87,0.39-1.74,0.77-2.61,1.16c4.46-1.73-3.86,0.13-0.86,0.12c2.21-0.01-5.37-0.53-0.04,0.09
				c2.72,0.32-4.33-2.83-0.43-0.26c0.44,0.25,0.88,0.5,1.32,0.76c1.95,1.32,1.71,1.08-0.73-0.73c-0.1,0.49,5.07,5.16,5.61,5.76
				c3.53,3.92-1.88-2.84-0.06-0.05c1.03,1.58,2.19,3.1,3.26,4.65c6.66,9.67,20.05,14.99,30.78,8.07
				C378.11,278.6,383.7,264.39,376.56,254.02L376.56,254.02z"/>
		</g>
	</g>
	<g>
		<g>
			<path class="st0" d="M303.11,303.03c1.44-15.48-0.64-31.62-5.85-46.26c-3.94-11.06-15.53-19.65-27.68-15.71
				c-12.43,4.02-18,15.25-15.71,27.68c1.92,10.45,3.84,20.9,5.75,31.35c13.71-5.78,27.42-11.56,41.12-17.34
				c-4.52-9.14-9.05-18.29-13.57-27.43c-4.21-8.51-16.47-13.23-25.41-10.34c-10.34,3.35-15.14,11.37-16.52,21.7
				c-1.04,7.8,0.1,16.36,3.08,23.63c13.71-5.78,27.42-11.56,41.12-17.34c-1.38-2.27-2.69-4.58-3.87-6.97
				c-0.27-0.53-0.52-1.06-0.77-1.6c-0.52-1.15-0.51-1.07,0.06,0.26c0.65,1.61,0.58,1.41-0.21-0.59c-0.2-0.55-0.41-1.11-0.61-1.66
				c-0.79-2.23-1.49-4.49-2.09-6.77c-0.36-1.36-0.52-2.99-1.01-4.32c-0.7-4.24-2.09-1.33-4.15,8.72c-5.78,8.33-6.86,11.39-3.23,9.18
				c1.27-0.48,2.53-1.3,3.75-1.94c3.34-1.77-0.77,0.2-0.77,0.24c-0.03-0.53,6.39-2.27,7.12-2.49c4.88-1.48,9.81-2.34,14.8-3.31
				c3.19-0.62-4.17,0.44-0.92,0.11c1.13-0.11,2.26-0.26,3.39-0.37c2.56-0.26,5.12-0.45,7.68-0.61c5.13-0.32,10.28-0.47,15.42-0.57
				c4.92-0.1,9.85-0.24,14.77-0.06c1.46,0.05,2.92,0.17,4.38,0.26c3.25,0.21,0.24-0.5-0.81-0.12c0.93-0.34,3.32,0.73,4.2,0.98
				c1.18,0.34,4.9,1.96,0.28-0.13c10.7,4.84,24.71,3.43,30.78-8.07c5.21-9.85,3.37-25.6-8.07-30.78
				c-9.04-4.09-17.32-6.17-27.26-6.94c-6.63-0.52-13.33-0.24-19.98-0.09c-14.21,0.32-28.55,1.27-42.48,4.25
				c-6.76,1.44-13.14,3.68-19.5,6.36c-10.08,4.25-19.81,9.59-23.06,20.96c-2.37,8.26,0.14,17.87,2.8,25.84
				c2.66,7.98,6.16,15.8,10.53,22.99c5.84,9.62,17.76,13.57,28.1,9.21c9.3-3.93,17.29-16.15,13.03-26.54
				c-0.52-1.27-1.01-2.53-1.39-3.85c-0.17-0.52-0.31-1.05-0.42-1.59c-0.37-1.7-0.33-1.05,0.11,1.94c0.3-0.61-0.17-2.55-0.17-3.27
				c0-1.65,0.17-3.26,0.39-4.9c-13.98,3.79-27.95,7.57-41.93,11.36c4.52,9.14,9.05,18.29,13.57,27.43
				c4.96,10.03,18.46,13.27,28.1,9.21c10.85-4.58,15.08-15.34,13.03-26.54c-1.92-10.45-3.84-20.9-5.75-31.35
				c-14.46,3.99-28.93,7.98-43.39,11.96c1.1,3.08,2.08,6.18,2.86,9.36c0.36,1.44,0.68,2.89,0.97,4.34c0.22,1.13,1.85,6.48,0.29,1.05
				c1.68,5.82,0.68,13.61,0.13,19.54c-1.09,11.75,11.13,23.01,22.5,22.5C293.73,324.94,301.94,315.62,303.11,303.03L303.11,303.03z"
				/>
		</g>
	</g>
	<g>
		<g>
			<path class="st0" d="M343.41,250.47c0.71,2.78,1.42,5.56,2.13,8.33c2.35,9.2,12.03,16.95,21.7,16.52
				c10.1-0.45,18.74-6.7,21.7-16.52c1.93-6.4,2.83-13.34,2.16-20.01c-1.18-11.67-9.5-23.08-22.5-22.5
				c-12.15,0.54-22.55,9.89-22.5,22.5c0.03,6.65,0.06,13.31,0.09,19.96c0.05,11.23,8.53,20.62,19.51,22.1
				c10.82,1.45,21.85-5.21,24.69-16.12c1.77-6.8,2.67-14.04,1.85-21.05c-0.72-6.17-2.03-11.35-6.59-15.91
				c-3.9-3.9-10.31-6.84-15.91-6.59c-12,0.54-22.74,9.89-22.5,22.5c0.15,8.01,3.01,13.88,8.12,20c5.7,6.83,16.99,7.86,24.58,4.65
				c8.76-3.7,12.96-11.37,13.83-20.56c2.32-24.43-19.94-43.85-42.38-46.86c-20.42-2.74-41.85,3.29-60.78,10.72
				c-5.64,2.21-10.28,4.93-13.45,10.34c-2.82,4.82-4.02,11.93-2.27,17.34c3.43,10.6,15.95,20.32,27.68,15.71
				c7-2.75,14.14-5.12,21.42-7.01c3.29-0.85,6.61-1.62,9.95-2.26c0.72-0.14,6.53-0.8,3.23-0.58c-3.36,0.22,2.6-0.08,3.27-0.1
				c1.49-0.04,2.96,0.06,4.44,0.07c4.96,0.02-3.35-1.17,0.99,0.26c0.86,0.21,1.71,0.46,2.55,0.76c1.76,0.62,1.14,0.34-1.87-0.82
				c0.29,0.38,3.28,2.1,3.74,2.29c-2.4-1.91-2.98-2.29-1.75-1.16c0.54,0.5,1.04,1.02,1.52,1.57c-0.58-0.76-1.16-1.52-1.74-2.28
				c0.54,0.79,1.03,1.6,1.48,2.45c-0.03,0.01-2.22-5.33-0.56-0.76c0.39,1.73,0.28,0.9-0.33-2.51c0.03,0.95-0.02,1.9-0.15,2.84
				c12.8-5.3,25.61-10.61,38.41-15.91c-0.32-0.39-0.65-0.77-0.97-1.16c1.93,3.31,3.86,6.62,5.79,9.93c0.08,1.02,0.16,2.03,0.25,3.05
				c-15,0-30,0-45,0c0.27,2.27,0.23,4.47,0.31,6.74c-0.21,2.57-0.14,2.25,0.22-0.95c-0.21,1.11-0.47,2.2-0.77,3.29
				c14.73,1.99,29.46,3.99,44.2,5.98c-0.03-6.65-0.06-13.31-0.09-19.96c-15,0-30,0-45,0c0.21,2.09,0.12,4.12,0.18,6.21
				c-0.13,1.71-0.06,1.18,0.21-1.58c-0.24,1.16-0.55,2.3-0.93,3.43c14.46,0,28.93,0,43.39,0c-0.71-2.78-1.42-5.56-2.13-8.33
				c-2.91-11.41-16.26-19.41-27.68-15.71C347.34,226.6,340.29,238.24,343.41,250.47L343.41,250.47z"/>
		</g>
	</g>
	<g>
		<g>
			<path class="st0" d="M261.57,294.53c1.19,29.33,3.49,58.59,6.89,87.74c0.72,6.16,2.03,11.35,6.59,15.91
				c3.9,3.9,10.31,6.84,15.91,6.59c11.02-0.49,23.96-9.98,22.5-22.5c-3.4-29.15-5.7-58.42-6.89-87.74
				c-0.48-11.74-10.01-23.06-22.5-22.5C272.29,272.56,261.06,281.93,261.57,294.53L261.57,294.53z"/>
		</g>
	</g>
	<g>
		<g>
			<path class="st0" d="M255.03,298.25c3.09,30.75,6.34,61.49,9.73,92.21c14.73-1.99,29.46-3.99,44.2-5.98
				c-1.15-8.43-2.3-16.86-3.45-25.29c-0.7-5.16-6.08-10.96-10.34-13.45c-4.82-2.82-11.93-4.02-17.34-2.27
				c-5.44,1.76-10.7,5.14-13.45,10.34c-3.03,5.74-3.14,10.98-2.27,17.34c1.15,8.43,2.3,16.86,3.45,25.29
				c0.68,4.95,6.08,11.2,10.34,13.45c4.54,2.4,9.23,3.36,14.35,2.67c10.06-1.35,20.74-10.96,19.51-22.1
				c-3.4-30.72-6.64-61.46-9.73-92.21c-1.17-11.68-9.51-23.08-22.5-22.5C266.35,276.25,253.77,285.71,255.03,298.25L255.03,298.25z"
				/>
		</g>
	</g>
	<g>
		<g>
			<path class="st0" d="M247.94,284.84c4.6,34.56,10.32,68.92,17.61,103.02c2.47,11.53,16.58,19.31,27.68,15.71
				c12.31-3.98,18.15-15.28,15.71-27.68c-3.73-18.97-7.46-37.93-11.19-56.9c-2.28-11.57-16.71-19.26-27.68-15.71
				c-12.31,3.98-18.15,15.28-15.71,27.68c3.73,18.97,7.46,37.93,11.19,56.9c14.46-3.99,28.93-7.98,43.39-11.96
				c-3.37-15.73-6.45-31.53-9.21-47.38c-1.35-7.76-2.63-15.54-3.83-23.33c-0.6-3.89-1.18-7.79-1.75-11.69
				c-0.28-1.95-0.56-3.9-0.83-5.85c-0.15-1.05-1.1-8.13-0.39-2.8c-0.83-6.21-1.97-11.29-6.59-15.91c-3.9-3.9-10.31-6.84-15.91-6.59
				C259.58,262.82,246.27,272.34,247.94,284.84L247.94,284.84z"/>
		</g>
	</g>
	<g>
		<g>
			<path class="st0" d="M247.21,293.11c4.4,19.8,8.37,39.7,11.86,59.68c1.69,9.67,3.27,19.36,4.74,29.06
				c0.79,5.18,1.54,10.36,2.26,15.54c0.18,1.3,0.36,2.59,0.54,3.89c-0.36-2.74-0.37-2.79-0.02-0.14c0.34,2.6,0.67,5.19,1,7.79
				c0.78,6.19,1.99,11.31,6.59,15.91c3.9,3.9,10.31,6.84,15.91,6.59c12.32-0.55,22.34-9.88,22.5-22.5
				c0.15-12.14-1.35-24.39-4.19-36.19c-2.76-11.45-16.38-19.37-27.68-15.71c-11.91,3.85-18.67,15.41-15.71,27.68
				c0.6,2.47,1.15,4.95,1.6,7.45c0.22,1.25,0.43,2.5,0.61,3.76c-0.33-2.52-0.4-2.94-0.22-1.25c0.23,4.78,0.65,9.48,0.59,14.27
				c15,0,30,0,45,0c-5.43-42.91-12.61-85.54-22-127.77c-2.56-11.5-16.52-19.33-27.68-15.71
				C250.85,269.34,244.48,280.79,247.21,293.11L247.21,293.11z"/>
		</g>
	</g>
	<g>
		<g>
			<path class="st0" d="M258.4,345.73c1.17,29.97,2.41,59.95,3.73,89.91c0.5,11.25,8.18,20.58,19.51,22.1
				c11.25,1.51,21.27-5.33,24.69-16.12c0.35-1.1,0.7-2.21,1.05-3.31c3.55-11.22-4.18-25.05-15.71-27.68
				c-12.27-2.79-23.87,3.7-27.68,15.71c-0.35,1.1-0.7,2.21-1.05,3.31c14.73,1.99,29.46,3.99,44.2,5.98
				c-1.32-29.97-2.56-59.94-3.73-89.91c-0.46-11.75-10.02-23.06-22.5-22.5C269.1,323.76,257.91,333.13,258.4,345.73L258.4,345.73z"
				/>
		</g>
	</g>
	<g>
		<g>
			<path class="st0" d="M258.45,366.47c-0.66,21.47-0.31,42.94,1.05,64.38c0.72,11.26,8.02,20.55,19.51,22.1
				c10.81,1.45,21.86-5.21,24.69-16.12c3.12-12.07,3.1-25.01-0.98-36.86c-3.13-9.08-11.45-16.98-21.7-16.52
				c-10.72,0.48-17.83,6.87-21.7,16.52c-3.33,8.32-2.47,17.08-1.84,25.74c0.1,1.4,0.18,2.79,0.15,4.2
				c-0.11,5.15,0.76-2.74,0.23-0.63c-1.21,4.78,1.63-2.08,0.58-0.47c-0.83,1.5-0.24,0.85,1.78-1.95c-1.65,1.63-1.1,1.26,1.64-1.11
				c-13.4,8.77-15.74,30.64,0,38.86c3.31,1.73,6.62,3.45,9.93,5.18c3.79-13.98,7.57-27.95,11.36-41.93
				c-1.82-0.19-3.65-0.39-5.47-0.58c-11.09-1.18-20.75,9.47-22.1,19.51c-1.37,10.21,5.08,22.68,16.12,24.69
				c18.03,3.27,36.06,7.08,54.27,9.21c16.97,1.98,36.46,0.42,50.87-9.68c10.59-7.42,17.21-17.31,18.37-30.37
				c0.75-8.45-1.26-17.56-2.23-25.96c-2.19-18.98-4.69-37.92-7.44-56.82c-2.89-19.84-6.14-39.63-9.71-59.36
				c-2.1-11.61-16.83-19.22-27.68-15.71c-12.45,4.03-17.97,15.24-15.71,27.68c3.63,20.05,6.93,40.17,9.86,60.33
				c0.66,4.55,1.29,9.11,1.93,13.67c0.36,2.64,0.36,2.61-0.01-0.12c0.17,1.3,0.35,2.61,0.52,3.91c0.34,2.61,0.68,5.22,1.01,7.82
				c1.24,9.78,2.39,19.58,3.46,29.38c0.28,2.61,0.59,5.23,0.84,7.84c0.14,1.22,0.24,2.45,0.31,3.68c-0.06,2.63,0.05,2.45,0.34-0.53
				c0.41-0.89,0.82-1.78,1.22-2.68c-1.25,2.03-0.92,1.69,1.01-1.02c-1.74,1.64-1.33,1.44,1.23-0.6c-0.81,0.58-1.64,1.12-2.5,1.61
				c-0.91,0.52-1.84,1-2.79,1.43c2.85-1.16,3.12-1.32,0.78-0.46c-2.12,0.52-4.21,1.11-6.34,1.6c-4.86,1.12,4.09-0.02-0.54-0.01
				c-2.22,0-4.43,0.18-6.66,0.13c-2.25-0.05-4.49-0.2-6.73-0.4c-1.13-0.1-2.25-0.22-3.38-0.36c3.17,0.45,3.48,0.49,0.93,0.12
				c-3.99-0.65-7.97-1.32-11.95-2.05c-10.43-1.89-20.86-3.78-31.29-5.68c-1.99,14.73-3.99,29.46-5.98,44.2
				c1.82,0.19,3.65,0.39,5.47,0.58c9.32,0.99,19.68-7.66,21.7-16.52c2.15-9.42-1.29-20.69-10.34-25.41
				c-3.31-1.73-6.62-3.45-9.93-5.18c0,12.95,0,25.9,0,38.86c11.46-7.49,16.72-18.63,17.89-31.99c0.33-3.8-0.06-7.5-0.37-11.29
				c-0.2-2.35-0.21-4.68-0.33-7.03c0.17-2.59,0.11-2.3-0.17,0.88c0.27-1.12,0.64-2.2,1.12-3.24c-14.46,0-28.93,0-43.39,0
				c0.6,1.74,1.06,3.43,1.53,5.2c1.37,5.13,0.25-4.13,0.12,1.19c-0.04,1.64,0.46,3.9-0.15,5.42c0.1-0.8,0.2-1.6,0.3-2.4
				c-0.22,1.19-0.5,2.36-0.83,3.52c14.73,1.99,29.46,3.99,44.2,5.98c-1.36-21.44-1.72-42.91-1.05-64.38
				c0.36-11.78-10.61-23.03-22.5-22.5C268.45,344.53,258.83,353.85,258.45,366.47L258.45,366.47z"/>
		</g>
	</g>
	<g>
		<g>
			<path class="st0" d="M331.43,268.66c2.41,11.73,4.56,23.5,6.39,35.33c0.44,2.88,0.87,5.76,1.28,8.64
				c0.09,0.6,0.72,5.94,0.39,2.78c-0.29-2.82,0.16,1.33,0.23,1.82c0.77,6.1,1.46,12.21,2.07,18.32c1.16,11.59,2.03,23.21,2.61,34.84
				c0.31,6.14,0.53,12.28,0.68,18.43c0.07,2.91,0.12,5.82,0.15,8.73c0.01,1.29,0.03,2.59,0.03,3.88c0.01,10.05-1.36-6.53,8.5-11.6
				c-10.49,5.39-14.41,20.96-8.07,30.78c6.9,10.7,19.56,13.83,30.78,8.07c17.06-8.76,13.94-30.75,13.41-46.67
				c-0.45-13.58-1.3-27.15-2.54-40.68c-2.6-28.41-6.77-56.72-12.52-84.66c-2.38-11.55-16.64-19.29-27.68-15.71
				C334.92,244.94,328.88,256.29,331.43,268.66L331.43,268.66z"/>
		</g>
	</g>
	<g>
		<g>
			<path class="st0" d="M337.99,267.44c0.93,5.78,1.88,11.56,2.6,17.37c-0.26-2.09-0.33-2.53-0.03-0.18
				c0.16,1.29,0.33,2.58,0.49,3.87c0.36,2.91,0.69,5.81,1.01,8.72c1.28,11.64,2.27,23.31,2.96,35c1.37,23.06,1.57,46.17,0.68,69.25
				c15,0,30,0,45,0c-1.93-45.38-2.31-90.81-1.14-136.21c-14.73,1.99-29.46,3.99-44.2,5.98c0.5,2.84,0.98,5.69,1.42,8.54
				c0.19,1.27,0.37,2.54,0.56,3.8c0.52,3.44-0.43-3.73-0.04-0.27c0.65,5.73,1.3,11.45,1.77,17.2c0.91,11.19,1.39,22.41,1.58,33.63
				c0.38,22.5-0.4,45-1.19,67.48c15,0,30,0,45,0c1.35-41.53,1.79-83.09,1.31-124.65c-0.14-11.76-10.25-23.05-22.5-22.5
				c-12.52,0.56-22.08,9.88-22.5,22.5c-1.37,41.21-2.73,82.43-4.1,123.64c-0.39,11.78,10.63,23.03,22.5,22.5
				c12.52-0.56,22.08-9.88,22.5-22.5c1.37-41.21,2.73-82.43,4.1-123.64c-15,0-30,0-45,0c0.48,41.55,0.05,83.11-1.31,124.65
				c-0.38,11.78,10.62,23.03,22.5,22.5c12.54-0.56,22.06-9.88,22.5-22.5c1.67-47.65,2.64-95.21-5.71-142.36
				c-1.95-10.99-14.56-17.48-24.69-16.12c-11.15,1.5-19.22,10.8-19.51,22.1c-1.17,45.4-0.79,90.83,1.14,136.21
				c0.5,11.74,9.99,23.06,22.5,22.5c12.58-0.56,22.02-9.89,22.5-22.5c1.87-48.9-1.54-97.7-9.31-146
				c-1.88-11.65-16.99-19.17-27.68-15.71C341.07,243.85,335.98,254.95,337.99,267.44L337.99,267.44z"/>
		</g>
	</g>
	<g>
		<g>
			<path class="st0" d="M330.26,366.41c-6.92,13.94-8.74,28.49-9.68,43.87c-0.83,13.57-1.63,27.14-2.45,40.71
				c-1.05,17.41,19.78,27.54,33.86,19.43c20.76-11.97,24.65-42.02,7.57-58.85c-6.69-6.6-19.08-9.12-27.27-3.52
				c-13.18,9.01-20.5,21.76-21.58,37.68c-0.8,11.77,10.92,23.02,22.5,22.5c12.87-0.58,21.64-9.89,22.5-22.5
				c-0.41,6.01-0.27,2.05,0.17,0.25c0.93-3.79-1.77,2.61-0.23,0.71c2.6-3.19-1.14-0.23-0.53,0.43c0.34-0.35,0.68-0.7,1.02-1.04
				c1.8-1.59,1.43-1.32-1.13,0.82c-9.09-1.17-18.18-2.35-27.27-3.52c2.13,2.1-1.01-1.45-1.32-1.94c1.6,2.51-0.69-1.74-0.85-2.3
				c0.89,2.98-0.31-2.12-0.15-2.63c-0.22,0.7-0.37,4.83,0.28,0.45c0.59-3.96,0.16-0.99-0.18-0.18c-1.06,2.51,2.28-4.58,0.9-2.24
				c-1.29,2.2,3.31-3.61,1.48-1.85c-1.7,1.64,4.94-3.2,1.37-1.14c11.29,6.48,22.57,12.95,33.86,19.43
				c0.74-12.28,1.48-24.56,2.21-36.83c0.17-2.76,0.32-5.52,0.51-8.28c0.13-1.87-0.39-6.43,0.72-7.95c-0.39,2.77-0.45,3.3-0.18,1.61
				c0.09-0.58,0.19-1.16,0.31-1.73c0.28-1.43,0.59-2.86,0.96-4.27c0.3-1.13,0.67-2.23,1-3.35c1.58-5.4-2.06,4,0.45-1.06
				c5.23-10.53,3.17-24.85-8.07-30.78C350.87,352.97,335.84,355.16,330.26,366.41L330.26,366.41z"/>
		</g>
	</g>
	<g>
		<g>
			<path class="st0" d="M137.19,309.86c3.73,11.77,7.46,23.53,11.19,35.3c2.91,9.17,17.39,5.25,14.46-3.99
				c-3.73-11.77-7.46-23.53-11.19-35.3C148.75,296.7,134.26,300.62,137.19,309.86L137.19,309.86z"/>
		</g>
	</g>
	<g>
		<g>
			<path class="st0" d="M391.19,457.99c17.95-10.12,34.68-22.22,50-35.99c7.19-6.47-3.44-17.05-10.61-10.61
				c-14.4,12.94-30.11,24.14-46.97,33.65C375.22,449.78,382.77,462.74,391.19,457.99L391.19,457.99z"/>
		</g>
	</g>
	<g>
		<g>
			<path class="st0" d="M391.23,451.55c-0.18-0.37-0.37-0.75-0.55-1.12c0.34,1.26,0.68,2.52,1.02,3.79
				c-0.57,0.55-0.49,0.46,0.24-0.27c0.41-0.4,0.87-0.74,1.37-1.01c1.31-0.9,2.77-1.6,4.14-2.41c3.05-1.81,6.04-3.73,8.96-5.74
				c5.69-3.92,11.18-8.18,16.38-12.72c10.57-9.24,19.8-19.86,27.84-31.36c5.54-7.93-7.46-15.43-12.95-7.57
				c-9,12.87-19.99,24.47-32.43,34.06c-6.01,4.64-12.48,8.42-18.91,12.43c-7.05,4.39-12.2,11.15-8.06,19.5
				C382.57,467.77,395.51,460.18,391.23,451.55L391.23,451.55z"/>
		</g>
	</g>
	<g>
		<g>
			<path class="st0" d="M376.14,440.33c-2.31,9.59,7.79,14.23,15.14,9.39c7.06-4.65,13.43-11.12,19.7-16.77
				c12.77-11.53,24.87-23.77,36.33-36.61c6.41-7.18-4.16-17.82-10.61-10.61c-8.39,9.39-17.11,18.48-26.21,27.19
				c-4.44,4.25-8.96,8.41-13.55,12.48c-2.3,2.04-4.62,4.05-6.96,6.04c-1.77,1.51-5.04,5.31-7.32,5.88c1.93,0.25,3.85,0.5,5.78,0.76
				c0.39,0.46,0.79,0.92,1.18,1.37c0.25,1.93,0.5,3.85,0.76,5.78c0.07-0.31,0.15-0.61,0.22-0.92
				C392.86,434.94,378.4,430.94,376.14,440.33L376.14,440.33z"/>
		</g>
	</g>
	<g>
		<g>
			<path class="st0" d="M392.08,452.11c28.33-24.55,54.39-51.59,77.89-80.82c2.56-3.18,3.05-7.49,0-10.61
				c-2.6-2.66-8.07-3.15-10.61,0c-23.49,29.22-49.55,56.26-77.89,80.82C374.17,447.84,384.81,458.41,392.08,452.11L392.08,452.11z"
				/>
		</g>
	</g>
	<g>
		<g>
			<path class="st0" d="M446.26,398.91c8.96-11.43,16.66-23.57,22.83-36.73c4.03-8.61-8.07-16.08-12.95-7.57
				c-11.01,19.19-22.11,38.51-37.24,54.81c3.93,3.03,7.85,6.06,11.78,9.09c10.23-18.73,21.67-36.75,34.27-53.98
				c2.41-3.29,0.53-8.33-2.69-10.26c-3.81-2.28-7.84-0.53-10.26,2.69c-12.01,15.97-23.41,32.37-34.21,49.18
				c-5.3,8.26,7.4,15.25,12.95,7.57c10.63-14.71,21.26-29.42,31.89-44.14c-4.32-2.52-8.63-5.05-12.95-7.57
				c-5.18,9.69-10.36,19.38-15.54,29.07c4.32,2.52,8.63,5.05,12.95,7.57c6.88-13.73,13.75-27.45,20.63-41.18
				c4.3-8.57-8.36-16.13-12.95-7.57c-5.32,9.91-10.64,19.83-15.97,29.74c4.32,2.52,8.63,5.05,12.95,7.57
				c7.38-15.09,14.76-30.19,22.15-45.28c-4.32-2.52-8.63-5.05-12.95-7.57c-6.76,14.72-14.57,28.9-23.39,42.49
				c4.32,2.52,8.63,5.05,12.95,7.57c6.13-13.52,12.94-26.7,20.42-39.52c-4.32-2.52-8.63-5.05-12.95-7.57
				c-5.77,10.8-11.54,21.61-17.31,32.41c4.32,2.52,8.63,5.05,12.95,7.57c5.52-12.02,11.05-24.04,16.57-36.07
				c-4.57-1.93-9.14-3.85-13.71-5.78c-1.61,6.38-3.23,12.75-4.84,19.13c-2.37,9.36,11.96,13.33,14.46,3.99
				c4.75-17.74,7.64-35.91,8.73-54.24c-5,0-10,0-15,0c0.11,10.74-0.55,21.46-2.24,32.08c-1.48,9.32,12.33,13.58,14.46,3.99
				c2.53-11.4,4.15-22.98,4.87-34.64c0.52-8.32-13.27-10.38-14.73-1.99c-1.56,8.93-2.39,17.88-2.29,26.94
				c0.09,8.13,13.28,10.6,14.73,1.99c2.95-17.48,2.83-34.87-0.42-52.31c-1.77-9.48-16.23-5.46-14.46,3.99
				c2.72,14.6,2.89,29.68,0.42,44.33c4.91,0.66,9.82,1.33,14.73,1.99c-0.09-7.71,0.43-15.35,1.75-22.95
				c-4.91-0.66-9.82-1.33-14.73-1.99c-0.64,10.35-2.09,20.53-4.34,30.65c4.82,1.33,9.64,2.66,14.46,3.99
				c1.9-11.95,2.91-23.96,2.78-36.06c-0.1-9.72-14.43-9.58-15,0c-1.01,17.03-3.78,33.77-8.2,50.25c4.82,1.33,9.64,2.66,14.46,3.99
				c1.61-6.38,3.23-12.75,4.84-19.13c2-7.9-10.03-13.77-13.71-5.78c-5.52,12.02-11.05,24.04-16.57,36.07
				c-3.96,8.62,8.33,16.22,12.95,7.57c5.77-10.8,11.54-21.61,17.31-32.41c4.54-8.5-8.07-15.94-12.95-7.57
				c-7.48,12.82-14.29,26-20.42,39.52c-3.93,8.68,7.6,15.81,12.95,7.57c8.82-13.59,16.63-27.76,23.39-42.49
				c3.98-8.66-8.68-16.31-12.95-7.57c-7.38,15.09-14.76,30.19-22.15,45.28c-4.2,8.59,8.35,16.15,12.95,7.57
				c5.32-9.91,10.64-19.83,15.97-29.74c-4.32-2.52-8.63-5.05-12.95-7.57c-6.88,13.73-13.75,27.45-20.63,41.18
				c-4.3,8.58,8.37,16.14,12.95,7.57c5.18-9.69,10.36-19.38,15.54-29.07c4.63-8.67-7.38-15.29-12.95-7.57
				c-10.63,14.71-21.26,29.42-31.89,44.14c4.32,2.52,8.63,5.05,12.95,7.57c10.79-16.81,22.2-33.21,34.21-49.18
				c-4.32-2.52-8.63-5.05-12.95-7.57c-12.6,17.23-24.04,35.25-34.27,53.98c-3.97,7.26,5.8,15.53,11.78,9.09
				c16.01-17.25,27.93-37.54,39.58-57.85c-4.32-2.52-8.63-5.05-12.95-7.57c-5.59,11.93-12.35,23.32-20.48,33.7
				c-2.52,3.21-3.07,7.46,0,10.61C438.22,401.53,443.76,402.09,446.26,398.91L446.26,398.91z"/>
		</g>
	</g>
	<g>
		<g>
			<path class="st0" d="M394.45,280.68c6.86-11.06,15.67-20.83,26.17-28.55c-3.42-3.42-6.84-6.84-10.26-10.26
				c-0.55,1.26-0.12,1.16-1.07,1.43c-9.25,2.68-5.32,17.16,3.99,14.46c4.39-1.27,8.17-4.06,10.03-8.32
				c1.36-3.11,1.38-6.54-1.17-9.09c-2.18-2.18-6.44-3.12-9.09-1.17c-12.65,9.3-23.27,20.56-31.55,33.93
				C376.4,281.34,389.37,288.88,394.45,280.68L394.45,280.68z"/>
		</g>
	</g>
	<g>
		<g>
			<path class="st0" d="M380.4,277.15c-3.81,3.57-4.08,8.4-1.85,12.87c2.26,4.53,8.44,4.56,11.78,1.52
				c10.71-9.75,21.41-19.49,32.12-29.24c6.17-5.62-2.26-17.02-9.09-11.78c-3.13,2.4-6.25,4.8-9.38,7.2
				c-3.24,2.49-4.87,6.42-2.69,10.26c1.81,3.18,7.05,5.15,10.26,2.69c3.13-2.4,6.25-4.8,9.38-7.2c-3.03-3.93-6.06-7.85-9.09-11.78
				c-10.71,9.75-21.41,19.49-32.12,29.24c3.93,0.51,7.85,1.01,11.78,1.52c-0.16-0.32-0.32-0.64-0.48-0.96
				c0.34,1.26,0.68,2.52,1.02,3.79c-0.35,0.83-0.69,1.65-1.04,2.48C398.06,281.14,387.44,270.55,380.4,277.15L380.4,277.15z"/>
		</g>
	</g>
	<g>
		<g>
			<path class="st0" d="M393.18,277.89c-0.11-0.12-0.21-0.24-0.32-0.36c-2.04-2.32-6.5-2.96-9.09-1.17
				c-3.73,2.58-5.77,6.92-3.5,11.27c2.33,4.45,8.04,5.38,12.11,2.91c3.43-2.08,5.39-6.18,7.86-9.23c2.75-3.4,5.74-6.63,8.9-9.66
				c12.14-11.67,27.03-20.05,43.22-24.61c9.28-2.61,5.34-17.09-3.99-14.46c-13.01,3.66-25.49,9.48-36.46,17.4
				c-5.53,4-10.8,8.37-15.58,13.24c-2.17,2.21-4.24,4.5-6.21,6.89c-1.06,1.29-2.09,2.6-3.11,3.93c-0.65,0.84-2.03,3.44-2.67,3.88
				c1.26-0.34,2.52-0.68,3.79-1.02c-0.35,0-0.69,0-1.04-0.01c2.16,1.24,4.32,2.48,6.48,3.71c-0.11-0.18-0.23-0.36-0.34-0.54
				c0,2.52,0,5.05,0,7.57c-0.63,0.56-1.26,1.12-1.88,1.68c-3.03-0.39-6.06-0.78-9.09-1.17c0.11,0.12,0.21,0.24,0.32,0.36
				C388.96,295.76,399.53,285.12,393.18,277.89L393.18,277.89z"/>
		</g>
	</g>
	<g>
		<g>
			<path class="st0" d="M418.61,246.77c-1.58,0.07-3.15,0.15-4.73,0.22c-3.22,0.15-6.44,2.22-7.23,5.51
				c-0.06,0.25-0.12,0.51-0.18,0.76c-0.62,2.57-0.05,5.43,1.93,7.3c3.54,3.34,7.49,3.3,12.11,3.64c4.94,0.36,9.88,0.73,14.82,1.09
				c0-5,0-10,0-15c-7.58,0.02-15.17,0.04-22.75,0.05c0.66,4.91,1.33,9.82,1.99,14.73c16.32-6.25,31.28-1.48,46.05,6.45
				c8.5,4.56,16.09-8.38,7.57-12.95c-18.03-9.67-37.65-15.6-57.6-7.96c-7.52,2.88-7,14.75,1.99,14.73
				c7.58-0.02,15.17-0.04,22.75-0.05c9.75-0.02,9.53-14.3,0-15c-3.29-0.24-6.59-0.48-9.88-0.73c-1.32-0.1-2.63-0.19-3.95-0.29
				c-0.99-0.07-1.98-0.15-2.96-0.22c-1.52-0.27-1.36,0.02,0.47,0.9c0.64,2.43,1.29,4.86,1.93,7.3c0.06-0.25,0.12-0.51,0.18-0.76
				c-2.41,1.84-4.82,3.67-7.23,5.51c1.58-0.07,3.15-0.15,4.73-0.22C428.22,261.32,428.28,246.32,418.61,246.77L418.61,246.77z"/>
		</g>
	</g>
	<g>
		<g>
			<path class="st0" d="M443.7,264.05c5.7,6.93,11.4,13.85,17.1,20.78c5.44,6.6,16.25-1.95,11.78-9.09
				c-4.27-6.82-9.43-12.93-15.58-18.13c-6.38-5.38-15.95,1.28-11.78,9.09c5.87,10.98,10.76,22.34,14.68,34.16
				c3.04,9.16,16.53,5.47,14.46-3.99c-0.82-3.78-1.65-7.57-2.47-11.35c-1.79-8.2-15.18-6.48-14.73,1.99
				c0.36,6.81,0.73,13.62,1.09,20.44c0.51,9.6,15.52,9.66,15,0c-0.36-6.81-0.73-13.62-1.09-20.44c-4.91,0.66-9.82,1.33-14.73,1.99
				c0.82,3.78,1.65,7.57,2.47,11.35c4.82-1.33,9.64-2.66,14.46-3.99c-4.32-13.02-9.73-25.64-16.19-37.74
				c-3.93,3.03-7.85,6.06-11.78,9.09c5.21,4.4,9.62,9.31,13.23,15.09c3.93-3.03,7.85-6.06,11.78-9.09
				c-5.7-6.93-11.4-13.85-17.1-20.78c-2.59-3.15-7.91-2.64-10.61,0C440.57,256.5,441.14,260.94,443.7,264.05L443.7,264.05z"/>
		</g>
	</g>
	<g>
		<g>
			<path class="st0" d="M369.81,327.43c1.54,18.59,3.07,37.18,4.61,55.77c0.78,9.48,15.09,9.79,15,0
				c-0.24-25.23-0.48-50.47-0.72-75.7c-4.91,0.66-9.82,1.33-14.73,1.99c3.91,21.22,4.35,42.87,1.74,64.28
				c-0.49,4.03,3.8,7.5,7.5,7.5c4.46,0,7.01-3.46,7.5-7.5c2.78-22.8,1.88-45.69-2.27-68.27c-1.55-8.42-14.81-6.32-14.73,1.99
				c0.24,25.23,0.48,50.47,0.72,75.7c5,0,10,0,15,0c-1.54-18.59-3.07-37.18-4.61-55.77C384.02,317.88,369.01,317.79,369.81,327.43
				L369.81,327.43z"/>
		</g>
	</g>
	<g>
		<g>
			<path class="st0" d="M373.85,278.61c2.19,23.43,3.25,46.94,3.17,70.48c5,0,10,0,15,0c-0.02-2.34-0.04-4.67-0.05-7.01
				c-0.08-9.65-15.08-9.67-15,0c0.02,2.34,0.04,4.67,0.05,7.01c0.08,9.65,14.97,9.67,15,0c0.08-23.54-0.98-47.05-3.17-70.48
				C387.96,269.08,372.95,268.98,373.85,278.61L373.85,278.61z"/>
		</g>
	</g>
	<g>
		<g>
			<path class="st0" d="M382,282.32c-0.61,22.74-0.35,45.49,0.77,68.22c0.48,9.88,13.84,9.39,15,0c2.76-22.31,3.25-44.79,3.68-67.24
				c-5,0-10,0-15,0c1.52,23.5,2,47.05,1.44,70.59c5,0,10,0,15,0c0.02-8.41,0.04-16.82,0.06-25.23c0.02-9.65-14.98-9.67-15,0
				c-0.02,8.41-0.04,16.82-0.06,25.23c-0.02,9.67,14.77,9.65,15,0c0.56-23.54,0.08-47.09-1.44-70.59c-0.62-9.56-14.81-9.74-15,0
				c-0.43,22.45-0.92,44.93-3.68,67.24c5,0,10,0,15,0c-1.12-22.72-1.37-45.47-0.77-68.22C397.25,272.67,382.25,272.67,382,282.32
				L382,282.32z"/>
		</g>
	</g>
	<g>
		<g>
			<path class="st0" d="M386.68,280.85c2.08,44.85-0.78,89.68-3.72,134.42c-0.63,9.64,14.37,9.6,15,0
				c2.93-44.74,5.8-89.57,3.72-134.42C401.23,271.24,386.23,271.18,386.68,280.85L386.68,280.85z"/>
		</g>
	</g>
	<g>
		<g>
			<path class="st0" d="M386.24,339.62c-1.19,30.9-2.37,61.79-3.56,92.69c-0.37,9.65,14.63,9.64,15,0
				c1.19-30.9,2.37-61.79,3.56-92.69C401.61,329.96,386.61,329.98,386.24,339.62L386.24,339.62z"/>
		</g>
	</g>
	<g>
		<g>
			<path class="st0" d="M439.28,258c2.14,2.25,4.28,4.5,6.42,6.75c3.82,4.02,11.23,2.13,12.54-3.31c1.09-4.55-0.74-10.2-5.3-12.2
				c-1.91-0.84-3.68-1.33-5.78-0.76c-1.74,0.48-3.62,1.82-4.48,3.45c-1.72,3.25-1.14,8.58,2.69,10.26c1.09,0.48-1.15-1.3-0.37-0.39
				c-0.25-0.32-0.51-0.63-0.76-0.95c-0.46-1.27-0.59-1.54-0.39-0.8c-0.09-0.66-0.18-1.33-0.27-1.99c0.05,0.37,0.05,0.67,0.01,1.04
				c0.09-0.66,0.18-1.33,0.27-1.99c-0.03,0.11-0.05,0.23-0.08,0.34c4.18-1.1,8.36-2.21,12.54-3.31c-2.14-2.25-4.28-4.5-6.42-6.75
				c-2.71-2.85-7.91-2.93-10.61,0C436.47,250.45,436.39,254.96,439.28,258L439.28,258z"/>
		</g>
	</g>
	<g>
		<g>
			<path class="st0" d="M395.34,448.08c4-1.9,8-3.79,12-5.69c7.58-3.6,2.17-16.82-5.78-13.71c-3.92,1.54-7.25,3.47-10.09,6.64
				c-4.58,5.12-1.17,12.16,5.3,12.8c4.58,0.46,9.09-0.05,13.5-1.35c9.24-2.72,5.35-17.07-3.99-14.46c-2.86,0.8-5.56,1.93-8.16,3.36
				c-6.6,3.64-3.52,13.95,3.79,13.98c5.43,0.02,10.28-1.24,15.17-3.53c7.65-3.57,2.24-16.51-5.78-13.71
				c-5.48,1.91-10.19,4.74-14.19,8.97c-5.78,6.1,1.59,16.19,9.09,11.78c38.43-22.57,66.72-60.81,76.82-104.25
				c2.19-9.39-12.27-13.4-14.46-3.99c-9.25,39.78-34.69,74.59-69.93,95.28c3.03,3.93,6.06,7.85,9.09,11.78
				c2.2-2.33,4.52-4.04,7.57-5.11c-1.93-4.57-3.85-9.14-5.78-13.71c-2.48,1.15-4.91,1.49-7.6,1.48c1.26,4.66,2.52,9.32,3.79,13.98
				c1.57-0.87,2.85-1.37,4.58-1.85c-1.33-4.82-2.66-9.64-3.99-14.46c-3.24,0.95-6.14,1.15-9.51,0.81c1.77,4.27,3.54,8.54,5.3,12.8
				c1.04-1.16,1.98-2.2,3.47-2.78c-1.93-4.57-3.85-9.14-5.78-13.71c-4,1.9-8,3.79-12,5.69C379.05,439.26,386.66,452.2,395.34,448.08
				L395.34,448.08z"/>
		</g>
	</g>
	<g>
		<g>
			<path class="st0" d="M461.98,397.62c26.51-29.3,35.31-72.88,21.09-109.94c-3.42-8.92-17.93-5.05-14.46,3.99
				c12.3,32.04,5.92,69.77-17.23,95.35C444.91,394.16,455.49,404.8,461.98,397.62L461.98,397.62z"/>
		</g>
	</g>
	<g>
		<g>
			<path class="st0" d="M479.51,350.59c0.48-5.13,0.96-10.27,1.44-15.4c0.72-7.65-10.46-9.87-13.98-3.79
				c-3.64,6.29-7.27,12.59-10.91,18.88c4.57,1.93,9.14,3.85,13.71,5.78c2.6-7.95,3.91-16.23,4-24.59
				c0.09-8.18-13.55-10.55-14.73-1.99c-0.81,5.86-1.62,11.72-2.43,17.58c4.91,0.66,9.82,1.33,14.73,1.99
				c-0.02-3.42-0.05-6.84-0.07-10.27c-0.05-6.97-10.73-10.82-13.98-3.79c-1.28,2.77-2.56,5.54-3.84,8.31
				c4.32,2.52,8.63,5.05,12.95,7.57c2.41-5.52,3.84-10.79,4.58-16.77c0.45-3.65-3.2-6.97-6.5-7.37c-3.89-0.46-6.9,1.78-8.23,5.37
				c-0.65,1.75-1.3,3.51-1.95,5.26c4.91,0.66,9.82,1.33,14.73,1.99c-0.04-2.24-0.07-4.48-0.11-6.72
				c-0.13-8.1-13.36-10.63-14.73-1.99c-0.54,3.38-1.07,6.76-1.61,10.14c-1.25,7.89,9.19,13.71,13.71,5.78
				c0.85-1.49,1.69-2.97,2.54-4.46c4.78-8.4-8.17-15.97-12.95-7.57c-0.85,1.49-1.69,2.97-2.54,4.46c4.57,1.93,9.14,3.85,13.71,5.78
				c0.54-3.38,1.07-6.76,1.61-10.14c-4.91-0.66-9.82-1.33-14.73-1.99c0.04,2.24,0.07,4.48,0.11,6.72
				c0.14,8.81,11.87,9.73,14.73,1.99c0.65-1.75,1.3-3.51,1.95-5.26c-4.91-0.66-9.82-1.33-14.73-1.99c-0.38,3.09-1.29,6.35-2.53,9.2
				c-1.62,3.71-1.09,8.05,2.69,10.26c3.24,1.89,8.56,1,10.26-2.69c1.28-2.77,2.56-5.54,3.84-8.31c-4.66-1.26-9.32-2.52-13.98-3.79
				c0.02,3.42,0.05,6.84,0.07,10.27c0.06,8.12,13.54,10.62,14.73,1.99c0.81-5.86,1.62-11.72,2.43-17.58
				c-4.91-0.66-9.82-1.33-14.73-1.99c-0.08,7.11-1.25,13.85-3.46,20.61c-2.67,8.16,9.5,13.06,13.71,5.78
				c3.64-6.29,7.27-12.59,10.91-18.88c-4.66-1.26-9.32-2.52-13.98-3.79c-0.48,5.13-0.96,10.27-1.44,15.4
				c-0.38,4.04,3.72,7.5,7.5,7.5C476.38,358.09,479.13,354.64,479.51,350.59L479.51,350.59z"/>
		</g>
	</g>
	<g>
		<g>
			<path class="st0" d="M395.36,276.84c4.06-5.65,8.13-11.29,12.19-16.94c-4.32-2.52-8.63-5.05-12.95-7.57
				c-1.32,2.88-3,5.2-6.08,6.35c2.43,4.18,4.86,8.36,7.3,12.54c13.28-15.3,39.04-39.88,59.65-20.97c17.54,16.1,17.44,43.14,15.56,65
				c-0.83,9.62,14.18,9.56,15,0c2.36-27.43,0.15-61-24-78.9c-12.02-8.91-28.05-9.24-41.64-3.88c-14.32,5.65-25.26,16.72-35.18,28.14
				c-4.45,5.13-0.32,15.36,7.3,12.54c6.62-2.46,12.04-6.72,15.04-13.24c4.05-8.8-7.29-15.44-12.95-7.57
				c-4.06,5.65-8.13,11.29-12.19,16.94c-2.38,3.31-0.55,8.32,2.69,10.26C388.85,281.77,393.01,280.11,395.36,276.84L395.36,276.84z"
				/>
		</g>
	</g>
	<g>
		<g>
			<path class="st0" d="M459.03,253.06c-1.88-2.81-3.76-5.62-5.64-8.43c-5.32-7.95-17.84-0.88-12.95,7.57
				c3.36,5.81,8.35,9.79,13.7,13.68c4.78,3.49,9.64,6.93,10.48,13.16c4.57-1.93,9.14-3.85,13.71-5.78
				c-6.55-11.48-28.12-42.26-43.7-27.17c-6.95,6.73,3.67,17.33,10.61,10.61c-2.04,0.15-2.44,0.35-1.2,0.6
				c0.49,0.09,0.93,0.28,1.33,0.58c0.98,0.51,1.8,1.24,2.65,1.94c2.37,1.94,4.58,4.12,6.68,6.34c4.19,4.45,7.65,9.37,10.68,14.68
				c1.86,3.25,5.99,4.49,9.37,3.07c3.74-1.57,4.85-5.07,4.34-8.85c-0.95-7.07-5.63-12.94-11.01-17.33
				c-5.04-4.12-11.33-7.31-14.67-13.09c-4.32,2.52-8.63,5.05-12.95,7.57c1.88,2.81,3.76,5.62,5.64,8.43
				C451.42,268.61,464.42,261.11,459.03,253.06L459.03,253.06z"/>
		</g>
	</g>
	<g>
		<g>
			<path class="st0" d="M438.36,252.32c-1.09,4.02-0.52,8.23,1.52,11.84c1.57,2.78,5.37,4.45,8.47,3.45
				c3.17-1.03,5.48-3.82,5.51-7.23c0.04-5.63-3.68-10.22-8.89-11.99c-3.72-1.26-8.36,1.45-9.23,5.24c-0.95,4.16,1.26,7.88,5.24,9.23
				c0.11,0.04,0.22,0.07,0.33,0.11c-0.6-0.25-1.19-0.5-1.79-0.76c0.44,0.19,0.82,0.41,1.2,0.69c-0.51-0.39-1.01-0.78-1.52-1.17
				c0.27,0.23,0.51,0.46,0.74,0.73c-0.39-0.51-0.78-1.01-1.17-1.52c0.29,0.38,0.52,0.76,0.73,1.19c-0.25-0.6-0.5-1.19-0.76-1.79
				c0.17,0.44,0.29,0.87,0.36,1.34c-0.09-0.66-0.18-1.33-0.27-1.99c0.03,0.23,0.03,0.46,0.02,0.7c4.66-1.26,9.32-2.52,13.98-3.79
				c-0.2-0.35-0.36-0.69-0.52-1.06c0.25,0.6,0.5,1.19,0.76,1.79c-0.23-0.62-0.39-1.24-0.49-1.9c0.09,0.66,0.18,1.33,0.27,1.99
				c-0.07-0.66-0.06-1.3,0-1.96c-0.09,0.66-0.18,1.33-0.27,1.99c0.06-0.39,0.14-0.77,0.25-1.15c1.02-3.78-1.28-8.32-5.24-9.23
				C443.64,246.18,439.46,248.27,438.36,252.32L438.36,252.32z"/>
		</g>
	</g>
	<g>
		<g>
			<path class="st0" d="M467.54,270.8c2.71,18.54,5.41,37.09,8.12,55.63c1.07,7.31,13.12,7.01,14.46,0
				c4.1-21.44,1.58-42.8-7.2-62.76c-1.64-3.74-7.03-4.53-10.26-2.69c-3.85,2.19-4.31,6.58-2.69,10.26
				c7.03,15.98,8.96,34.08,5.69,51.2c4.82,0,9.64,0,14.46,0c-2.71-18.54-5.41-37.09-8.12-55.63c-0.58-4-5.67-6.23-9.23-5.24
				C468.48,262.77,466.95,266.76,467.54,270.8L467.54,270.8z"/>
		</g>
	</g>
	<g>
		<g>
			<path class="st0" d="M400.8,263.01c8.48-13.21,23.9-19.76,39.3-17.97c7.59,0.88,9.93-10.59,3.79-13.98
				c-14.78-8.15-35.39-2.32-42.49,13.45c-1.67,3.72-1.04,8.02,2.69,10.26c3.19,1.91,8.6,1,10.26-2.69
				c3.68-8.19,13.75-12.59,21.96-8.07c1.26-4.66,2.52-9.32,3.79-13.98c-20.65-2.4-41.13,8.07-52.25,25.4
				C382.62,263.59,395.59,271.12,400.8,263.01L400.8,263.01z"/>
		</g>
	</g>
	<g>
		<g>
			<path class="st0" d="M414.95,250.18c0.66-2.82,3.05-5,6.08-4.3c9.39,2.17,13.4-12.25,3.99-14.46
				c-8.65-2.04-17.5,2.81-19.65,11.63c-1.48,6.07,5.3,12.14,11.02,8.47c4.16-2.68,8.5-4.58,13.37-5.52c2.05-0.4,4.12-0.55,6.21-0.56
				c1.23-0.01,2.79,0.43,3.94,0.18c1.97-0.42,0.7,2.16-0.47-1.98c0-1.33,0-2.66,0-3.99c-0.1,0.31-0.19,0.63-0.29,0.94
				c3.67-1.49,7.35-2.99,11.02-4.48c-5.55-3.63-11.71-6.17-18.22-7.45c-0.66,4.91-1.33,9.82-1.99,14.73c3.87,0.5,7.65,0.09,11.39-1
				c8.32-2.41,6.35-14.24-1.99-14.73c-4.93-0.29-8.28,2.07-11.1,5.88c-2.43,3.28-0.52,8.34,2.69,10.26
				c3.79,2.27,7.87,0.55,10.26-2.69c-0.62,0.52-1.23,1.03-1.85,1.55c-0.66-4.91-1.33-9.82-1.99-14.73c-2.56,0.74-4.76,0.8-7.4,0.46
				c-8.34-1.07-10.25,13.1-1.99,14.73c5.38,1.06,10.05,2.94,14.64,5.94c4.19,2.74,9.66-0.07,11.02-4.48
				c3.4-11.01-9.63-14.16-17.65-14.14c-9.62,0.03-19.09,2.94-27.16,8.13c3.67,2.82,7.34,5.65,11.02,8.47
				c0.26-1.06,0.58-1.3,1.2-1.16c1.33-4.82,2.66-9.64,3.99-14.46c-10.74-2.48-21.97,3.8-24.54,14.77
				C398.29,255.58,412.75,259.59,414.95,250.18L414.95,250.18z"/>
		</g>
	</g>
	<g>
		<g>
			<path class="st0" d="M415.87,241.8c-8.18-2.76-17.44,1.06-21.73,8.43c4.57,1.93,9.14,3.85,13.71,5.78
				c-0.21,0.63,0.12-0.37,0.24-0.52c0.57-0.73,0.21-0.39,0.62-0.81c0.32-0.32,1.29-0.9,2.32-1.34c3-1.28,4.24-5.57,3.45-8.47
				c-0.9-3.28-3.92-5.35-7.23-5.51c-4.89-0.23-9.89,1.83-13.07,5.58c-2.61,3.09-3.03,7.57,0,10.61c2.85,2.85,7.76,2.9,10.61,0
				c1.12-1.14,2.24-2.29,3.37-3.43c5.99-6.1-1.62-15.96-9.09-11.78c-3.9,2.18-5.81,5.9-6.12,10.27c-0.28,4.05,3.65,7.5,7.5,7.5
				c4.3,0,7.22-3.44,7.5-7.5c-0.19,1.05-0.63,1.94-1.31,2.68c-3.03-3.93-6.06-7.85-9.09-11.78c-1.12,1.14-2.24,2.29-3.37,3.43
				c3.54,3.54,7.07,7.07,10.61,10.61c0.33-0.43,0.69-0.82,1.09-1.17c-0.44,0.39-0.28,0.33,0.48-0.16c-0.54,0.29-0.37,0.29,0.49,0
				c-0.66,0.14-0.53,0.2,0.4,0.15c-1.26-4.66-2.52-9.32-3.79-13.98c-5.01,2.14-8.36,6.59-10.08,11.63
				c-2.78,8.15,9.5,13.02,13.71,5.78c0.49-0.75,0.54-0.88,0.14-0.38c0.34-0.38,0.71-0.74,1.1-1.07c-0.54,0.4,0.45-0.16,0.37-0.13
				c0.36-0.13,0.73-0.24,1.11-0.32c-0.73,0.04-0.63,0.03,0.29-0.02c0.92,0.05,1.02,0.03,0.29-0.06c0.5,0.1,1,0.25,1.48,0.43
				c3.84,1.3,8.2-1.49,9.23-5.24C422.24,246.92,419.73,243.1,415.87,241.8L415.87,241.8z"/>
		</g>
	</g>
	<g>
		<g>
			<path class="st0" d="M410.41,255.82c3.81-3.58,6.43-7.92,8.28-12.78c1.39-3.64-1.56-8.44-5.24-9.23
				c-3.64-0.78-7.24-0.02-9.96,2.65c-2.75,2.71-3.39,6.24-2.78,9.92c0.65,3.88,5.65,6.4,9.23,5.24c4.2-1.36,5.93-5.07,5.24-9.23
				c0.64,3.82-1.84,6.71-5.72,5.88c-1.75-3.08-3.49-6.15-5.24-9.23c-0.3,0.78-0.22,0.44,0.06-0.11c-0.19,0.36-0.34,0.73-0.53,1.09
				c-0.42,0.81-0.88,1.59-1.39,2.34c-0.09,0.13-0.85,1.21-0.3,0.47c0.54-0.74-0.26,0.29-0.37,0.42c-0.6,0.69-1.24,1.33-1.9,1.95
				c-2.87,2.69-2.92,7.93,0,10.61C402.87,258.64,407.35,258.69,410.41,255.82L410.41,255.82z"/>
		</g>
	</g>
	<g>
		<g>
			<path class="st0" d="M231.89,240.86c-0.46,5.42,0.19,10.84,1.85,16.02c4.57-1.93,9.14-3.85,13.71-5.78
				c-2.89-4.65-2.69-9.6,0.32-14.14c5.35-8.07-7.64-15.59-12.95-7.57c-5.81,8.77-5.85,20.37-0.32,29.28
				c4.35,7,16.38,2.59,13.71-5.78c-1.29-4.05-1.67-7.8-1.31-12.03C247.71,231.24,232.7,231.29,231.89,240.86L231.89,240.86z"/>
		</g>
	</g>
	<g>
		<g>
			<path class="st0" d="M252.94,232.68c-0.43-1.17-0.85-2.33-1.28-3.5c-0.64,2.43-1.29,4.86-1.93,7.3c2.66-2.86,5.39-4.73,8.97-6.31
				c-3.03-3.93-6.06-7.85-9.09-11.78c-3.53,2.86-7.14,5.6-10.84,8.25c-7.74,5.54-0.48,18.45,7.57,12.95
				c20.14-13.76,43.87-20.07,68.19-18.17c-0.66-4.91-1.33-9.82-1.99-14.73c-10.3,2.56-20.6,5.12-30.9,7.68
				c-8.44,2.1-17.29,3.65-22.26,11.56c-5.15,8.2,7.83,15.74,12.95,7.57c1.28-2.03,4.61-2.49,6.74-3.04
				c4.05-1.05,8.11-2.02,12.17-3.03c8.43-2.09,16.85-4.19,25.28-6.28c8.61-2.14,6.1-14.1-1.99-14.73
				c-26.65-2.09-53.68,5.14-75.76,20.22c2.52,4.32,5.05,8.63,7.57,12.95c4.73-3.39,9.35-6.93,13.87-10.59
				c2.89-2.35,2.66-7.16,0.59-9.85c-2.44-3.16-6.2-3.47-9.68-1.93c-4.58,2.03-8.6,4.99-12,8.66c-1.72,1.86-2.85,4.77-1.93,7.3
				c0.43,1.17,0.85,2.33,1.28,3.5C241.76,245.66,256.26,241.78,252.94,232.68L252.94,232.68z"/>
		</g>
	</g>
	<g>
		<g>
			<path class="st0" d="M246.33,226.5c-0.04-0.12-0.09-0.25-0.13-0.37c-1.41-3.89-5.02-6.27-9.23-5.24c-4.8,1.18-7,5.66-6.05,10.28
				c0.48,2.34,2.86,4.81,5.24,5.24c7.41,1.33,12.54-4.39,18.36-8.22c5.84-3.83,11.87-7.38,18.11-10.52
				c12.05-6.07,25.08-10.58,38.47-12.44c22.78-3.18,56.18,0.78,68.27,23.47c4.54,8.52,17.5,0.95,12.95-7.57
				c-13.54-25.41-47.89-33.33-74.39-31.58c-15.05,1-29.56,4.86-43.4,10.78c-6.95,2.97-13.68,6.41-20.18,10.28
				c-6.37,3.79-12.22,8.89-18.73,12.32c1.93-0.25,3.85-0.5,5.78-0.76c-0.42-0.07-0.83-0.15-1.25-0.22c1.75,1.75,3.49,3.49,5.24,5.24
				c-0.04-0.17-0.07-0.34-0.11-0.51c-0.64,2.43-1.29,4.86-1.93,7.3c-0.8,0.46-1.6,0.93-2.4,1.39c-3.08-1.75-6.15-3.49-9.23-5.24
				c0.04,0.12,0.09,0.25,0.13,0.37C235.13,239.49,249.63,235.6,246.33,226.5L246.33,226.5z"/>
		</g>
	</g>
	<g>
		<g>
			<path class="st0" d="M349.66,213.36c9.9,2.09,19.22,6.09,27.17,12.42c3.03-3.93,6.06-7.85,9.09-11.78
				c-5.13-2.3-9.59-5.88-11.78-11.22c-3.08,3.08-6.15,6.15-9.23,9.23c3.87,1.4,7.7,2.87,11.47,4.52c2.03,0.89,4.05,1.82,6.05,2.79
				c0.57,0.28,1.14,0.56,1.71,0.84c1.49,0.77,1.59,0.83,0.28,0.19c0.58,3.51-0.06,7.61-0.11,11.15c-0.07,4.34-0.17,8.67-0.3,13.01
				c-0.28,9.66,14.72,9.65,15,0c0.16-5.58,0.28-11.15,0.35-16.73c0.06-5.02,0.91-11-1.79-15.52c-2.5-4.19-7.67-6-11.88-7.9
				c-5.5-2.49-11.1-4.76-16.79-6.81c-5.03-1.82-11.36,4.03-9.23,9.23c3.66,8.91,9.75,16.19,18.68,20.19
				c3.45,1.55,7.23,1.24,9.68-1.93c2.07-2.68,2.34-7.52-0.59-9.85c-10.01-7.96-21.23-13.63-33.79-16.28
				C344.23,196.91,340.2,211.37,349.66,213.36L349.66,213.36z"/>
		</g>
	</g>
	<g>
		<g>
			<path class="st0" d="M140.66,307.84c-0.55,8.36,0.04,16.58,1.47,24.83c1.43,8.27,15.38,6.43,14.73-1.99
				c-0.11-1.37-0.21-2.74-0.32-4.12c-0.73-9.5-15.22-9.77-15,0c0.23,10.57,2.94,20.59,8.05,29.85c4,7.25,16.85,2.29,13.71-5.78
				c-1.26-3.23-2.51-6.45-3.77-9.68c-4.57,1.93-9.14,3.85-13.71,5.78c3.04,6.79,7.25,13.87,9.26,21.03c0-1.33,0-2.66,0-3.99
				c-0.14,0.36-0.28,0.71-0.42,1.07c3.08-1.75,6.15-3.49,9.23-5.24c-0.21-0.03-0.41-0.06-0.62-0.1c1.75,1.75,3.49,3.49,5.24,5.24
				c-0.09-0.22-0.18-0.43-0.27-0.65c-1.15,2.82-2.3,5.65-3.45,8.47c0.13-0.08,0.25-0.16,0.38-0.24c8.12-5.17,0.6-18.16-7.57-12.95
				c-0.13,0.08-0.25,0.16-0.38,0.24c-2.51,1.6-4.74,5.39-3.45,8.47c1.21,2.88,2.75,5.46,6.13,5.98c4.35,0.67,7.59-1.09,9.23-5.24
				c1.93-4.91-1.54-10.03-3.51-14.41c-2.28-5.08-4.56-10.17-6.84-15.25c-3.44-7.67-16.8-2.16-13.71,5.78
				c1.26,3.23,2.51,6.45,3.77,9.68c4.57-1.93,9.14-3.85,13.71-5.78c-3.83-6.94-5.82-14.35-6-22.28c-5,0-10,0-15,0
				c0.11,1.37,0.21,2.74,0.32,4.12c4.91-0.66,9.82-1.33,14.73-1.99c-1.19-6.91-1.4-13.86-0.94-20.84
				C156.3,298.21,141.29,298.25,140.66,307.84L140.66,307.84z"/>
		</g>
	</g>
	<g>
		<g>
			<path class="st0" d="M148.64,356.87c3.64,7.33,7.28,14.65,10.92,21.98c4.3,8.65,17.24,1.06,12.95-7.57
				c-3.64-7.33-7.28-14.65-10.92-21.98C157.3,340.66,144.36,348.25,148.64,356.87L148.64,356.87z"/>
		</g>
	</g>
	<g>
		<g>
			<path class="st0" d="M152.76,366.4c3.97,7.77,7.95,15.54,11.92,23.31c4.4,8.6,17.34,1.02,12.95-7.57
				c-3.97-7.77-7.95-15.54-11.92-23.31C161.31,350.23,148.37,357.81,152.76,366.4L152.76,366.4z"/>
		</g>
	</g>
	<g>
		<g>
			<path class="st0" d="M156.75,369.94c3.42,7.48,7.56,14.49,12.45,21.09c2.25,3.04,5.67,4.62,9.37,3.07
				c3.16-1.33,5.68-5.35,4.34-8.85c-3.46-9.03-7.71-17.61-13.06-25.68c-5.45-8.22-16.73-1.14-12.95,7.57
				c6.2,14.3,13.35,28.13,21.43,41.46c5,8.24,17.97,0.71,12.95-7.57c-8.08-13.33-15.23-27.16-21.43-41.46
				c-4.32,2.52-8.63,5.05-12.95,7.57c4.61,6.96,8.56,14.29,11.55,22.1c4.57-1.93,9.14-3.85,13.71-5.78
				c-4.89-6.61-9.03-13.62-12.45-21.09c-1.7-3.71-6.99-4.55-10.26-2.69C155.64,361.84,155.08,366.27,156.75,369.94L156.75,369.94z"
				/>
		</g>
	</g>
	<g>
		<g>
			<path class="st0" d="M177.29,381.88c0.6,0.96,1.21,1.92,1.81,2.88c-4.66,1.26-9.32,2.52-13.98,3.79
				c10.03,13.2,21.73,24.5,35.38,33.92c7.96,5.5,15.47-7.5,7.57-12.95c-11.39-7.86-21.62-17.52-30-28.54
				c-4.31-5.68-13.76-4.22-13.98,3.79c-0.12,4.38,1.98,7.74,5.62,10.07C177.87,400.05,185.4,387.07,177.29,381.88L177.29,381.88z"/>
		</g>
	</g>
	<g>
		<g>
			<path class="st0" d="M175.45,385.12c-0.11,0.05-0.21,0.1-0.32,0.15c3.03,0.39,6.06,0.78,9.09,1.17
				c-0.11-0.13-0.22-0.26-0.33-0.39c0.64,2.43,1.29,4.86,1.93,7.3c0.04-0.15,0.08-0.3,0.12-0.46c-2.41,1.84-4.82,3.67-7.23,5.51
				c0.27-0.02,0.54-0.03,0.81-0.05c-1.26-0.34-2.52-0.68-3.79-1.02c4.94,3.03,9.39,7.56,13.88,11.22
				c4.87,3.97,9.74,7.94,14.61,11.91c3.03-3.93,6.06-7.85,9.09-11.78c-5.54-3.52-10.63-7.45-15.43-11.92
				c-3.03,3.93-6.06,7.85-9.09,11.78c20.49,10.38,41.91,18.83,63.99,25.14c9.3,2.66,13.27-11.81,3.99-14.46
				c-20.87-5.96-41.05-13.82-60.41-23.63c-7.27-3.69-15.62,5.69-9.09,11.78c5.71,5.32,11.88,10.09,18.46,14.27
				c7.05,4.47,15.77-6.33,9.09-11.78c-6.15-5.02-12.3-10.03-18.45-15.05c-3.08-2.51-6.14-5.04-9.23-7.53
				c-2.63-2.12-4.8-4.1-8.44-3.88c-3.29,0.2-6.36,2.19-7.23,5.51c-0.85,3.22,0.07,5.67,2.13,8.14c2.27,2.73,6.23,2.47,9.09,1.17
				c0.11-0.05,0.21-0.1,0.32-0.15c3.72-1.68,4.54-7,2.69-10.26C183.54,383.99,179.12,383.46,175.45,385.12L175.45,385.12z"/>
		</g>
	</g>
	<g>
		<g>
			<path class="st0" d="M236.84,428.47c8.02-0.74,15.61-2.53,22.99-5.78c5.41-2.38,14.25-5.96,15.69-12.37
				c1.67-7.45-6.08-14.08-13.05-10.63c-6.64,3.29-6.55,13.36-0.04,16.73c8.56,4.42,16.16-8.51,7.57-12.95
				c0.72,0.86,1.44,1.72,2.15,2.58c0,1.33,0,2.66,0,3.99c-0.71,0.87-1.41,1.74-2.12,2.61c-1.26,0.34-2.52,0.68-3.79,1.02
				c0.27,0.03,0.54,0.06,0.81,0.1c-1.26-0.34-2.52-0.68-3.79-1.02c-0.74-0.81-1.48-1.61-2.23-2.42c0-1.33,0-2.66,0-3.99
				c0.4-1.8,2.49-2.4-0.03-1.24c-1.21,0.56-2.38,1.46-3.56,2.1c-2.1,1.15-4.25,2.17-6.49,3.01c-4.55,1.68-9.31,2.82-14.13,3.26
				C227.31,414.35,227.22,429.36,236.84,428.47L236.84,428.47z"/>
		</g>
	</g>
	<g>
		<g>
			<path class="st0" d="M263.88,424.97c9.52-14.15,13.88-31.45,12.04-48.41c-0.4-3.71-2.54-6.89-6.5-7.37
				c-3.36-0.4-7.63,1.64-8.23,5.37c-2.11,13.16-4.22,26.32-6.34,39.48c-1.5,9.35,11.57,13.42,14.46,3.99
				c3.43-11.19,3.92-22.58,2.02-34.09c-1.24-7.51-12.72-6.77-14.46,0c-3.06,11.9-4.85,24.07-5.41,36.34c-0.18,4.05,3.58,7.5,7.5,7.5
				c4.46,0,7.01-3.46,7.5-7.5c1.91-15.72,2.69-31.51,2.33-47.34c-4.91,0.66-9.82,1.33-14.73,1.99c1.25,8.81,1.37,17.73,0.73,26.59
				c-0.69,9.7,14.08,9.48,15,0c1.83-18.91,1.92-37.89,0.25-56.81c-4.91,0.66-9.82,1.33-14.73,1.99c3.13,19.09,2.56,38.68-1.47,57.59
				c4.91,0.66,9.82,1.33,14.73,1.99c0.07-13.03,0.14-26.05,0.22-39.08c-5,0-10,0-15,0c0.05,8.77,0.11,17.54,0.16,26.31
				c5,0,10,0,15,0c-0.43-15.58-0.85-31.16-1.28-46.75c-5,0-10,0-15,0c0.87,11.12,1.74,22.24,2.62,33.36c0.75,9.5,15.4,9.74,15,0
				c-0.51-12.4-1.03-24.8-1.54-37.2c-0.4-9.6-15.03-9.7-15,0c0.05,14.5,0.1,29,0.15,43.5c5,0,10,0,15,0
				c-1.1-9.9-2.19-19.8-3.29-29.7c-0.45-4.03-3.13-7.5-7.5-7.5c-3.76,0-7.89,3.44-7.5,7.5c0.84,8.77,1.08,17.54,0.72,26.34
				c5,0,10,0,15,0c0-13.6,0-27.19,0.01-40.79c-5,0-10,0-15,0c0.97,12.12,1.37,24.25,1.2,36.4c5,0,10,0,15,0
				c-1.43-17.68-2.86-35.36-4.29-53.03c-4.91,0.66-9.82,1.33-14.73,1.99c1.68,11.34,3.35,22.68,5.03,34.02
				c0.59,4,5.67,6.24,9.23,5.24c4.3-1.2,5.83-5.19,5.24-9.23c-3.06-20.81-6.12-41.63-9.18-62.44c-4.82,1.33-9.64,2.66-14.46,3.99
				c1.2,6.54,2.39,13.08,3.59,19.62c1.51,8.26,15.32,6.44,14.73-1.99c-1.04-14.91-3.31-29.69-6.88-44.21
				c-2.35-9.55-15.97-5.34-14.46,3.99c1.32,8.16,2.64,16.33,3.96,24.49c4.82-1.33,9.64-2.66,14.46-3.99
				c-1.58-6.52-3.16-13.05-4.73-19.57c-2.28-9.43-16.42-5.41-14.46,3.99c3.67,17.69,7.12,35.43,10.34,53.21
				c1.49,8.21,15.74,6.43,14.73-1.99c-2.06-17.2-5.09-34.22-9.3-51.03c-0.98-3.92-5.39-6.31-9.23-5.24
				c-4.33,1.21-5.79,5.18-5.24,9.23c2.55,18.62,5.1,37.23,7.65,55.85c4.82-1.33,9.64-2.66,14.46-3.99
				c-2.86-16.94-5.71-33.88-8.57-50.82c-0.67-3.98-5.61-6.25-9.23-5.24c-4.29,1.2-5.83,5.19-5.24,9.23
				c3.14,21.31,6.28,42.62,9.42,63.94c1.22,8.27,15.85,6.4,14.73-1.99c-2.38-17.87-4.75-35.75-7.13-53.62
				c-4.91,0.66-9.82,1.33-14.73,1.99c2.9,18.29,4.45,36.75,4.82,55.26c5,0,10,0,15,0c-1.25-31.95-3.99-63.82-8.23-95.52
				c-0.54-4.01-3.06-7.5-7.5-7.5c-3.79,0-7.84,3.44-7.5,7.5c0.41,4.88,0.82,9.76,1.23,14.64c4.91-0.66,9.82-1.33,14.73-1.99
				c-0.54-4.01-2.42-7.16-5.09-10.13c-5.26-5.84-14.14,0.39-12.54,7.3c1.01,4.35,2.69,8.44,4.97,12.27
				c4.93,8.29,17.91,0.75,12.95-7.57c-1.67-2.8-2.72-5.51-3.46-8.69c-4.18,2.43-8.36,4.86-12.54,7.3c0.98,1.09,1.04,2.08,1.23,3.51
				c1.13,8.31,15.44,6.42,14.73-1.99c-0.41-4.88-0.82-9.76-1.23-14.64c-5,0-10,0-15,0c4.23,31.7,6.98,63.56,8.23,95.52
				c0.38,9.61,15.19,9.69,15,0c-0.4-19.87-2.24-39.62-5.36-59.25c-1.31-8.26-15.85-6.4-14.73,1.99c2.38,17.87,4.75,35.75,7.13,53.62
				c4.91-0.66,9.82-1.33,14.73-1.99c-3.14-21.31-6.28-42.62-9.42-63.94c-4.82,1.33-9.64,2.66-14.46,3.99
				c2.86,16.94,5.71,33.88,8.57,50.82c0.67,3.98,5.61,6.25,9.23,5.24c4.33-1.21,5.79-5.18,5.24-9.23
				c-2.55-18.62-5.1-37.23-7.65-55.85c-4.82,1.33-9.64,2.66-14.46,3.99c3.88,15.49,6.87,31.18,8.76,47.04
				c4.91-0.66,9.82-1.33,14.73-1.99c-3.22-17.78-6.66-35.51-10.34-53.21c-4.82,1.33-9.64,2.66-14.46,3.99
				c1.58,6.52,3.16,13.05,4.73,19.57c2.31,9.56,15.97,5.34,14.46-3.99c-1.32-8.16-2.64-16.33-3.96-24.49
				c-4.82,1.33-9.64,2.66-14.46,3.99c3.25,13.24,5.4,26.62,6.34,40.22c4.91-0.66,9.82-1.33,14.73-1.99
				c-1.2-6.54-2.39-13.08-3.59-19.62c-0.73-3.97-5.57-6.26-9.23-5.24c-4.3,1.2-5.83,5.19-5.24,9.23
				c3.06,20.81,6.12,41.63,9.18,62.44c4.82-1.33,9.64-2.66,14.46-3.99c-1.68-11.34-3.35-22.68-5.03-34.02
				c-1.23-8.3-15.41-6.42-14.73,1.99c1.43,17.68,2.86,35.36,4.29,53.03c0.77,9.5,14.86,9.79,15,0c0.17-12.15-0.23-24.29-1.2-36.4
				c-0.76-9.49-15-9.79-15,0c0,13.6,0,27.19-0.01,40.79c0,9.69,14.61,9.62,15,0c0.36-8.8,0.12-17.57-0.72-26.34c-5,0-10,0-15,0
				c1.1,9.9,2.19,19.8,3.29,29.7c1.04,9.36,15.03,9.89,15,0c-0.05-14.5-0.1-29-0.15-43.5c-5,0-10,0-15,0
				c0.51,12.4,1.03,24.8,1.54,37.2c5,0,10,0,15,0c-0.87-11.12-1.74-22.24-2.62-33.36c-0.74-9.5-15.27-9.77-15,0
				c0.43,15.58,0.85,31.16,1.28,46.75c0.26,9.63,15.06,9.69,15,0c-0.05-8.77-0.11-17.54-0.16-26.31c-0.06-9.65-14.95-9.67-15,0
				c-0.07,13.03-0.14,26.05-0.22,39.08c-0.05,8.27,12.93,10.43,14.73,1.99c4.63-21.71,5.06-43.67,1.47-65.57
				c-1.36-8.27-15.47-6.43-14.73,1.99c1.66,18.93,1.58,37.9-0.25,56.81c5,0,10,0,15,0c0.73-10.28,0.18-20.39-1.27-30.58
				c-1.2-8.44-14.92-6.32-14.73,1.99c0.36,15.83-0.42,31.62-2.33,47.34c5,0,10,0,15,0c0.49-10.98,2.13-21.72,4.87-32.35
				c-4.82,0-9.64,0-14.46,0c1.46,8.83,0.59,17.6-2.02,26.11c4.82,1.33,9.64,2.66,14.46,3.99c2.11-13.16,4.22-26.32,6.34-39.48
				c-4.91-0.66-9.82-1.33-14.73-1.99c1.59,14.64-1.77,28.61-10,40.84C245.52,425.43,258.51,432.94,263.88,424.97L263.88,424.97z"/>
		</g>
	</g>
	<g>
		<g>
			<path class="st0" d="M272.52,387.69c-2.2,6.88-3.49,13.87-4.17,21.05c5,0,10,0,15,0c-0.11-8.65-1.27-17.22-3.45-25.59
				c-1.6-6.12-10.63-7.49-13.71-1.79c-3.22,5.96-4.89,12.1-5.18,18.87c-0.42,9.82,13.97,9.38,15,0c0.65-5.94-0.08-11.87-2.11-17.5
				c-2.47-6.85-12.19-7.38-14.46,0c-1.46,4.74-2.92,9.47-4.37,14.21c4.91,0.66,9.82,1.33,14.73,1.99c-0.06-4.48,0.28-8.75,1.2-13.14
				c1.97-9.38-12.07-13.41-14.46-3.99c-0.85,3.37-2.18,6.09-4.19,8.94c4.66,1.26,9.32,2.52,13.98,3.79
				c0.42-3.56,0.84-7.13,1.26-10.69c-5,0-10,0-15,0c0,3.96,0,7.92,0,11.88c0,9.65,15,9.67,15,0c0-3.96,0-7.92,0-11.88
				c0-9.9-13.9-9.34-15,0c-0.42,3.56-0.84,7.13-1.26,10.69c-0.96,8.14,10.2,9.13,13.98,3.79c2.69-3.81,4.56-8,5.7-12.52
				c-4.82-1.33-9.64-2.66-14.46-3.99c-1.19,5.65-1.81,11.35-1.74,17.13c0.11,8.53,12.24,10.09,14.73,1.99
				c1.46-4.74,2.92-9.47,4.37-14.21c-4.82,0-9.64,0-14.46,0c1.64,4.54,2.1,8.71,1.57,13.51c5,0,10,0,15,0
				c0.17-4.08,1.19-7.7,3.13-11.3c-4.57-0.6-9.14-1.19-13.71-1.79c1.86,7.14,2.82,14.23,2.92,21.61c0.13,9.81,14.11,9.46,15,0
				c0.55-5.83,1.85-11.49,3.63-17.07C289.93,382.47,275.45,378.52,272.52,387.69L272.52,387.69z"/>
		</g>
	</g>
	<g>
		<g>
			<path class="st0" d="M261.53,462.42c1.57-8.55,3.13-17.09,4.7-25.64c1.73-9.44-12.72-13.48-14.46-3.99
				c-1.57,8.55-3.13,17.09-4.7,25.64C245.33,467.87,259.79,471.91,261.53,462.42L261.53,462.42z"/>
		</g>
	</g>
	<g>
		<g>
			<path class="st0" d="M266.35,451.83c-0.07-3.14-0.15-6.28-0.22-9.41c-0.19-8.19-12.85-10.52-14.73-1.99
				c-1.56,7.07-3.13,14.14-4.69,21.21c4.91,0.66,9.82,1.33,14.73,1.99c0.01-7.65,0.02-15.3,0.03-22.95c-5,0-10,0-15,0
				c0.01,2.37,0.02,4.74,0.03,7.12c5,0,10,0,15,0c-0.34-4.77-0.43-9.78,0.8-14.45c2.48-9.34-11.98-13.32-14.46-3.99
				c-1.57,5.9-1.78,12.38-1.34,18.43c0.69,9.52,15.05,9.77,15,0c-0.01-2.37-0.02-4.74-0.03-7.12c-0.04-9.65-14.99-9.67-15,0
				c-0.01,7.65-0.02,15.3-0.03,22.95c-0.01,8.28,12.87,10.42,14.73,1.99c1.56-7.07,3.13-14.14,4.69-21.21
				c-4.91-0.66-9.82-1.33-14.73-1.99c0.07,3.14,0.15,6.28,0.22,9.41C251.58,461.47,266.58,461.5,266.35,451.83L266.35,451.83z"/>
		</g>
	</g>
	<g>
		<g>
			<path class="st0" d="M302.54,482.41c20.27,2.11,41.64,6.34,62.01,3.81c8.69-1.08,17.87-3.2,24.67-9.07
				c7.77-6.72,8.48-16.62,7.53-26.18c-0.94-9.41-15.1-9.85-15,0c0.03,3.13,0.06,6.26,0.1,9.39c0.1,9.65,15.1,9.67,15,0
				c-0.03-3.13-0.06-6.26-0.1-9.39c-5,0-10,0-15,0c0.74,7.42,1.25,14-6.47,17.41c-6.72,2.97-14.59,3.51-21.83,3.52
				c-16.96,0.01-34.06-2.74-50.9-4.49c-4.03-0.42-7.5,3.75-7.5,7.5C295.04,479.32,298.49,481.99,302.54,482.41L302.54,482.41z"/>
		</g>
	</g>
	<g>
		<g>
			<path class="st0" d="M383.77,454.91c-1.91,4.68-2.54,10.27-1.29,15.21c1.5,5.9,8.3,8.09,13.4,5.08
				c8.94-5.28,6.21-19.22,4.32-27.43c-4.82,1.33-9.64,2.66-14.46,3.99c1.4,5.94,2.79,11.87,4.19,17.81
				c2.21,9.39,16.68,5.42,14.46-3.99c-1.4-5.94-2.79-11.87-4.19-17.81c-2.21-9.4-16.63-5.42-14.46,3.99
				c0.58,2.54,1.01,5.05,1.16,7.65c0.06,1.04-0.4,3.4,0.06,4.18c-0.05-0.09-4.1,1.22,0.66-1.01c1.26-0.34,2.52-0.68,3.79-1.02
				c0.15,0,0.3,0,0.45,0.01c1.75,1.75,3.49,3.49,5.24,5.24c-0.56-2.85,0.08-5.26,1.16-7.9c1.53-3.75-1.66-8.24-5.24-9.23
				C388.7,448.49,385.3,451.14,383.77,454.91L383.77,454.91z"/>
		</g>
	</g>
	<g>
		<g>
			<path class="st0" d="M278.31,449.32c-5.94,0.63-15.76-0.14-18.75,6.01c-3.36,6.93,2.02,12.88,8.71,13.75
				c8.77,1.13,9.56-12.19,1.99-14.73c-2.33-0.78-4.66-1.56-6.98-2.35c-6.7-2.25-11.1,5.56-8.47,11.02
				c2.67,5.53,8.44,8.78,14.52,8.56c6.97-0.25,9.27-7.81,5.3-12.8c-3.16-3.98-8.12-5.99-13.15-5.82c-6.62,0.23-9.73,7.97-5.3,12.8
				c4.71,5.14,10.93,6.6,17.63,5.53c6.54-1.04,7.04-10.76,1.79-13.71c-5.71-3.2-11.44-3.93-17.83-2.85
				c-4.5,0.76-7.17,7.33-4.48,11.02c5.21,7.14,12.15,11.13,20.99,11.78c6.28,0.46,10.17-8.67,5.3-12.8c-4.72-4-9.85-6.85-15.91-8.23
				c-7.86-1.79-13.84,9.93-5.78,13.71c18.65,8.73,38,16.87,58.96,12.82c9.47-1.83,5.46-16.29-3.99-14.46
				c-16.48,3.18-32.85-4.5-47.4-11.31c-1.93,4.57-3.85,9.14-5.78,13.71c3.5,0.8,6.52,2.02,9.29,4.37c1.77-4.27,3.54-8.54,5.3-12.8
				c-3.13-0.23-6.17-1.79-8.04-4.35c-1.49,3.67-2.99,7.34-4.48,11.02c2.31-0.39,4.29,0.23,6.27,1.34c0.6-4.57,1.19-9.14,1.79-13.71
				c-1.37,0.22-2.2-0.76-3.04-1.67c-1.77,4.27-3.54,8.54-5.3,12.8c1.64-0.06,1.42,0.01,2.54,1.42c1.77-4.27,3.54-8.54,5.3-12.8
				c-1.26,0.05-0.92,0.21-1.57-1.13c-2.82,3.67-5.65,7.34-8.47,11.02c2.33,0.78,4.66,1.56,6.98,2.35c0.66-4.91,1.33-9.82,1.99-14.73
				c-0.31-0.04-0.61-0.08-0.92-0.12c1.26,0.34,2.52,0.68,3.79,1.02c0.49,0.43,0.98,0.85,1.47,1.28c0.34,1.26,0.68,2.52,1.02,3.79
				c-0.03-0.31-0.06-0.62-0.1-0.93c-0.34,1.26-0.68,2.52-1.02,3.79c0.13-0.28,0.25-0.57,0.38-0.85c-1.49,1.15-2.99,2.3-4.48,3.45
				c3.29-0.45,6.6-0.83,9.9-1.18c4.03-0.43,7.5-3.14,7.5-7.5C285.81,453.1,282.36,448.9,278.31,449.32L278.31,449.32z"/>
		</g>
	</g>
	<g>
		<g>
			<path class="st0" d="M293.56,461.92c-1.86,0.73-3.11,0.96-5.08,0.81c-8.83-0.65-9.61,12.13-1.99,14.73
				c2.2,0.75,4.4,1.5,6.61,2.26c1.33-4.82,2.66-9.64,3.99-14.46c-7.97-2.43-16.02-4.44-24.2-6.02c-7.73-1.5-11.93,6.65-7.3,12.54
				c5.71,7.25,15.19,11.2,24.35,10.19c6.6-0.73,11.2-10.35,3.79-13.98c-6.68-3.26-13.5-6.2-20.45-8.85
				c-1.33,4.82-2.66,9.64-3.99,14.46c11.61,4.09,23.22,8.17,34.83,12.26c7.92,2.79,13.57-10.22,5.78-13.71
				c-6.68-2.99-13.45-5.38-20.61-6.9c-7.99-1.69-13.57,9.43-5.78,13.71c12.12,6.66,25.44,10.51,39.28,11.07
				c14.75,0.6,29.69-2.06,44.31-3.72c-0.66-4.91-1.33-9.82-1.99-14.73c-7.66,1.42-15.32,2.84-22.98,4.25
				c-8.27,1.53-6.43,15.25,1.99,14.73c18.19-1.11,35.61-6.16,51.5-15.12c8.41-4.74,0.86-17.7-7.57-12.95
				c-13.52,7.62-28.43,12.12-43.93,13.07c0.66,4.91,1.33,9.82,1.99,14.73c7.66-1.42,15.32-2.84,22.98-4.25
				c8.21-1.52,6.44-15.69-1.99-14.73c-13.37,1.52-26.89,3.73-40.37,3.79c-12.55,0.05-24.64-3.05-35.64-9.09
				c-1.93,4.57-3.85,9.14-5.78,13.71c5.85,1.24,11.57,2.93,17.03,5.38c1.93-4.57,3.85-9.14,5.78-13.71
				c-11.61-4.09-23.22-8.17-34.83-12.26c-9.19-3.23-12.88,11.08-3.99,14.46c5.74,2.19,11.35,4.64,16.87,7.34
				c1.26-4.66,2.52-9.32,3.79-13.98c-5.79,0.64-10.14-1.22-13.75-5.79c-2.43,4.18-4.86,8.36-7.3,12.54
				c8.18,1.58,16.23,3.59,24.2,6.02c9.3,2.84,13.05-11.37,3.99-14.46c-2.2-0.75-4.4-1.5-6.61-2.26c-0.66,4.91-1.33,9.82-1.99,14.73
				c3.1,0.23,6.17-0.2,9.07-1.35c3.75-1.48,6.41-5.03,5.24-9.23C301.78,463.58,297.36,460.41,293.56,461.92L293.56,461.92z"/>
		</g>
	</g>
	<g>
		<g>
			<path class="st0" d="M217.7,417.53c0.6,0.16,1.2,0.32,1.81,0.48c-2.43,4.18-4.86,8.36-7.3,12.54c8.33,3.07,16.39,6.64,24.29,10.7
				c8.8,4.53,15.11-7.22,7.57-12.95c-6.4-4.87-13.15-9.11-20.31-12.76c-8.57-4.37-16.15,8.44-7.57,12.95
				c10.45,5.5,20.5,11.79,29.82,19.04c3.03-3.93,6.06-7.85,9.09-11.78c-8.64-5.25-17.27-10.5-25.91-15.76
				c-8.32-5.06-15.53,7.62-7.57,12.95c5.35,3.58,10.69,7.16,16.04,10.74c1.26-4.66,2.52-9.32,3.79-13.98
				c-6.65-0.86-12.51-4.3-17.11-9.04c-2.43,4.18-4.86,8.36-7.3,12.54c6.66,2.66,13.08,6.33,18.72,10.75c3.21,2.52,7.47,3.07,10.61,0
				c2.79-2.73,2.99-7.9,0-10.61c-5.2-4.72-11.17-8.04-18.03-9.63c-8.76-2.03-12.32,8.71-5.78,13.71c6.94,5.3,14.62,9.15,22.92,11.86
				c8.65,2.82,12.2-9.01,5.78-13.71c-2.91-2.13-5.82-4.26-8.73-6.39c-6.3-4.61-13.81,4.19-10.26,10.26
				c2.68,4.6,6.49,8.3,11.39,10.45c1.93-4.57,3.85-9.14,5.78-13.71c-1.88-0.48-3.76-0.96-5.64-1.44
				c-9.36-2.39-13.35,12.07-3.99,14.46c1.88,0.48,3.76,0.96,5.64,1.44c7.89,2.02,13.82-10.17,5.78-13.71
				c-2.69-1.18-4.51-2.5-6.01-5.07c-3.42,3.42-6.84,6.84-10.26,10.26c2.91,2.13,5.82,4.26,8.73,6.39c1.93-4.57,3.85-9.14,5.78-13.71
				c-7.08-2.31-13.43-5.83-19.34-10.35c-1.93,4.57-3.85,9.14-5.78,13.71c4.34,1,8.1,2.77,11.41,5.78
				c3.54-3.54,7.07-7.07,10.61-10.61c-7.83-6.14-16.09-10.92-25.34-14.61c-7.32-2.92-12.12,7.56-7.3,12.54
				c7.58,7.82,17.02,12.05,27.71,13.44c8.02,1.04,9.28-10.3,3.79-13.98c-5.35-3.58-10.69-7.16-16.04-10.74
				c-2.52,4.32-5.05,8.63-7.57,12.95c8.64,5.25,17.27,10.5,25.91,15.76c7.08,4.3,15.94-6.45,9.09-11.78
				c-10.37-8.07-21.23-15.27-32.86-21.39c-2.52,4.32-5.05,8.63-7.57,12.95c7.16,3.65,13.92,7.89,20.31,12.76
				c2.52-4.32,5.05-8.63,7.57-12.95c-9.03-4.65-18.34-8.7-27.87-12.22c-7.46-2.75-11.99,7.44-7.3,12.54
				c3.3,3.59,8.15,4.87,12.79,3.38C230.84,429.05,226.93,414.56,217.7,417.53L217.7,417.53z"/>
		</g>
	</g>
	<g>
		<g>
			<path class="st0" d="M187.03,415.19c7.19,4.14,14.13,8.63,20.85,13.49c2.52-4.32,5.05-8.63,7.57-12.95
				c-0.23-0.16-0.47-0.33-0.7-0.49c0.9,0.9,1.79,1.79,2.69,2.69c0.9,3.21-0.7,4.98-4.82,5.32c-1.1-0.64-2.21-1.29-3.31-1.93
				c-1.99-1.58,0.25-5.69,1.95-6c-3.99,0.72-6.24,5.57-5.24,9.23c1.15,4.2,5.23,5.96,9.23,5.24c10.56-1.91,11-18.65,0.63-21.28
				c-5.42-1.38-10.82,2.09-12.52,7.26c-1.7,5.17,0.19,9.86,4.52,12.92c3.31,2.34,8.34,0.59,10.26-2.69
				c2.21-3.78,0.6-7.88-2.69-10.26c-6.72-4.86-13.66-9.35-20.85-13.49C186.22,397.41,178.66,410.37,187.03,415.19L187.03,415.19z"/>
		</g>
	</g>
	<g>
		<g>
			<path class="st0" d="M124.55,306.8c2.56,2.11,5.12,4.21,7.68,6.32c4.04,3.33,11.22,2.68,12.54-3.31c0.86-3.92,0-7.52-2.82-10.42
				c-5.08-5.2-14.95,0.08-12.54,7.3c1.68,5.03,4.33,9.49,8.14,13.19c5.14,4.99,14.99,0.05,12.54-7.3c-1.05-3.15-2.69-6.05-5.28-8.2
				c-6.55-5.42-15.64,1.21-11.78,9.09c0.72,1.46,1.43,2.93,2.15,4.39c1.78,3.64,6.95,4.63,10.26,2.69
				c3.71-2.17,4.48-6.61,2.69-10.26c-0.72-1.46-1.43-2.93-2.15-4.39c-3.93,3.03-7.85,6.06-11.78,9.09c0.04,0.03,1.62,1.58,0.89,0.66
				c0.21,0.27,0.91,2.05,0.53,0.92c4.18-2.43,8.36-4.86,12.54-7.3c-2.01-1.95-3.45-4.08-4.29-6.57c-4.18,2.43-8.36,4.86-12.54,7.3
				c-0.35-1.39-0.69-2.78-1.04-4.18c4.18-1.1,8.36-2.21,12.54-3.31c-2.56-2.11-5.12-4.21-7.68-6.32c-3.13-2.57-7.55-3.06-10.61,0
				C121.9,298.85,121.41,304.21,124.55,306.8L124.55,306.8z"/>
		</g>
	</g>
	<g>
		<g>
			<path class="st0" d="M125.05,293.07c-3.71,1.09-7.13,1.5-11,1.34c-8.52-0.35-10.09,12.54-1.99,14.73
				c4.83,1.31,9.71,1.84,14.7,1.42c9.7-0.8,9.58-14.02,0-15c-4.98-0.51-9.86,0.01-14.68,1.36c-7.42,2.08-6.82,12.12,0,14.46
				c5.55,1.91,10.94,2.03,16.7,1.24c8.71-1.19,6.03-14.36-1.99-14.73c-4.22-0.2-8.34,0.39-12.31,1.82c-6.4,2.3-7.83,12.84,0,14.46
				c6.48,1.35,12.38,0.58,18.23-2.55c6.7-3.58,3.44-13.91-3.79-13.98c-4.33-0.04-8.32,1.04-11.97,3.39
				c-4.34,2.78-5.39,10.44,0,12.95c5.96,2.77,11.75,3.55,18.18,1.98c6.7-1.64,6.81-10.22,1.79-13.71c-0.71-0.49-1.41-0.98-2.12-1.47
				c-0.6,4.57-1.19,9.14-1.79,13.71c9.89-3.79,18.6-9.48,25.61-17.48c4.96-5.66,0.19-14.19-7.3-12.54
				c-7.17,1.58-12.55,6.99-14.45,14.03c-1.62,6.01,3.76,10.06,9.23,9.23c4.06-0.62,7.22-2.49,10.26-5.17
				c-4.27-1.77-8.54-3.54-12.8-5.3c0.24,1.79,0.48,3.59,0.72,5.38c0.45,3.37,2.02,6.24,5.51,7.23c2.97,0.85,7.1-0.5,8.47-3.45
				c3.59-7.73,4.5-15.92,1.61-24.06c-2.26-6.35-9.89-7.13-13.71-1.79c-3.29,4.6-7.54,8.08-12.46,10.81
				c3.03,3.93,6.06,7.85,9.09,11.78c3.7-2.9,7.4-5.8,11.1-8.69c6.98-5.47-1.9-15.5-9.09-11.78c-5.36,2.78-10.91,4.66-16.81,5.94
				c1.93,4.57,3.85,9.14,5.78,13.71c5-2.78,9.6-6.1,13.93-9.84c6.56-5.67-1.85-15.92-9.09-11.78c-4.63,2.65-9.27,5.3-13.9,7.96
				c-6.25,3.58-3.78,14.4,3.79,13.98c6.09-0.34,11.49-1.76,17.06-4.2c3.74-1.64,4.53-7.03,2.69-10.26
				c-2.19-3.85-6.57-4.31-10.26-2.69c-3,1.32-6.24,1.97-9.49,2.15c1.26,4.66,2.52,9.32,3.79,13.98c4.63-2.65,9.27-5.3,13.9-7.96
				c-3.03-3.93-6.06-7.85-9.09-11.78c-3.37,2.91-7,5.33-10.89,7.49c-7.67,4.26-2.32,15.46,5.78,13.71
				c7.14-1.55,13.91-4.1,20.39-7.45c-3.03-3.93-6.06-7.85-9.09-11.78c-3.7,2.9-7.4,5.8-11.1,8.69c-6.88,5.39,1.9,15.77,9.09,11.78
				c7.25-4.02,13.03-9.47,17.84-16.19c-4.57-0.6-9.14-1.19-13.71-1.79c1.48,4.16,1.81,8.4-0.1,12.5c4.66,1.26,9.32,2.52,13.98,3.79
				c-0.24-1.79-0.48-3.59-0.72-5.38c-0.86-6.43-7.56-9.91-12.8-5.3c-1.12,0.99-2.19,1.09-3.64,1.31c3.08,3.08,6.15,6.15,9.23,9.23
				c0.61-2.25,1.71-3.05,3.97-3.55c-2.43-4.18-4.86-8.36-7.3-12.54c-5.25,6-11.5,10.75-18.99,13.62c-6.17,2.36-7.31,9.87-1.79,13.71
				c0.71,0.49,1.41,0.98,2.12,1.47c0.6-4.57,1.19-9.14,1.79-13.71c-2.28,0.56-4.44,0.55-6.62-0.47c0,4.32,0,8.63,0,12.95
				c1.59-1.02,2.52-1.35,4.4-1.34c-1.26-4.66-2.52-9.32-3.79-13.98c-2.16,1.15-4.27,1.54-6.67,1.04c0,4.82,0,9.64,0,14.46
				c2.87-1.03,5.29-1.43,8.33-1.29c-0.66-4.91-1.33-9.82-1.99-14.73c-3.01,0.41-5.9-0.27-8.72-1.24c0,4.82,0,9.64,0,14.46
				c3.63-1.02,6.94-1.21,10.7-0.83c0-5,0-10,0-15c-3.74,0.31-7.08,0.09-10.71-0.89c-0.66,4.91-1.33,9.82-1.99,14.73
				c5.1,0.21,10.1-0.43,14.99-1.87C138.28,304.81,134.35,290.33,125.05,293.07L125.05,293.07z"/>
		</g>
	</g>
	<g>
		<g>
			<path class="st0" d="M134.5,286.41c-8.57,0.68-16.13,5.02-20.51,12.53c-4.88,8.35,8.08,15.91,12.95,7.57
				c0.91-1.56,1.81-2.61,3.21-3.49c0.46-0.29,0.94-0.57,1.43-0.81c1.17-0.58-0.75,0.23,0.48-0.2c0.52-0.18,1.05-0.32,1.58-0.45
				c1.34-0.33-1.59,0.05,0.85-0.15c4.04-0.32,7.5-3.22,7.5-7.5C142,290.1,138.56,286.09,134.5,286.41L134.5,286.41z"/>
		</g>
	</g>
	<g>
		<g>
			<path class="st0" d="M104.41,307.57c-2.22-0.67-3.45-1.39-5.13-2.99c-0.61,0.79-1.21,1.57-1.82,2.36c3.35,2.27,6.82,3.5,10.81,4
				c1.33,0.17,1.92-1.72,1.06-2.56c-3.55-3.46-7.67-5.29-12.61-5.7c-1.15-0.09-1.85,1.34-1.3,2.26c2.61,4.3,6.54,6.63,11.54,6.97
				c0-1,0-2,0-3c-3.99-0.17-7.5-1.28-10.9-3.36c-1.3-0.8-2.79,0.77-2.05,2.05c1.45,2.54,3.34,3.92,6.26,4.36
				c1.32,0.2,2.72-1.41,1.46-2.51c-3.49-3.03-7.37-4.47-12.01-4.28c-1.41,0.06-2.14,2.07-0.76,2.8c2,1.04,3.84,1.52,6.11,1.53
				c1.78,0.01,1.92-2.37,0.4-2.95c-1.18-0.45-2.36-0.89-3.54-1.34c-1.38-0.52-2.6,1.57-1.46,2.51c3.94,3.24,8.31,4.81,13.42,4.61
				c1.72-0.07,2-2.4,0.4-2.95c-2.44-0.84-4.88-1.68-7.31-2.52c-1.41-0.49-2.55,1.52-1.46,2.51c4.07,3.7,9.07,4.95,14.4,3.5
				c1.34-0.36,1.36-2.02,0.36-2.74c-2.26-1.64-4.42-2.34-7.19-2.49c-1.95-0.11-1.88,2.8,0,3c4.64,0.48,9.28,0.96,13.92,1.45
				c1.67,0.17,2.06-2.63,0.4-2.95c-2.98-0.57-5.97-1.13-8.95-1.7c-1.66-0.32-2.61,1.77-1.16,2.74c3.39,2.27,6.97,3.25,11.04,3.03
				c1.62-0.09,2.12-2.54,0.4-2.95c-3.55-0.84-6.98-1.24-10.63-1.23c-1.23,0.01-2.07,1.68-1.06,2.56c2.9,2.52,5.93,3.77,9.76,4.03
				c1.43,0.1,2.12-2.19,0.76-2.8c-3.21-1.43-6.37-2.39-9.86-2.89c-1.53-0.22-2.81,1.9-1.16,2.74c2.66,1.35,5.27,2.32,8.19,2.98
				c1.63,0.37,2.66-1.85,1.16-2.74c-4.21-2.5-8.51-3.23-13.32-2.43c-1.39,0.23-1.31,2.08-0.36,2.74c3.41,2.37,6.95,3,11,2.17
				c1.67-0.34,1.27-2.97-0.4-2.95c-2.61,0.03-5.23,0.06-7.84,0.1c-1.93,0.02-1.93,2.95,0,3c5.56,0.15,10.53-1.23,15.2-4.26
				c0.52-0.34,0.92-1.06,0.69-1.69c-3.8-10.59-15.91-0.99-22.39-0.65c-1.92,0.1-1.94,3.06,0,3c6.38-0.19,12.17-2.02,17.44-5.63
				c0.97-0.67,1-2.47-0.36-2.74c-5.98-1.18-11.78-1.01-17.67,0.59c-1.63,0.44-1.3,2.95,0.4,2.95c5.39-0.01,10.33-1.15,15.2-3.45
				c0.99-0.47,0.97-2.11,0-2.59c-5.01-2.47-10.08-2.81-15.32-0.82c-1.09,0.41-1.63,2.12-0.36,2.74c6.41,3.13,13.66,1.99,18.69-3.1
				c0.99-1,0.18-2.42-1.06-2.56c-6-0.66-11.39,1.08-16.03,4.91c-1.12,0.93,0.08,3.06,1.46,2.51c5.24-2.12,10.48-4.25,15.72-6.37
				c1.77-0.72,0.99-3.62-0.8-2.89c-5.24,2.12-10.48,4.25-15.72,6.37c0.49,0.84,0.97,1.67,1.46,2.51c4.05-3.35,8.72-4.6,13.91-4.03
				c-0.35-0.85-0.71-1.71-1.06-2.56c-4.04,4.08-9.88,5.16-15.05,2.64c-0.12,0.91-0.24,1.83-0.36,2.74
				c4.42-1.68,8.73-1.59,13.01,0.52c0-0.86,0-1.73,0-2.59c-4.41,2.08-8.81,3.03-13.69,3.04c0.13,0.98,0.27,1.96,0.4,2.95
				c5.39-1.46,10.6-1.67,16.08-0.59c-0.12-0.91-0.24-1.83-0.36-2.74c-4.84,3.31-10.06,5.05-15.92,5.22c0,1,0,2,0,3
				c4.71-0.25,16.97-8.61,19.5-1.56c0.23-0.56,0.46-1.13,0.69-1.69c-4.27,2.76-8.6,3.98-13.69,3.85c0,1,0,2,0,3
				c2.61-0.03,5.23-0.06,7.84-0.1c-0.13-0.98-0.27-1.96-0.4-2.95c-3.29,0.68-5.96,0.03-8.69-1.86c-0.12,0.91-0.24,1.83-0.36,2.74
				c4.03-0.67,7.54,0.07,11.01,2.13c0.39-0.91,0.77-1.83,1.16-2.74c-2.63-0.6-5.06-1.45-7.47-2.68c-0.39,0.91-0.77,1.83-1.16,2.74
				c3.22,0.46,6.16,1.26,9.14,2.59c0.25-0.93,0.5-1.86,0.76-2.8c-3.05-0.21-5.33-1.15-7.64-3.15c-0.35,0.85-0.71,1.71-1.06,2.56
				c3.35-0.02,6.58,0.35,9.84,1.12c0.13-0.98,0.27-1.96,0.4-2.95c-3.63,0.19-6.52-0.62-9.52-2.62c-0.39,0.91-0.77,1.83-1.16,2.74
				c2.98,0.57,5.97,1.13,8.95,1.7c0.13-0.98,0.27-1.96,0.4-2.95c-4.64-0.48-9.28-0.96-13.92-1.45c0,1,0,2,0,3
				c2.26,0.12,3.89,0.78,5.68,2.08c0.12-0.91,0.24-1.83,0.36-2.74c-4.26,1.16-8.19,0.26-11.48-2.73c-0.49,0.84-0.97,1.67-1.46,2.51
				c2.44,0.84,4.88,1.68,7.31,2.52c0.13-0.98,0.27-1.96,0.4-2.95c-4.27,0.16-7.98-1-11.3-3.73c-0.49,0.84-0.97,1.67-1.46,2.51
				c1.18,0.45,2.36,0.89,3.54,1.34c0.13-0.98,0.27-1.96,0.4-2.95c-1.65,0.13-3.18-0.24-4.59-1.12c-0.25,0.93-0.5,1.86-0.76,2.8
				c3.85-0.16,6.96,0.86,9.89,3.4c0.49-0.84,0.97-1.67,1.46-2.51c-1.94-0.04-3.43-1.04-4.47-2.99c-0.68,0.68-1.37,1.37-2.05,2.05
				c3.87,2.38,7.88,3.58,12.41,3.77c1.94,0.08,1.91-2.87,0-3c-3.94-0.26-6.94-2.16-8.95-5.48c-0.43,0.75-0.86,1.5-1.3,2.26
				c4.13,0.34,7.52,1.92,10.49,4.82c0.35-0.85,0.71-1.71,1.06-2.56c-3.45-0.43-6.45-1.65-9.3-3.59c-1.42-0.96-3.04,1.19-1.82,2.36
				c1.92,1.83,3.92,2.99,6.46,3.77C105.46,311.03,106.25,308.13,104.41,307.57L104.41,307.57z"/>
		</g>
	</g>
	<g>
		<g>
			<path class="st0" d="M114.92,304.41c-7.61,0.21-15.07-0.46-22.53-2.04c0.22,0.84,0.44,1.67,0.66,2.51
				c1.74-1.52,3.61-2.03,5.62-1.53c-0.13-0.98-0.27-1.96-0.4-2.95c-3.26,1.04-6.4,1.4-9.8,1.14c-1.7-0.13-2.01,2.52-0.4,2.95
				c4.89,1.28,9.3,3.31,13.47,6.16c0.5-0.86,1.01-1.73,1.51-2.59c-2.46-1.06-4.54-1.54-7.27-1.51c-1.5,0.02-2.03,2.02-0.76,2.8
				c4.68,2.85,9.66,4.04,15.12,3.57c1.26-0.11,2.02-1.58,1.06-2.56c-2.39-2.45-6.03-5.89-9.55-4.04c-0.6,0.32-0.84,1.07-0.69,1.69
				c0.29,1.21,0.69,1.48,1.85,1.9c0.66,0.24,1.33-0.17,1.69-0.69c0.09-0.13,0.18-0.26,0.27-0.39c1.11-1.59-1.49-3.09-2.59-1.51
				c-0.09,0.13-0.18,0.26-0.27,0.39c0.56-0.23,1.13-0.46,1.69-0.69c0.08,0.06,0.17,0.13,0.25,0.19c-0.23,0.56-0.46,1.13-0.69,1.69
				c1.76-0.93,5,2.63,5.92,3.57c0.35-0.85,0.71-1.71,1.06-2.56c-5.03,0.44-9.28-0.53-13.61-3.16c-0.25,0.93-0.5,1.86-0.76,2.8
				c1.99-0.17,3.9,0.19,5.75,1.11c1.75,0.76,3.14-1.48,1.51-2.59c-4.39-3.01-9.04-5.12-14.19-6.47c-0.13,0.98-0.27,1.96-0.4,2.95
				c3.73,0.28,7.03-0.12,10.6-1.25c1.71-0.55,1.22-2.74-0.4-2.95c-3.12-0.41-5.38,0.41-7.74,2.41c-0.85,0.72-0.4,2.28,0.66,2.51
				c7.71,1.64,15.45,2.37,23.32,2.15C116.85,307.36,116.85,304.36,114.92,304.41L114.92,304.41z"/>
		</g>
	</g>
	<g>
		<g>
			<path class="st0" d="M102.75,306.32c-1.21,0.09-2.41,0.19-3.62,0.28c-1.17,0.09-1.82,1.19-1.3,2.26
				c0.86,1.75,2.09,3.08,3.69,4.18c1.38,0.96,3.17-1.31,1.82-2.36c-1.81-1.4-3.7-2.42-5.9-3.07c-1.62-0.48-2.66,1.92-1.16,2.74
				c2.28,1.24,4.72,1.76,7.3,1.45c1.55-0.19,2.19-2.52,0.4-2.95c-1.71-0.41-3.42-0.81-5.13-1.22c-1.23-0.29-2.4,1.05-1.69,2.2
				c2.42,3.95,7.23,5.32,11.43,3.5c1.77-0.77,0.24-3.35-1.51-2.59c-2.68,1.16-5.83,0.01-7.33-2.42c-0.56,0.73-1.13,1.47-1.69,2.2
				c1.71,0.41,3.42,0.81,5.13,1.22c0.13-0.98,0.27-1.96,0.4-2.95c-2.08,0.25-3.94-0.04-5.79-1.04c-0.39,0.91-0.77,1.83-1.16,2.74
				c1.67,0.49,3.19,1.22,4.58,2.3c0.61-0.79,1.21-1.57,1.82-2.36c-1.18-0.81-1.98-1.83-2.62-3.11c-0.43,0.75-0.86,1.5-1.3,2.26
				c1.21-0.09,2.41-0.19,3.62-0.28C104.66,309.17,104.68,306.17,102.75,306.32L102.75,306.32z"/>
		</g>
	</g>
	<g>
		<g>
			<path class="st0" d="M103.98,307.65c-3.54-0.02-7.07-0.04-10.61-0.06c-1.45-0.01-2.09,2.08-0.76,2.8
				c2.39,1.28,4.78,2.56,7.17,3.83c1.41,0.75,2.64-0.72,2.05-2.05c-1.16-2.61-3.58-4.09-6.39-4.22c-1.93-0.09-1.93,2.91,0,3
				c1.82,0.08,3.07,1.1,3.8,2.73c0.68-0.68,1.37-1.37,2.05-2.05c-2.39-1.28-4.78-2.56-7.17-3.83c-0.25,0.93-0.5,1.86-0.76,2.8
				c3.54,0.02,7.07,0.04,10.61,0.06C105.91,310.66,105.91,307.66,103.98,307.65L103.98,307.65z"/>
		</g>
	</g>
	<g>
		<g>
			<path class="st0" d="M151.22,293.29c0.03,1.47,0.07,2.95,0.1,4.42c0.03,1.44,2.07,2.11,2.8,0.76c3.25-6.02,4.24-12.32,3.09-19.06
				c-0.25-1.43-2.65-1.43-2.89,0c-0.91,5.25,0.05,10.1,3.09,14.51c0.82,1.19,2.77,0.8,2.8-0.76c0.07-3.9,0.14-7.79,0.21-11.69
				c0.04-1.97-2.8-1.88-3,0c-0.29,2.76,0.2,4.95,1.5,7.39c0.86,1.62,2.97,0.4,2.74-1.16c-0.45-3.02-0.01-5.6,1.13-8.37
				c-0.98-0.13-1.96-0.27-2.95-0.4c-0.01,3.38-0.02,6.77-0.04,10.15c-0.01,1.93,2.99,1.93,3,0c0.03-4.95,0.06-9.9,0.1-14.85
				c0.01-1.09-1.3-1.93-2.26-1.3c-1.56,1.03-4.18,2.02-4.46,4.1c-0.09,0.7,0.07,1.3,0.69,1.69c0.12,0.08,0.25,0.16,0.37,0.24
				c0.89,0.58,1.86-0.05,2.2-0.9c0.49-1.22,0.23-2.2-0.49-3.24c-0.86-1.24-2.69-0.77-2.8,0.76c-0.29,4.12,0,8.08,0.85,12.11
				c0.39,1.89,3.29,1.09,2.89-0.8c-0.79-3.78-1.01-7.47-0.74-11.31c-0.93,0.25-1.86,0.5-2.8,0.76c0.06,0.31,0.13,0.62,0.19,0.93
				c0.73-0.3,1.47-0.6,2.2-0.9c-0.12-0.08-0.25-0.16-0.37-0.24c0.23,0.56,0.46,1.13,0.69,1.69c0.09-0.64,2.6-1.99,3.08-2.31
				c-0.75-0.43-1.5-0.86-2.26-1.3c-0.03,4.95-0.06,9.9-0.1,14.85c1,0,2,0,3,0c0.01-3.38,0.02-6.77,0.04-10.15
				c0.01-1.82-2.34-1.87-2.95-0.4c-1.38,3.34-1.66,6.42-1.13,9.97c0.91-0.39,1.83-0.77,2.74-1.16c-1.06-1.99-1.32-3.69-1.09-5.87
				c-1,0-2,0-3,0c-0.07,3.9-0.14,7.79-0.21,11.69c0.93-0.25,1.86-0.5,2.8-0.76c-2.57-3.73-3.57-7.7-2.79-12.2c-0.96,0-1.93,0-2.89,0
				c1.01,5.87,0.04,11.52-2.78,16.75c0.93,0.25,1.86,0.5,2.8,0.76c-0.03-1.47-0.07-2.95-0.1-4.42
				C154.18,291.37,151.18,291.36,151.22,293.29L151.22,293.29z"/>
		</g>
	</g>
	<g>
		<g>
			<path class="st0" d="M156.31,285.57c3.62-2.27,5.31-6.75,3.9-10.83c-0.62,0.62-1.23,1.23-1.85,1.85c1.19,0.27,2.14,0.9,2.6,2.06
				c0.51,1.29,2.48,1.56,2.89,0c0.54-2.05,0.01-4.02-1.55-5.48c-1.16-1.08-2.74,0.02-2.51,1.46c0.16,0.97,0.4,4.01-1.09,4.02
				c-1.93,0.02-1.93,3.02,0,3c4.03-0.03,4.48-4.76,3.98-7.82c-0.84,0.49-1.67,0.97-2.51,1.46c0.79,0.74,1.06,1.5,0.78,2.56
				c0.96,0,1.93,0,2.89,0c-0.86-2.15-2.41-3.64-4.7-4.16c-1.04-0.23-2.24,0.7-1.85,1.85c0.97,2.8,0.02,5.84-2.52,7.44
				C153.17,284,154.67,286.6,156.31,285.57L156.31,285.57z"/>
		</g>
	</g>
	<g>
		<g>
			<path class="st0" d="M154.3,275.06c0.22,2.42,0.43,4.84,0.65,7.26c0.17,1.91,3.17,1.93,3,0c-0.22-2.42-0.43-4.84-0.65-7.26
				C157.13,273.15,154.12,273.13,154.3,275.06L154.3,275.06z"/>
		</g>
	</g>
	<g>
		<g>
			<path class="st1" d="M293.09,247.62c2.01-7.16,0.02-14.48-5.39-19.58c-2.12-2-5.88-0.04-5.01,2.92
				c3.25,11.07,14.16,17.63,25.44,15.8c2.36-0.38,2.7-3.51,1.32-5.01c-8.09-8.8-19.41-13.55-31.35-13.21
				c-1.73,0.05-3.69,1.92-2.89,3.8c5.07,12.03,18.73,14.77,30.63,14.02c3.62-0.22,8.29-1.77,8.18-6.15
				c-0.13-4.96-7.64-7.44-11.42-8.92c-4.68-1.83-31.29-8.33-26.23,4.48c1.89,4.78,7.92,7.07,12.35,8.75
				c6.58,2.49,13.64,3.29,20.63,2.68c1.72-0.15,2.85-1.26,3-3c0.53-6.25-8.03-7.25-12.32-8.48c-8.61-2.46-17.22-4.93-25.83-7.39
				c-2.85-0.81-5.1,2.94-2.92,5.01c5.6,5.32,12.08,9.01,19.53,11.07c3.73,1.03,5.32-4.76,1.6-5.79c-6.46-1.78-12.02-4.91-16.88-9.53
				c-0.97,1.67-1.95,3.34-2.92,5.01c3.1,0.89,33.89,8.36,33.74,10.08c1-1,2-2,3-3c-7.34,0.64-14.7-0.33-21.41-3.48
				c-1.3-0.61-3.35-1.45-4.42-2.42c-2.4-2.15-0.03-1.37,1.96-1.35c3.65,0.04,7.26,0.57,10.77,1.53c3.6,0.98,6.75,2.57,10.06,4.22
				c1.67,0.83,1.7,0.81-0.46,0.66c-1.78-0.13-3.61,0.01-5.4-0.06c-7.33-0.28-16.25-1.96-19.45-9.56c-0.96,1.27-1.93,2.53-2.89,3.8
				c10.46-0.3,20.02,3.75,27.11,11.45c0.44-1.67,0.88-3.34,1.32-5.01c-8.03,1.3-15.8-3.91-18.06-11.61
				c-1.67,0.97-3.34,1.95-5.01,2.92c3.9,3.67,5.3,8.6,3.85,13.75C286.25,249.75,292.04,251.34,293.09,247.62L293.09,247.62z"/>
		</g>
	</g>
	<g>
		<g>
			<path class="st1" d="M282.96,230.92c2.67,9.29,12.58,14.78,21.86,11.88c2.64-0.83,3.06-5.19,0-5.79
				c-15.27-2.98-30.26-7.05-44.93-12.21c-3.32-1.17-5.07,3.71-2.31,5.48c9.79,6.29,20.48,10.76,31.84,13.29
				c0.53-1.93,1.06-3.86,1.6-5.79c-14.04-3.09-28.07-6.18-42.11-9.28c-3.83-0.84-5.15,4.41-1.6,5.79c9.8,3.8,20.1,5.37,30.59,4.69
				c3.19-0.21,4.3-5.17,0.8-5.89c-10.22-2.11-20.24-4.89-30.09-8.34c-2.85-1-5.04,3.02-2.92,5.01c6.57,6.16,14.29,10.5,22.98,12.84
				c3.76,1.01,5.22-4.54,1.6-5.79c-9-3.08-18.01-6.17-27.01-9.25c-2.81-0.96-5.13,3.05-2.92,5.01c6.61,5.88,14.38,9.2,23.18,10
				c3.15,0.29,3.82-4.11,1.51-5.59c-5.62-3.61-11.65-6.13-18.16-7.6c-3.29-0.74-5.27,3.66-2.31,5.48
				c11.03,6.82,22.8,12.17,35.18,16.05c3.22,1.01,5.34-3.9,2.31-5.48c-10.94-5.72-21.87-11.44-32.81-17.16
				c-2.96-1.55-6.12,2.23-3.64,4.71c11.36,11.34,27.16,14.74,42.41,17.51c3.09,0.56,5.62-3.94,2.31-5.48
				c-7.44-3.46-14.87-6.91-22.31-10.37c-0.77,1.83-1.54,3.66-2.31,5.48c13.72,5.72,27.98,9.46,42.7,11.42
				c3.57,0.48,3.73-4.81,0.8-5.89c-11-4.06-22.16-7.87-34.05-7.28c-2.82,0.14-4.28,4.12-1.51,5.59
				c14.09,7.48,29.64,11.16,45.6,10.66c3.23-0.1,4.26-5.25,0.8-5.89c-11-2.04-22.01-3.97-33.22-4.22c-3.32-0.07-4.17,5.22-0.8,5.89
				c12.33,2.47,24.76,4.24,37.28,5.33c0-2,0-4,0-6c-8.9-0.68-17.8-1.36-26.69-2.04c-3.12-0.24-3.87,4.11-1.51,5.59
				c10.08,6.34,22.17,6.93,32.96,2.06c2.53-1.14,1.5-4.75-0.72-5.48c-7.7-2.56-15.59-3.33-23.64-2.25c-2.97,0.4-4.5,5.33-0.8,5.89
				c11.93,1.81,23.98,1.38,35.67-1.66c5.78-1.51,11.43-3.65,16.77-6.33c4.05-2.03,9.13-4.26,8.9-9.49c-0.17-3.85-6.17-3.87-6,0
				c0.14,3.01-11.03,6.67-13.08,7.44c-4.02,1.51-8.16,2.7-12.37,3.57c-9.31,1.93-18.91,2.12-28.3,0.69
				c-0.27,1.96-0.53,3.93-0.8,5.89c7.56-1.01,14.8-0.37,22.04,2.04c-0.24-1.83-0.48-3.66-0.72-5.48c-8.84,3.99-18.75,3.07-26.9-2.06
				c-0.5,1.86-1.01,3.73-1.51,5.59c8.9,0.68,17.8,1.36,26.69,2.04c3.86,0.29,3.82-5.67,0-6c-11.99-1.04-23.88-2.74-35.69-5.11
				c-0.27,1.96-0.53,3.93-0.8,5.89c10.68,0.23,21.15,2.07,31.63,4.01c0.27-1.96,0.53-3.93,0.8-5.89
				c-14.91,0.47-29.38-2.84-42.57-9.84c-0.5,1.86-1.01,3.73-1.51,5.59c11.36-0.57,21.95,3.19,32.46,7.07
				c0.27-1.96,0.53-3.93,0.8-5.89c-14.16-1.89-27.93-5.72-41.11-11.21c-3.11-1.3-5.39,4.05-2.31,5.48
				c7.44,3.46,14.87,6.91,22.31,10.37c0.77-1.83,1.54-3.66,2.31-5.48c-14.14-2.57-29.2-5.42-39.76-15.97
				c-1.21,1.57-2.42,3.14-3.64,4.71c10.94,5.72,21.87,11.44,32.81,17.16c0.77-1.83,1.54-3.66,2.31-5.48
				c-11.9-3.73-23.14-8.9-33.74-15.45c-0.77,1.83-1.54,3.66-2.31,5.48c6.04,1.35,11.52,3.64,16.73,6.99
				c0.5-1.86,1.01-3.73,1.51-5.59c-7.13-0.65-13.59-3.49-18.94-8.24c-0.97,1.67-1.95,3.34-2.92,5.01c9,3.08,18.01,6.17,27.01,9.25
				c0.53-1.93,1.06-3.86,1.6-5.79c-7.73-2.08-14.49-5.82-20.33-11.3c-0.97,1.67-1.95,3.34-2.92,5.01
				c9.85,3.45,19.87,6.23,30.09,8.34c0.27-1.96,0.53-3.93,0.8-5.89c-10.01,0.65-19.65-0.85-29-4.48c-0.53,1.93-1.06,3.86-1.6,5.79
				c14.04,3.09,28.07,6.18,42.11,9.28c3.76,0.83,5.37-4.94,1.6-5.79c-10.88-2.43-21.02-6.66-30.4-12.69
				c-0.77,1.83-1.54,3.66-2.31,5.48c14.67,5.16,29.67,9.24,44.93,12.21c0-1.93,0-3.86,0-5.79c-6.15,1.93-12.68-1.42-14.48-7.68
				C287.68,225.62,281.89,227.2,282.96,230.92L282.96,230.92z"/>
		</g>
	</g>
	<g>
		<g>
			<path class="st1" d="M332.68,241.79c-2.84-0.89-5.36,0.15-6.78,2.74c-1.02,1.85,0.23,4.7,2.59,4.51
				c13.5-1.08,26.26-5.45,37.47-13.08c3.23-2.2,0.47-6.77-3.03-5.18c-11.16,5.07-22.55,9.54-34.17,13.43
				c-3.03,1.02-2.76,6.17,0.8,5.89c12.97-1.02,24.8-6.09,34.43-14.85c2.11-1.92-0.1-6.16-2.92-5.01
				c-12.65,5.14-25.3,10.29-37.95,15.43c-2.81,1.14-2.89,6.29,0.8,5.89c12.91-1.4,24.59-7.14,33.33-16.79
				c1.62-1.79,0.62-5.3-2.12-5.12c-17.05,1.09-33.45,5.48-48.77,13.02c-2.25,1.11-1.77,5,0.72,5.48
				c11.22,2.16,22.45,0.57,33.03-3.59c5.9-2.32,20.65-7.24,16.45-16.3c-3.64-7.85-17.15-7.45-24.21-7.29
				c-11.59,0.26-22.82,3.23-33.16,8.41c-0.87,0.44-1.56,1.61-1.49,2.59c0.96,11.97,18.11,8.87,25.92,7.47
				c6.55-1.18,12.92-3.11,19.03-5.72c5.11-2.18,11.61-4.56,12.97-10.58c0.42-1.86-0.87-3.82-2.89-3.8
				c-11.39,0.15-22.75,1.16-33.98,3.09c-8.1,1.39-18.37,2.24-23.32,9.72c-1.08,1.63,0.01,3.92,1.79,4.41
				c18.04,4.94,37.59,1.26,52.44-10.17c1.75-1.35,2.15-5.03-0.72-5.48c-18.01-2.83-36.13-1.62-53.55,3.79
				c-2.57,0.8-3.13,5.33,0,5.79c17.73,2.57,35.26,0.19,51.65-7.04c2.76-1.22,1.32-5.71-1.51-5.59
				c-20.24,0.86-40.07,5.12-58.83,12.75c-2.81,1.14-2.85,4.65,0,5.79c7.75,3.08,16.03,3.21,23.89,0.45c3.62-1.27,2.06-7.07-1.6-5.79
				c-6.97,2.45-13.83,2.28-20.7-0.45c0,1.93,0,3.86,0,5.79c18.28-7.44,37.51-11.7,57.24-12.54c-0.5-1.86-1.01-3.73-1.51-5.59
				c-14.75,6.51-31.07,8.75-47.03,6.44c0,1.93,0,3.86,0,5.79c16.34-5.08,33.45-6.44,50.36-3.79c-0.24-1.83-0.48-3.66-0.72-5.48
				c-13.65,10.51-31.16,14.13-47.82,9.56c0.6,1.47,1.2,2.94,1.79,4.41c2.13-3.22,5.92-4.09,9.45-4.92
				c4.63-1.09,9.34-1.93,14.04-2.65c9.48-1.45,19.04-2.14,28.62-2.27c-0.96-1.27-1.93-2.53-2.89-3.8
				c-1.92,8.55-45.49,18.45-46.13,10.43c-0.5,0.86-0.99,1.73-1.49,2.59c7.29-3.65,15.11-6.13,23.22-7.12
				c6.87-0.83,15.72-1.43,22.3,1.05c2.49,0.94,4.43,1.82,1.56,4.98c-0.96,1.06-3,1.69-4.3,2.35c-3.95,2-8.04,3.69-12.28,4.96
				c-7.85,2.35-15.96,3.13-24.05,1.58c0.24,1.83,0.48,3.66,0.72,5.48c14.34-7.06,29.79-11.18,45.74-12.2
				c-0.71-1.71-1.41-3.41-2.12-5.12c-7.62,8.41-17.76,13.81-29.09,15.04c0.27,1.96,0.53,3.93,0.8,5.89
				c12.65-5.14,25.3-10.29,37.95-15.43c-0.97-1.67-1.95-3.34-2.92-5.01c-8.39,7.63-18.87,12.2-30.19,13.09
				c0.27,1.96,0.53,3.93,0.8,5.89c12.11-4.06,23.97-8.75,35.6-14.04c-1.01-1.73-2.02-3.45-3.03-5.18
				c-10.32,7.02-21.98,11.26-34.44,12.26c0.86,1.5,1.73,3.01,2.59,4.51c0,0,0.01,0.01,0.01,0.01
				C334.77,248.74,336.35,242.95,332.68,241.79L332.68,241.79z"/>
		</g>
	</g>
	<g>
		<g>
			<path class="st1" d="M328.53,219.14c1.18-1.71,1.58-3.2,1.51-5.26c-0.06-1.57-1.33-3.07-3-3c-11,0.45-21.87,2.49-32.17,6.42
				c-3.42,1.3-8.31,2.56-10.24,5.97c-1.69,3-0.07,5.74,2.67,7.27c14.63,8.19,35,2.47,45.98-9.02c1.85-1.93,0.47-4.99-2.12-5.12
				c-17.06-0.85-33.73,2.3-49.4,9.05c-2.35,1.01-1.69,5.01,0.72,5.48c14.58,2.85,29.54-1.93,39.49-13.04
				c2.14-2.39-0.03-5.41-2.92-5.01c-10.2,1.41-20.37,3.04-30.5,4.94c-4.7,0.88-13.87,2.99-10.64,10.01c1.23,2.67,4.09,3.82,6.7,4.65
				c4.45,1.42,9.47,2.52,14.17,2.38c6.92-0.2,13.79-3.45,16.6-10.06c0.93-2.18-0.16-4.29-2.59-4.51
				c-17.78-1.65-35.58,0.17-52.67,5.36c-2.66,0.81-3.04,5.18,0,5.79c12.07,2.39,24.2,2.02,36.07-1.21c3.72-1.01,2.14-6.8-1.6-5.79
				c-10.81,2.95-21.88,3.39-32.88,1.21c0,1.93,0,3.86,0,5.79c16.62-5.04,33.79-6.75,51.08-5.14c-0.86-1.5-1.73-3.01-2.59-4.51
				c-2.33,5.47-7.71,7.32-13.35,7.06c-3.25-0.15-6.59-0.98-9.71-1.88c-0.75-0.22-2.71-0.44-3.05-1.29c-0.4-1.03,1.07-1.03,2.25-1.33
				c11.14-2.8,22.93-4.09,34.29-5.66c-0.97-1.67-1.95-3.34-2.92-5.01c-8.47,9.45-21.14,13.94-33.66,11.49
				c0.24,1.83,0.48,3.66,0.72,5.48c14.67-6.33,30.44-9.03,46.37-8.24c-0.71-1.71-1.41-3.41-2.12-5.12
				c-8.47,8.86-21.34,12.85-33.32,9.9c-1.16-0.29-2.32-0.62-3.44-1.03c-3.23-1.18-1.17-0.96,0.66-1.63
				c3.8-1.38,7.48-2.93,11.37-4.05c7.43-2.13,15.02-3.27,22.73-3.59c-1-1-2-2-3-3c-0.23,0.74-0.46,1.49-0.69,2.23
				C321.14,219.29,326.34,222.3,328.53,219.14L328.53,219.14z"/>
		</g>
	</g>
	<g>
		<g>
			<path class="st1" d="M283.67,219.67c-2.85,0.41-5.69,0.81-8.54,1.22c-1.61,0.23-2.49,2.27-2.1,3.69c0.47,1.73,2.08,2.33,3.69,2.1
				c2.85-0.41,5.69-0.81,8.54-1.22c1.61-0.23,2.49-2.27,2.1-3.69C286.88,220.04,285.28,219.44,283.67,219.67L283.67,219.67z"/>
		</g>
	</g>
	<g>
		<g>
			<path class="st1" d="M248.19,225.91c1.79,5.31,5.42,8.92,10.74,10.67c3.32,1.09,5.12-3.72,2.31-5.48
				c-6.35-3.99-13.18-6.17-20.64-6.79c-1.58-0.13-3.06,1.48-3,3c0.18,4.92,2.84,8.4,7.45,10.04c2.36,0.84,4.92-2.31,3.39-4.41
				c-2.66-3.63-5.87-5.97-10.29-7c-2.3-0.54-5.06,2.16-3.39,4.41c2.71,3.64,6.11,5.57,10.71,5.59c2.16,0.01,3.89-2.6,2.59-4.51
				c-2.09-3.09-4.58-5.03-8.01-6.42c-2.8-1.14-5.06,3.11-2.92,5.01c8.97,7.97,19.69,13.24,31.54,15.21c3.82,0.64,5.21-4.38,1.6-5.79
				c-4.35-1.7-8.71-3.4-13.06-5.1c-3.6-1.4-5.16,4.4-1.6,5.79c4.35,1.7,8.71,3.4,13.06,5.1c0.53-1.93,1.06-3.86,1.6-5.79
				c-10.83-1.8-20.67-6.36-28.89-13.67c-0.97,1.67-1.95,3.34-2.92,5.01c1.91,0.78,3.28,1.96,4.43,3.66c0.86-1.5,1.73-3.01,2.59-4.51
				c-2.3-0.01-4.09-0.68-5.53-2.62c-1.13,1.47-2.26,2.94-3.39,4.41c2.82,0.66,4.97,1.87,6.71,4.25c1.13-1.47,2.26-2.94,3.39-4.41
				c-2.08-0.72-3.09-2.14-3.04-4.26c-1,1-2,2-3,3c6.4,0.53,12.19,2.57,17.61,5.97c0.77-1.83,1.54-3.66,2.31-5.48
				c-3.28-1.07-5.46-3.22-6.55-6.48C252.75,220.68,246.95,222.24,248.19,225.91L248.19,225.91z"/>
		</g>
	</g>
	<g>
		<g>
			<path class="st1" d="M253.43,232.15c-3.95-1.65-7.9-3.3-11.85-4.95c-3.28-1.37-4.99,3.71-2.31,5.48
				c6.93,4.6,14.27,8.28,22.06,11.19c3.3,1.23,5.06-3.73,2.31-5.48c-7.31-4.68-15.22-8.01-23.67-9.98
				c-2.88-0.67-5.07,2.83-2.92,5.01c6.23,6.33,13.68,10.87,22.13,13.56c2.77,0.88,5.21-3.05,2.92-5.01
				c-6.09-5.2-13-8.78-20.83-10.54c-3.31-0.75-5.24,3.64-2.31,5.48c8.93,5.64,18.82,8.79,29.35,9.53c3.14,0.22,3.84-4.08,1.51-5.59
				c-2.17-1.41-4.3-1.99-6.89-1.89c-2.73,0.1-4.39,4.27-1.51,5.59c11.93,5.48,24.55,8.42,37.69,8.63c3.86,0.06,3.86-5.94,0-6
				c-12.03-0.2-23.72-2.79-34.66-7.82c-0.5,1.86-1.01,3.73-1.51,5.59c1.45-0.25,2.74,0.11,3.86,1.07c0.5-1.86,1.01-3.73,1.51-5.59
				c-9.5-0.67-18.28-3.63-26.32-8.71c-0.77,1.83-1.54,3.66-2.31,5.48c6.8,1.53,12.87,4.46,18.18,9c0.97-1.67,1.95-3.34,2.92-5.01
				c-7.5-2.39-13.97-6.41-19.49-12.02c-0.97,1.67-1.95,3.34-2.92,5.01c7.98,1.86,15.33,4.96,22.24,9.38
				c0.77-1.83,1.54-3.66,2.31-5.48c-7.3-2.73-14.14-6.28-20.62-10.59c-0.77,1.83-1.54,3.66-2.31,5.48c3.95,1.65,7.9,3.3,11.85,4.95
				C255.4,239.42,256.95,233.62,253.43,232.15L253.43,232.15z"/>
		</g>
	</g>
	<g>
		<g>
			<path class="st1" d="M282.81,242.88c-2.75-0.72-5.51-1.44-8.26-2.16c-2.74-0.72-5.28,2.98-2.92,5.01c7.55,6.5,17,9,26.78,7.07
				c2.83-0.56,2.9-5.28,0-5.79c-13.73-2.37-27.45-4.74-41.18-7.11c0.24,1.83,0.48,3.66,0.72,5.48c2.57-1.11,5.94,1.68,8.22,2.79
				c2.54,1.24,5.2,2.23,7.95,2.9c5.32,1.29,10.64,1.31,16.03,0.5c3.81-0.57,2.19-6.35-1.6-5.79c-7.32,1.09-14.31-0.26-20.87-3.59
				c-4.4-2.23-7.94-4.08-12.76-2c-2.31,1-1.73,5.06,0.72,5.48c13.73,2.37,27.45,4.74,41.18,7.11c0-1.93,0-3.86,0-5.79
				c-7.54,1.48-15.12-0.52-20.94-5.53c-0.97,1.67-1.95,3.34-2.92,5.01c2.75,0.72,5.51,1.44,8.26,2.16
				C284.96,249.64,286.55,243.86,282.81,242.88L282.81,242.88z"/>
		</g>
	</g>
	<g>
		<g>
			<path class="st1" d="M288.91,236.34c-1.7-1.95-4.03-2.59-6.47-1.64c-2.69,1.04-3,4.85,0,5.79c16.46,5.12,33.96,4.92,50.29-0.62
				c2.57-0.87,3.12-5.2,0-5.79c-11.26-2.12-22.52-1.79-33.61,1.09c-2.74,0.71-2.98,5.22,0,5.79c17.94,3.44,36.19,2.22,53.46-3.8
				c3.62-1.26,2.06-7.06-1.6-5.79c-16.22,5.65-33.38,7.03-50.27,3.8c0,1.93,0,3.86,0,5.79c10.03-2.61,20.23-3.01,30.42-1.09
				c0-1.93,0-3.86,0-5.79c-15.38,5.22-31.59,5.44-47.1,0.62c0,1.93,0,3.86,0,5.79c0.21,0.03,0.42,0.07,0.63,0.1
				C287.21,243.5,291.43,239.24,288.91,236.34L288.91,236.34z"/>
		</g>
	</g>
	<g>
		<g>
			<path class="st1" d="M318.98,250.11c12.62,2.09,24.91-1.28,34.65-9.6c2.94-2.51-1.32-6.74-4.24-4.24
				c-7.96,6.81-18.47,9.78-28.81,8.06C316.8,243.7,315.18,249.48,318.98,250.11L318.98,250.11z"/>
		</g>
	</g>
	<g>
		<g>
			<path class="st1" d="M319.83,254.8c15.18,0.38,29.52-4.56,41.42-13.92c3.03-2.38-1.24-6.6-4.24-4.24
				c-10.63,8.36-23.7,12.5-37.18,12.16C315.97,248.7,315.97,254.7,319.83,254.8L319.83,254.8z"/>
		</g>
	</g>
	<g>
		<g>
			<path class="st1" d="M325.35,257.34c8.63-0.61,17.54-0.68,25.55-4.31c7.1-3.22,12.83-8.7,16.73-15.41
				c1.95-3.34-3.24-6.37-5.18-3.03c-3.47,5.96-8.52,10.69-14.92,13.38c-6.95,2.92-14.79,2.85-22.19,3.37
				C321.52,251.61,321.49,257.61,325.35,257.34L325.35,257.34z"/>
		</g>
	</g>
	<g>
		<g>
			<path class="st1" d="M340.21,252.6c18.55-4.59,34.63-15.37,46.19-30.54c2.34-3.07-2.87-6.06-5.18-3.03
				c-10.6,13.9-25.67,23.59-42.6,27.78C334.87,247.74,336.46,253.53,340.21,252.6L340.21,252.6z"/>
		</g>
	</g>
	<g>
		<g>
			<path class="st1" d="M358.39,244.8c5.15,6.68,13.84-2.26,17.86-6.2c6.78-6.65,11.72-14.77,14.9-23.69c1.3-3.64-4.5-5.21-5.79-1.6
				c-2.11,5.93-5.14,11.51-9.12,16.41c-1.13,1.39-12.51,12.26-12.67,12.05C361.25,238.75,356.03,241.74,358.39,244.8L358.39,244.8z"
				/>
		</g>
	</g>
	<g>
		<g>
			<path class="st1" d="M343.73,207.48c-1.49,0.93-2.99,1.86-4.48,2.79c-1.66,1.03-1.98,3.29-0.61,4.71
				c7.11,7.36,16.57,11.37,26.8,11.4c3.1,0.01,3.92-3.99,1.51-5.59c-7.46-4.97-15.68-8.72-24.4-10.85
				c-5.57-1.36-13.82-3.33-16.27,3.63c-0.33,0.94,0.02,2.27,0.77,2.92c13.3,11.55,31.46,9.87,47.72,7.6c3.19-0.45,2.49-4.93,0-5.79
				c-7.19-2.47-14.5-4.5-21.97-5.95c-5.7-1.11-13.43-3.29-18.16,1.39c-10.4,10.28,11.19,17.52,17.84,19.02
				c4,0.9,29.53,4.44,22.9-7.1c-2.51-4.38-10.02-5.47-14.34-6.69c-7.23-2.05-14.81-3.47-22.34-2.51
				c-8.79,1.12-22.74,9.05-14.73,19.47c6.26,8.16,19.2,9.88,28.53,7.41c7.21-1.91,23.03-11.47,12.94-19.5
				c-8.47-6.75-20.88-8.42-31.19-5.83c-5.48,1.38-12.35,4.17-15.29,9.34c-2.66,4.67-0.29,9.71,4.45,11.66
				c11.36,4.67,24.93-3.68,29.87-13.83c0.75-1.54,0.27-4.1-1.79-4.41c-10.59-1.57-20.77-0.02-30.37,4.75
				c-3.46,1.72-0.42,6.9,3.03,5.18c8.03-3.99,16.86-5.46,25.75-4.14c-0.6-1.47-1.2-2.94-1.79-4.41c-2.88,5.93-8.1,10.31-14.64,11.61
				c-2.52,0.5-8.89,1.18-9.25-2.27c-0.35-3.44,6.13-5.92,8.81-6.86c6.28-2.18,13.15-2.36,19.54-0.54c2.4,0.69,7.2,1.99,8.78,4.15
				c2.33,3.17-3.39,6.41-6.05,7.71c-5.61,2.73-12.33,3.2-18.28,1.34c-3.05-0.95-9.25-3.59-9.29-7.52c-0.05-4.11,6.01-6.24,9.14-6.92
				c8.17-1.77,16.52,0.08,24.37,2.43c1.77,0.53,3.54,1.07,5.28,1.68c0.73,0.26,1.85,0.41,2.45,0.93c1.44,1.25,0.51-0.07,0.14,0.18
				c-0.94,0.64-4.16,0.15-5.3,0.12c-2.38-0.06-4.76-0.3-7.11-0.7c-4.39-0.73-8.7-2.06-12.75-3.89c-1.26-0.57-4.21-1.58-4.95-2.87
				c-2.47-4.32,5.36-3.74,7.55-3.42c9.06,1.31,18,3.81,26.64,6.78c0-1.93,0-3.86,0-5.79c-13.85,1.93-30.48,3.84-41.88-6.06
				c0.26,0.97,0.51,1.95,0.77,2.92c0.97-2.76,14.21,2.04,16.13,2.74c5.59,2.01,10.79,4.79,15.72,8.07c0.5-1.86,1.01-3.73,1.51-5.59
				c-8.72-0.03-16.5-3.37-22.56-9.64c-0.2,1.57-0.4,3.14-0.61,4.71c1.49-0.93,2.99-1.86,4.48-2.79
				C350.03,210.62,347.02,205.43,343.73,207.48L343.73,207.48z"/>
		</g>
	</g>
	<g>
		<g>
			<path class="st1" d="M244.97,230.59c10.47-8.49,22.88-17.93,37.19-14.14c0.27-1.96,0.53-3.93,0.8-5.89
				c-15.36,0.14-29.83,6.12-40.81,16.86c-2.37,2.32,0.79,6.72,3.64,4.71c10.03-7.07,20.65-14.47,33.32-15.07
				c-0.27-1.96-0.53-3.93-0.8-5.89c-9.4,2.48-17.81,6.92-25.25,13.16c-1.94,1.63-0.4,5.32,2.12,5.12
				c18.77-1.47,36.29-7.96,53.7-14.69c3.52-1.36,2.18-6.91-1.6-5.79c-13.74,4.11-27.77,6.82-42.06,8.05
				c0.27,1.96,0.53,3.93,0.8,5.89c22.59-3.2,45.04-7.24,67.33-12.12c3.28-0.72,2.59-6.08-0.8-5.89c-15.75,0.87-31.5,1.74-47.25,2.62
				c0.27,1.96,0.53,3.93,0.8,5.89c21.84-4.37,46.16-8.77,65.86,4.62c0.77-1.83,1.54-3.66,2.31-5.48
				c-5.21-2.12-10.54-3.02-16.16-2.81c-3.85,0.15-3.87,6.15,0,6c5.12-0.2,9.82,0.67,14.56,2.59c3.32,1.35,4.95-3.69,2.31-5.48
				c-21.06-14.32-47.1-9.91-70.48-5.23c-3.3,0.66-2.58,6.08,0.8,5.89c15.75-0.87,31.5-1.74,47.25-2.62
				c-0.27-1.96-0.53-3.93-0.8-5.89c-22.29,4.88-44.74,8.92-67.33,12.12c-3.32,0.47-2.57,6.18,0.8,5.89c14.82-1.27,29.4-4,43.65-8.26
				c-0.53-1.93-1.06-3.86-1.6-5.79c-16.85,6.52-33.94,13.05-52.11,14.48c0.71,1.71,1.41,3.41,2.12,5.12
				c6.65-5.58,14.21-9.41,22.6-11.62c3.21-0.85,2.64-6.06-0.8-5.89c-13.85,0.66-25.34,8.13-36.35,15.89
				c1.21,1.57,2.42,3.14,3.64,4.71c9.86-9.64,22.77-14.98,36.56-15.1c3.35-0.03,4.11-5.01,0.8-5.89
				c-16.64-4.41-30.76,5.74-43.02,15.68C237.72,228.78,241.99,233,244.97,230.59L244.97,230.59z"/>
		</g>
	</g>
	<g>
		<g>
			<path class="st1" d="M291.42,212.55c-3.21,1.74-6.47,2.35-10.08,1.72c0.24,1.83,0.48,3.66,0.72,5.48
				c25.76-16.68,57.35-9.9,82.36,4.61c3.35,1.94,6.37-3.24,3.03-5.18c-26.8-15.55-60.88-22.43-88.42-4.61
				c-1.97,1.27-1.99,5.01,0.72,5.48c5.28,0.92,9.98,0.23,14.71-2.33C297.84,215.89,294.82,210.71,291.42,212.55L291.42,212.55z"/>
		</g>
	</g>
	<g>
		<g>
			<path class="st1" d="M374.43,217.55c-2.35,1.59-4.71,3.17-7.06,4.76c1.21,1.57,2.42,3.14,3.64,4.71c2.59-2.55,8.26-8.2,4.4-11.91
				c-1.82-1.75-4.65-1.03-5.8,1.08c-1.26,2.32,0.19,5.16,2.92,5.15c3.86-0.01,3.87-6.01,0-6c-0.07,0-0.15,0-0.22,0
				c0.5,0.14,1.01,0.27,1.51,0.41c-0.05-0.03-0.09-0.06-0.14-0.09c0.46,0.6,0.92,1.2,1.38,1.79c-0.66,0.88-1.32,1.76-1.98,2.65
				c-0.5-0.14-1.01-0.27-1.51-0.41c-0.06-0.02-0.11-0.04-0.17-0.06c-0.26-0.44-0.51-0.88-0.77-1.32c-0.08-0.22,0.25-0.32-0.22,0.18
				c-0.39,0.41-0.67,0.98-1.02,1.42c-0.8,1.02-1.69,1.96-2.61,2.87c-2.37,2.33,0.75,6.65,3.64,4.71c2.35-1.59,4.71-3.17,7.06-4.76
				C380.64,220.58,377.64,215.38,374.43,217.55L374.43,217.55z"/>
		</g>
	</g>
	<g>
		<g>
			<path class="st1" d="M370.79,217.61c-6.6-11.49-17.76-19.56-30.8-22.04c-2.51-0.48-4.75,2.01-3.39,4.41
				c3.33,5.87,9.51,7.98,15.47,10.31c4.25,1.67,8.5,3.33,12.75,5c2.76,1.08,13.66,3.55,13.7,7.34c1.86-0.5,3.73-1.01,5.59-1.51
				c-4.25-7.66-11.34-12.98-19.91-14.83c-2.82-0.61-5.16,2.83-2.92,5.01c5.9,5.74,13.66,8.59,21.88,7.72c3.8-0.4,3.84-6.41,0-6
				c-6.71,0.71-12.77-1.22-17.64-5.96c-0.97,1.67-1.95,3.34-2.92,5.01c7.14,1.55,12.78,5.69,16.32,12.08
				c1.45,2.61,5.62,1.43,5.59-1.51c-0.09-8.03-10.33-10.08-16.29-12.41c-4.86-1.9-9.71-3.81-14.57-5.71
				c-4.39-1.72-9.42-3.22-11.89-7.56c-1.13,1.47-2.26,2.94-3.39,4.41c11.59,2.2,21.33,9.03,27.21,19.28
				C367.53,223.99,372.72,220.97,370.79,217.61L370.79,217.61z"/>
		</g>
	</g>
	<g>
		<g>
			<path class="st1" d="M383.02,215.78c-0.93,3.01-0.25,5.3,1.73,7.65c1.32,1.58,3.72,0.86,4.71-0.61c1.87-2.76,3.73-5.53,5.6-8.29
				c0.67-1,0.51-2.85-0.47-3.64c-11.04-8.92-23.98-14.13-38.13-15.29c-3.85-0.32-3.83,5.69,0,6c12.42,1.02,24.18,5.7,33.89,13.53
				c-0.16-1.21-0.31-2.42-0.47-3.64c-1.87,2.76-3.73,5.53-5.6,8.29c1.57-0.2,3.14-0.4,4.71-0.61c-0.06-0.6-0.13-1.21-0.19-1.81
				C389.95,213.67,384.16,212.09,383.02,215.78L383.02,215.78z"/>
		</g>
	</g>
	<g>
		<g>
			<path class="st1" d="M363.36,204.33c6.36,7.77,14.61,13.37,24.09,16.65c2.93,1.01,4.92-2.97,2.92-5.01
				c-5.71-5.82-11.92-11.04-18.6-15.71c-2.8-1.96-6.11,2.41-3.64,4.71c4.74,4.4,9.93,8.15,15.62,11.24c3.4,1.84,6.43-3.34,3.03-5.18
				c-5.26-2.85-10.02-6.23-14.4-10.3c-1.21,1.57-2.42,3.14-3.64,4.71c6.27,4.38,12.03,9.31,17.39,14.77
				c0.97-1.67,1.95-3.34,2.92-5.01c-8.53-2.95-15.74-8.13-21.44-15.1C365.15,197.1,360.93,201.36,363.36,204.33L363.36,204.33z"/>
		</g>
	</g>
	<g>
		<g>
			<path class="st1" d="M242.4,219.99c-0.19,0.09-0.38,0.18-0.58,0.27c1.21,0.16,2.42,0.31,3.64,0.47
				c-0.17-0.19-0.34-0.38-0.51-0.58c0.16,1.21,0.31,2.42,0.47,3.64c0.9-2.02,5.89-3.88,7.8-4.99c2.92-1.7,5.88-3.34,8.87-4.91
				c6.03-3.17,12.19-6.06,18.48-8.69c3.51-1.47,1.97-7.28-1.6-5.79c-7.33,3.07-14.53,6.4-21.54,10.16
				c-3.52,1.89-6.99,3.86-10.41,5.93c-2.21,1.34-5.66,2.75-6.78,5.26c-0.58,1.31-0.49,2.55,0.47,3.64c0.17,0.19,0.34,0.38,0.51,0.58
				c0.94,1.07,2.47,1.01,3.64,0.47c0.19-0.09,0.38-0.18,0.58-0.27C248.94,223.55,245.89,218.38,242.4,219.99L242.4,219.99z"/>
		</g>
	</g>
	<g>
		<g>
			<path class="st1" d="M238.54,219.71c-3.1,0.71-4.97,2.57-5.62,5.68c-0.49,2.32,2.11,5.02,4.41,3.39
				c16.24-11.55,32.16-21.62,52.37-23.96c18.13-2.1,41.22-5.52,55.24,9.09c0.97-1.67,1.95-3.34,2.92-5.01
				c-24.21-8.17-50.54-8.07-74.68,0.29c-3.09,1.07-2.73,5.91,0.8,5.89c8.72-0.04,17.27-1.22,25.67-3.55c2.98-0.83,2.72-4.85,0-5.79
				c-6.14-2.12-12.37-2.79-18.82-1.96c-3.72,0.48-3.98,5.9,0,6c8.54,0.21,16.92-0.74,25.2-2.83c-1.27-0.96-2.53-1.93-3.8-2.89
				c0.27,2.12,0.53,4.24,0.8,6.36c0.47,3.78,6.48,3.83,6,0c-0.27-2.12-0.53-4.24-0.8-6.36c-0.24-1.93-1.72-3.42-3.8-2.89
				c-7.78,1.96-15.59,2.81-23.6,2.61c0,2,0,4,0,6c5.95-0.77,11.55-0.22,17.23,1.74c0-1.93,0-3.86,0-5.79
				c-7.9,2.19-15.88,3.3-24.08,3.33c0.27,1.96,0.53,3.93,0.8,5.89c23.22-8.04,48.2-8.14,71.49-0.29c2.95,0.99,4.9-2.95,2.92-5.01
				c-14.97-15.59-38.11-13.1-57.65-11.04c-10.36,1.09-20.2,3.28-29.66,7.74c-9.83,4.64-18.74,10.95-27.57,17.24
				c1.47,1.13,2.94,2.26,4.41,3.39c0.48-0.5,0.95-1,1.43-1.49C243.9,224.64,242.31,218.85,238.54,219.71L238.54,219.71z"/>
		</g>
	</g>
	<g>
		<g>
			<path class="st1" d="M350.19,218.69c2.23,6.07,9.82,8.06,15.04,4.19c6.6-4.89,3.84-14.6-1.59-19.11
				c-2.01-1.67-4.98-0.6-5.12,2.12c-0.4,7.75,6.44,13.08,13.81,11.98c1.5-0.22,2.63-2.31,2.1-3.69
				c-3.72-9.6-11.66-16.62-21.87-18.57c-2.72-0.52-5.32,2.85-2.92,5.01c4.94,4.46,10.48,6.91,17.06,7.76
				c2.72,0.35,3.76-3.43,2.12-5.12c-4.54-4.69-10.44-6.98-16.7-8.43c-7.26-1.68-14.72-3-22.14-3.74
				c-14.22-1.41-28.8,0.7-39.91,10.29c-2.93,2.53,1.33,6.76,4.24,4.24c9.86-8.52,23.18-9.78,35.67-8.54
				c6.4,0.64,12.81,1.86,19.1,3.21c5.75,1.24,11.3,2.87,15.5,7.21c0.71-1.71,1.41-3.41,2.12-5.12c-4.88-0.64-9.18-2.72-12.82-6.01
				c-0.97,1.67-1.95,3.34-2.92,5.01c8.04,1.54,14.68,6.66,17.68,14.38c0.7-1.23,1.4-2.46,2.1-3.69c-3.77,0.56-6.39-2.78-6.21-6.19
				c-1.71,0.71-3.41,1.41-5.12,2.12c2.41,2,4.93,5.52,3.15,8.75c-1.15,2.07-5.43,3.44-6.57,0.34
				C354.65,213.5,348.85,215.06,350.19,218.69L350.19,218.69z"/>
		</g>
	</g>
	<g>
		<g>
			<path class="st1" d="M353.33,203.51c-12.63-3.35-25.77-9.8-38.52-3.5c-1.37,0.68-1.96,2.84-1.08,4.1
				c0.71,1.01,1.41,2.02,2.12,3.03c2.2,3.14,7.4,0.15,5.18-3.03c-0.71-1.01-1.41-2.02-2.12-3.03c-0.36,1.37-0.72,2.74-1.08,4.1
				c10.74-5.31,23.32,1.3,33.9,4.1C355.47,210.29,357.06,204.5,353.33,203.51L353.33,203.51z"/>
		</g>
	</g>
</g>
<g id="Layer_1">
	<g>
		<g>
			<path d="M397.47,244.81c12.11-18.57,37.53-22.24,56.39-12.38c20.81,10.89,31.89,33.12,35.24,55.57
				c6.21,41.65-7.83,85.54-32.91,118.75c-13.92,18.44-31.57,33.86-51.81,45.02c-1.69,0.93-0.18,3.52,1.51,2.59
				c38.94-21.47,68.15-58.74,80.76-101.29c12.09-40.79,11.83-101.4-31.95-123.56c-20.27-10.26-46.97-5.95-59.83,13.79
				C393.82,244.92,396.42,246.42,397.47,244.81L397.47,244.81z"/>
			<path d="M400.59,421.34c3.89-46.65,4.78-93.49,2.67-140.25c-0.09-1.92-3.09-1.93-3,0c2.11,46.76,1.21,93.61-2.67,140.25
				C397.43,423.26,400.43,423.25,400.59,421.34L400.59,421.34z"/>
			<path d="M400.27,426.1c21.97-23.95,41.9-51.01,52.38-82.09c5.14-15.25,7.97-31.7,6.86-47.82c-0.87-12.66-5.3-26.73-18.07-31.93
				c-15.73-6.41-31.84,3.14-39.27,17.15c-0.9,1.71,1.69,3.22,2.59,1.51c7.07-13.36,22.88-22.56,37.54-14.95
				c13.26,6.88,14.71,24.52,14.37,37.7c-0.74,28.72-12.36,55.87-27.91,79.6c-9.03,13.78-19.47,26.57-30.6,38.7
				C396.85,425.39,398.96,427.52,400.27,426.1L400.27,426.1z"/>
			<path d="M397.47,242.13c1.07-9.77,2.13-19.55,3.2-29.32c0.21-1.92-2.79-1.9-3,0c-1.07,9.77-2.13,19.55-3.2,29.32
				C394.26,244.05,397.26,244.03,397.47,242.13L397.47,242.13z"/>
			<path d="M400.59,451.9c0.72,6.47,1.45,12.94,2.17,19.41c0.21,1.9,3.21,1.92,3,0c-0.72-6.47-1.45-12.94-2.17-19.41
				C403.38,450.01,400.38,449.98,400.59,451.9L400.59,451.9z"/>
			<path d="M243.85,468.3c48.9,24.13,110.2,38.5,158.87,5.69c1.59-1.07,0.09-3.67-1.51-2.59c-47.76,32.19-107.87,17.98-155.84-5.69
				C243.64,464.85,242.12,467.44,243.85,468.3L243.85,468.3z"/>
			<path d="M246.82,465.23c0.59-5.09,0.34-10.1-0.68-15.12c-0.39-1.89-3.28-1.09-2.89,0.8c0.97,4.75,1.14,9.51,0.58,14.32
				C243.6,467.14,246.6,467.13,246.82,465.23L246.82,465.23z"/>
			<path d="M137.01,320.48c6.27,27.98,17.07,56.48,33.91,79.9c17.18,23.89,44.94,36.48,69.67,51.04c1.67,0.98,3.18-1.61,1.51-2.59
				c-24.75-14.58-52.69-27.17-69.57-51.35c-16.1-23.05-26.51-50.51-32.63-77.81C139.48,317.8,136.58,318.6,137.01,320.48
				L137.01,320.48z"/>
			<path d="M156.28,312.67c9.61-11.57,11.7-27.47,5.43-41.13c-0.36-0.78-1.38-0.85-2.05-0.54c-12.29,5.76-24.57,11.51-36.86,17.27
				c-11.78,5.52-24.71,13.91-38.12,13.49c-1.17-0.04-1.82,1.29-1.3,2.26c9.74,17.84,34.32,14.13,51.2,13.77c1.93-0.04,1.93-3.04,0-3
				c-15.69,0.33-39.54,4.33-48.61-12.28c-0.43,0.75-0.86,1.5-1.3,2.26c12.85,0.4,24.76-6.94,36.04-12.22
				c13.49-6.32,26.97-12.63,40.46-18.95c-0.68-0.18-1.37-0.36-2.05-0.54c5.67,12.35,3.73,27.04-4.96,37.5
				C152.93,312.02,155.04,314.15,156.28,312.67L156.28,312.67z"/>
			<path d="M154.71,315.28c1.47,12.7,5.19,24.83,10.21,36.56c4.81,11.23,10.31,22.5,17.91,32.13c7.85,9.93,17.99,16.26,29.33,21.57
				c11.59,5.42,23.79,11.47,36.94,10c1.9-0.21,1.92-3.21,0-3c-13.15,1.47-25.44-4.83-36.99-10.33
				c-10.72-5.1-20.23-11.38-27.54-20.88c-6.84-8.88-11.87-19.14-16.35-29.37c-5.13-11.71-9.04-23.95-10.51-36.68
				C157.49,313.39,154.49,313.36,154.71,315.28L154.71,315.28z"/>
			<path d="M253.45,407.91c-2.02-60.1-9.77-119.92-23.15-178.54c-0.43-1.88-3.32-1.09-2.89,0.8
				c13.32,58.37,21.04,117.91,23.05,177.75C250.51,409.84,253.51,409.85,253.45,407.91L253.45,407.91z"/>
			<path d="M229.41,232.43c11.14,12.29,29.84,17.34,45.28,21.57c17.69,4.85,36.28,7.4,54.6,5.4c29.44-3.21,58.52-19.33,71.23-46.99
				c0.8-1.74-1.78-3.27-2.59-1.51c-12.54,27.28-41.37,42.99-70.46,45.69c-17.49,1.62-35.12-0.84-51.99-5.47
				c-14.98-4.12-33.17-8.91-43.95-20.8C230.23,228.88,228.11,231,229.41,232.43L229.41,232.43z"/>
			<path d="M399.41,210.7c-26.61-15.94-58.15-22.56-88.97-19.55c-14.87,1.45-29.49,5.07-43.25,10.91
				c-7.1,3.02-13.96,6.61-20.45,10.79c-6.19,3.98-12.02,8.27-14.96,15.24c-0.75,1.78,2.15,2.55,2.89,0.8
				c3.32-7.88,11.76-12.56,18.85-16.67c6.12-3.54,12.51-6.61,19.1-9.14c13.57-5.22,27.93-8.34,42.43-9.3
				c28.86-1.92,57.98,4.63,82.84,19.52C399.56,214.29,401.07,211.69,399.41,210.7L399.41,210.7z"/>
		</g>
	</g>
</g>
</svg>
