<?xml version="1.0" encoding="utf-8"?>
<!-- Generator: Adobe Illustrator 23.0.2, SVG Export Plug-In . SVG Version: 6.00 Build 0)  -->
<svg version="1.1" id="Layer_1" xmlns="http://www.w3.org/2000/svg" xmlns:xlink="http://www.w3.org/1999/xlink" x="0px" y="0px"
	 viewBox="0 0 612 792" style="enable-background:new 0 0 612 792;" xml:space="preserve">
<style type="text/css">
	.st0{fill:#79A8DB;}
</style>
<g>
	<g>
		<path class="st0" d="M321.38,223.97c-4.41,3.55-4.8,9.55-5.43,14.79c-0.92,7.72-1.03,15.45-0.49,23.2
			c0.21,3.01,3.89,4.03,5.59,1.51c7.81-11.55,9.73-26.1,5.17-39.28c-1.25-3.63-7.05-2.07-5.79,1.6c4.08,11.8,2.43,24.32-4.57,34.66
			c1.86,0.5,3.73,1.01,5.59,1.51c-0.41-5.88-0.47-11.76-0.04-17.65c0.35-4.8,0.07-12.78,4.2-16.1
			C328.63,225.79,324.36,221.57,321.38,223.97L321.38,223.97z"/>
	</g>
</g>
<g>
	<g>
		<path class="st0" d="M271.85,261.84c-7.05,12.76-9.49,26.98-7.32,41.37c0.42,2.82,4.17,2.56,5.48,0.72
			c8.62-12.1,11.28-27.29,7.55-41.64c-0.97-3.73-6.76-2.15-5.79,1.6c3.36,12.91,0.78,26.18-6.94,37.02
			c1.83,0.24,3.66,0.48,5.48,0.72c-1.92-12.72,0.51-25.51,6.72-36.75C278.9,261.49,273.72,258.46,271.85,261.84L271.85,261.84z"/>
	</g>
</g>
<g>
	<g>
		<path class="st0" d="M346.88,285.61c-2.83,14.54-5.35,29.05-3.15,43.87c0.41,2.79,4.19,2.6,5.48,0.72
			c8.36-12.17,11.22-26.9,8.41-41.36c-0.74-3.79-6.52-2.18-5.79,1.6c2.52,12.92-0.38,25.92-7.8,36.73c1.83,0.24,3.66,0.48,5.48,0.72
			c-2.03-13.66,0.54-27.29,3.15-40.68C353.4,283.43,347.62,281.82,346.88,285.61L346.88,285.61z"/>
	</g>
</g>
<g>
	<g>
		<path class="st0" d="M307.44,181.99c0.14-0.06,0.28-0.11,0.42-0.17c1.22-0.49,2.24-1.47,2.2-2.89c-0.05-1.73-0.62-2.54-1.97-3.57
			c-0.84-0.64-2.18-0.48-3.03,0c-2.95,1.65-3.57,5.4-4.7,8.37c-1.53,3.99-3.14,7.97-4.58,11.99c-1.7,4.74-3.55,13.28,2.67,15.85
			c5.81,2.39,10.63-5.84,12.42-10.16c2.49-5.96,2.6-12.57,0.38-18.63c-1.32-3.59-7.12-2.04-5.79,1.6c1.28,3.48,1.77,7.04,1.09,10.71
			c-0.42,2.27-2.86,10.29-5.68,9.26c-2.57-0.93,1.63-9.5,2.32-11.32c0.76-2,1.53-4,2.29-6c0.48-1.25,1.43-5.84,2.6-6.5
			c-1.01,0-2.02,0-3.03,0c0.16,0.12,0.31,0.24,0.47,0.36c-0.5-0.86-0.99-1.73-1.49-2.59c0.01,0.21,0.01,0.41,0.02,0.62
			c0.73-0.96,1.47-1.93,2.2-2.89c-0.14,0.06-0.28,0.11-0.42,0.17C302.31,177.63,303.86,183.43,307.44,181.99L307.44,181.99z"/>
	</g>
</g>
<g>
	<g>
		<path class="st0" d="M354.16,202.68c-4.24,11.14-4.89,22.99-2.1,34.57c0.65,2.71,4.08,2.69,5.48,0.72
			c7.04-9.88,8.89-22.41,5.11-33.93c-1.2-3.65-7-2.09-5.79,1.6c3.33,10.14,1.69,20.62-4.5,29.3c1.83,0.24,3.66,0.48,5.48,0.72
			c-2.55-10.59-1.77-21.22,2.1-31.38C361.32,200.66,355.52,199.1,354.16,202.68L354.16,202.68z"/>
	</g>
</g>
<g>
	<g>
		<path class="st0" d="M305.93,334c-7.61,12.57-9.9,27.32-6.6,41.63c0.35,1.53,2.2,2.58,3.69,2.1c15.61-5.06,12.82-28,7.97-39.67
			c-1.46-3.51-7.27-1.97-5.79,1.6c3.31,7.97,7.98,28.47-3.78,32.29c1.23,0.7,2.46,1.4,3.69,2.1c-2.94-12.76-0.78-25.81,6-37.01
			C313.12,333.72,307.93,330.7,305.93,334L305.93,334z"/>
	</g>
</g>
<g>
	<g>
		<path class="st0" d="M253.35,362.24c-2.4,9.26-3.88,18.78-4.09,28.36c-0.13,5.98,0.66,12.31,6.9,14.7
			c1.24,0.47,2.74-0.32,3.39-1.38c8.19-13.47,8.58-30.15,1.24-44.06c-1.8-3.42-6.99-0.39-5.18,3.03c6.36,12.03,5.82,26.4-1.24,38
			c1.13-0.46,2.26-0.92,3.39-1.38c-4.5-1.72-2.38-12.92-2.07-16.34c0.58-6.54,1.8-12.98,3.45-19.33
			C260.11,360.09,254.32,358.5,253.35,362.24L253.35,362.24z"/>
	</g>
</g>
<g>
	<g>
		<path class="st0" d="M336.11,379.76c-1.18,5.44-5.75,37.32,7.49,31.86c5.15-2.13,5.96-8.73,6.14-13.55
			c0.28-7.52-1.65-14.81-5.03-21.48c-1.75-3.44-6.93-0.41-5.18,3.03c2.11,4.16,3.58,8.61,4.05,13.27c0.3,2.94,1.21,10.31-1.38,12.17
			c-0.14,0.76-0.41,0.98-0.82,0.66c-0.32-1.4-0.54-2.81-0.66-4.25c-0.2-1.9-0.31-3.82-0.33-5.73c-0.06-4.86,0.5-9.63,1.53-14.39
			C342.71,377.59,336.93,375.98,336.11,379.76L336.11,379.76z"/>
	</g>
</g>
<g>
	<g>
		<path class="st0" d="M289.27,424.48c-1.91,9.94-3.51,19.94-4.78,29.99c-0.4,3.15-1.5,7.13,0.37,10.01
			c1.46,2.25,4.14,3.02,6.59,2.01c6.27-2.59,7.63-13.9,8.73-19.57c1.64-8.43,1.55-16.69-2.22-24.53c-1.67-3.48-6.85-0.44-5.18,3.03
			c2.76,5.74,2.94,12.06,1.92,18.26c-0.79,4.77-1.74,11.24-4.21,15.45c-0.78,1.32-0.37,1.63-0.57,0.08
			c-0.15-1.13,0.31-2.66,0.45-3.79c0.44-3.52,0.92-7.03,1.45-10.54c0.94-6.29,2.04-12.55,3.24-18.8
			C295.78,422.31,290,420.69,289.27,424.48L289.27,424.48z"/>
	</g>
</g>
<g>
	<g>
		<path class="st0" d="M337.19,459.02c-1.75,11.61-0.6,23.09,3.8,34c0.87,2.16,3.18,2.89,5.01,1.32
			c13.69-11.71,13.68-32.67-0.02-44.37c-2.92-2.5-7.18,1.73-4.24,4.24c11.36,9.7,11.37,26.17,0.02,35.89
			c1.67,0.44,3.34,0.88,5.01,1.32c-3.97-9.84-5.39-20.29-3.8-30.81C343.54,456.84,337.76,455.21,337.19,459.02L337.19,459.02z"/>
	</g>
</g>
<g>
	<g>
		<path class="st0" d="M246.37,452.89c-4.03,12.01-4.08,24.73-0.16,36.78c0.64,1.98,2.6,2.61,4.41,1.79
			c13.65-6.21,16.19-24.01,5.23-34.07c-2.84-2.61-7.09,1.62-4.24,4.24c8.3,7.62,6.14,20.03-4.02,24.64c1.47,0.6,2.94,1.2,4.41,1.79
			c-3.62-11.12-3.56-22.51,0.16-33.59C253.38,450.82,247.59,449.25,246.37,452.89L246.37,452.89z"/>
	</g>
</g>
</svg>
